<?xml version="1.0" standalone="no"?>
<!DOCTYPE svg PUBLIC "-//W3C//DTD SVG 1.1//EN" "http://www.w3.org/Graphics/SVG/1.1/DTD/svg11.dtd" >
<svg xmlns="http://www.w3.org/2000/svg">
<metadata></metadata>
<defs>
<font id="AliceRegular" horiz-adv-x="1337" >
<font-face units-per-em="2048" ascent="1638" descent="-410" />
<missing-glyph horiz-adv-x="456" />
<glyph horiz-adv-x="0" />
<glyph horiz-adv-x="0" />
<glyph unicode=" "  horiz-adv-x="456" />
<glyph unicode="&#x09;" horiz-adv-x="456" />
<glyph unicode="&#xa0;" horiz-adv-x="456" />
<glyph unicode="!" horiz-adv-x="536" d="M137 106q0 55 37.5 92.5t93.5 37.5t93.5 -37.5t37.5 -92.5q0 -58 -37 -94.5t-96 -36.5q-56 0 -92.5 36.5t-36.5 94.5zM158 1167q0 240 110 240q111 0 111 -240q0 -118 -31 -377.5t-31 -336.5q0 -14 -14.5 -21.5t-34.5 -7.5q-17 0 -33 8t-16 21q0 77 -30.5 336.5 t-30.5 377.5z" />
<glyph unicode="&#x22;" horiz-adv-x="694" d="M92 1264q0 145 98 145q97 0 97 -143q0 -71 -28.5 -227t-31.5 -203q0 -23 -37 -23q-13 0 -24.5 6.5t-11.5 16.5q-3 47 -32.5 201.5t-29.5 226.5zM406 1264q0 145 98 145q96 0 96 -143q0 -71 -28 -227.5t-31 -202.5q0 -23 -37 -23q-13 0 -25 6.5t-12 16.5q-3 46 -32 201 t-29 227z" />
<glyph unicode="#" horiz-adv-x="1261" d="M86 416q0 24 10.5 42t28.5 19h203l71 338h-192q-18 0 -28.5 15.5t-10.5 35.5q0 24 10.5 42.5t28.5 19.5h215l70 327q3 16 18 26.5t31 10.5q25 0 42.5 -10t18.5 -27l-70 -327h314l74 325q9 39 51 39q23 0 40.5 -10.5t18.5 -28.5l-69 -325h176q18 -1 28.5 -19.5t10.5 -42.5 q0 -20 -10.5 -35.5t-28.5 -15.5h-199l-72 -338h189q18 -1 28.5 -19t10.5 -42q0 -20 -10.5 -35.5t-28.5 -15.5h-209l-70 -328q-3 -16 -18 -26.5t-31 -10.5q-25 0 -42.5 10t-18.5 27l69 328h-319l-68 -326q-3 -18 -17.5 -28.5t-33.5 -10.5q-24 0 -42 10.5t-19 28.5l67 326 h-178q-18 0 -28.5 15.5t-10.5 35.5zM438 477h318l69 338h-315z" />
<glyph unicode="$" horiz-adv-x="1024" d="M125 145q-14 67 21 127t102 60q38 0 62 -19t24 -32q0 -2 -15 -15t-30 -37t-15 -53q8 -118 181 -133v483q-37 16 -53.5 23t-51 23t-51.5 26.5t-45 28.5t-42 32.5t-33 36.5t-28 43.5t-16 49t-8 57.5q-4 126 87.5 206.5t240.5 100.5v111q0 47 39 47q41 0 41 -47v-105h8 q25 0 53.5 -3t69.5 -14t74.5 -28.5t62.5 -50.5t39 -76q16 -67 -19.5 -126.5t-103.5 -59.5q-37 0 -62.5 18.5t-25.5 32.5q0 2 15.5 14.5t31.5 36.5t16 53q0 61 -47 92.5t-112 36.5v-409q380 -149 385 -367q3 -168 -93 -247.5t-292 -88.5v-108q0 -47 -41 -47q-39 0 -39 47v108 h-27q-26 0 -55 3t-70 14t-75 28.5t-63 50.5t-40 76zM279 913q0 -48 13.5 -83.5t41.5 -58.5t53.5 -36t67.5 -28v376q-86 -13 -131 -60.5t-45 -109.5zM535 43q95 10 158.5 59t64.5 129q0 93 -58.5 151.5t-164.5 106.5v-446z" />
<glyph unicode="%" horiz-adv-x="1589" d="M90 979q0 82 29.5 150t76.5 110.5t102.5 66t111.5 23.5q142 0 231.5 -98.5t89.5 -235.5q0 -83 -29.5 -152.5t-77 -112.5t-103 -67t-111.5 -24q-143 0 -231.5 100.5t-88.5 239.5zM226.5 21q-10.5 21 4.5 42l990 1201q29 34 75 22q26 -11 35.5 -32.5t-4.5 -43.5l-993 -1198 q-32 -35 -72 -22q-25 10 -35.5 31zM242 981q0 -72 15 -127t53.5 -92t99.5 -37q89 0 129.5 75t40.5 195q0 110 -41 180t-129 70q-168 0 -168 -264zM858 299q0 82 29.5 151t76.5 111.5t102.5 66t111.5 23.5q142 0 232.5 -99t90.5 -237q0 -82 -30 -151.5t-77.5 -113 t-103.5 -67.5t-112 -24q-94 0 -168.5 48t-113 125t-38.5 167zM1012 301q0 -111 39.5 -182.5t126.5 -71.5q61 0 100 38.5t54.5 96t15.5 133.5q0 110 -41 181t-129 71q-166 0 -166 -266z" />
<glyph unicode="&#x26;" horiz-adv-x="1792" d="M84 504q0 152 88 263t250 138v6q-129 97 -129 240q0 135 99 217t270 82q122 0 206 -54.5t84 -158.5q0 -65 -37.5 -112.5t-101.5 -47.5q-39 0 -66.5 21t-27.5 35q0 2 16.5 15t33.5 39t17 58q0 60 -42 95.5t-105 35.5q-99 0 -153 -60t-54 -147q0 -150 125 -217h68h6 q15 0 21.5 -0.5t14.5 -5t11 -15t4 -28.5q0 -20 -10 -34.5t-29 -14.5h-72q-90 -8 -153 -57t-90 -116t-27 -144q0 -199 133.5 -317t347.5 -118q111 0 211.5 36t174.5 99t117.5 153.5t43.5 193.5q0 76 -27.5 142t-84.5 109.5t-134 43.5q-37 0 -75.5 -13.5t-68.5 -46t-28 -76.5 q2 -30 19.5 -51.5t50.5 -27.5q31 -4 59.5 8.5t45.5 26.5t18 14q13 -2 28.5 -33.5t10.5 -69.5q-7 -54 -47 -84t-97 -30q-77 0 -124.5 62t-47.5 161q0 77 23.5 137t63 97t94.5 64.5t113.5 41t125.5 24t124.5 15.5t116.5 14.5t97 22.5q47 16 76.5 47t28.5 69q-3 57 -76 68 q-31 4 -59.5 -8.5t-45.5 -26.5t-18 -14q-13 2 -28.5 33t-10.5 69q8 52 45.5 83t83.5 32.5t92 -14.5q51 -24 73.5 -76t20.5 -113q-2 -109 -74.5 -191t-189.5 -123.5t-258 -41.5q176 -150 176 -346q0 -191 -94 -334.5t-252.5 -217t-355.5 -71.5q-99 1 -190.5 21.5t-173 64 t-141.5 105.5t-95 153t-35 201z" />
<glyph unicode="'" horiz-adv-x="380" d="M92 1264q0 145 98 145q97 0 97 -143q0 -71 -28.5 -227t-31.5 -203q0 -23 -37 -23q-13 0 -24.5 6.5t-11.5 16.5q-3 47 -32.5 201.5t-29.5 226.5z" />
<glyph unicode="(" horiz-adv-x="600" d="M74 578q0 284 116.5 521t337.5 392q36 21 52 -16q13 -32 -15 -56q-143 -138 -230 -364.5t-87 -479.5t86.5 -479t228.5 -362q28 -24 15 -56q-16 -37 -52 -16q-220 150 -336 389t-116 527z" />
<glyph unicode=")" horiz-adv-x="600" d="M20 1475q16 37 52 16q221 -155 337.5 -392t116.5 -521q0 -288 -116 -527t-336 -389q-35 -21 -51 16q-13 32 14 56q142 136 228.5 362t86.5 479t-87 479.5t-230 364.5q-28 24 -15 56z" />
<glyph unicode="*" horiz-adv-x="1077" d="M90 1108q-2 38 27.5 66t77.5 28q33 0 124 -35t175 -45l14 13q-44 52 -94.5 92t-85 65t-49.5 49q-21 45 -12 81t42 57t74.5 10t67.5 -49q16 -26 30.5 -120t46.5 -171q4 2 19 2q35 76 47 170t27 119q25 40 65.5 49.5t71.5 -10.5q36 -16 47.5 -53t-12.5 -78 q-12 -21 -37 -42.5t-52 -39.5t-64.5 -52.5t-68.5 -76.5q2 -2 4.5 -9t2.5 -8q69 9 130 30t102 37.5t69 16.5q51 0 80.5 -27.5t27.5 -66.5q0 -39 -29.5 -66.5t-78.5 -27.5q-30 0 -121.5 34t-177.5 44l-13 -13q42 -51 92.5 -90.5t86 -65t49.5 -48.5q23 -45 15 -81t-42 -57 q-37 -21 -77.5 -10t-65.5 49q-17 27 -32 120.5t-48 168.5q-4 -2 -19 -2q-28 -59 -39 -119t-15.5 -102.5t-18.5 -65.5q-22 -41 -63 -50.5t-71 11.5q-38 18 -49.5 53.5t13.5 77.5q13 25 48 50.5t83.5 65.5t87.5 93q-2 2 -3.5 9t-2.5 8q-87 -10 -178.5 -46t-122.5 -36 q-48 -1 -77.5 27t-27.5 67z" />
<glyph unicode="+" horiz-adv-x="1159" d="M74 541q0 21 13 38t32 17h397v385q0 22 20 36.5t46 14.5q25 0 44 -14.5t19 -36.5v-385h395q19 0 32 -17t13 -38t-13 -38.5t-32 -17.5h-395v-434q0 -22 -19.5 -36.5t-45.5 -14.5q-25 0 -44.5 14.5t-19.5 36.5v434h-397q-19 0 -32 17.5t-13 38.5z" />
<glyph unicode="," horiz-adv-x="485" d="M51.5 -208.5q1.5 18.5 20.5 26.5q174 65 174 182q0 28 -16 50t-38.5 37t-45 29.5t-38.5 35.5t-16 47q0 39 30.5 70.5t72.5 31.5q86 0 146 -76.5t60 -167.5q0 -61 -26.5 -112.5t-72.5 -88t-96 -61t-108 -41.5q-19 -7 -33.5 6t-13 31.5z" />
<glyph unicode="-" horiz-adv-x="788" d="M123 473q0 24 13.5 45t33.5 21h448q20 0 34 -21t14 -45q0 -22 -14 -43.5t-34 -21.5h-448q-20 0 -33.5 21t-13.5 44z" />
<glyph unicode="." horiz-adv-x="454" d="M96 104q0 54 37 90.5t94 36.5q56 0 93.5 -36.5t37.5 -90.5q0 -58 -37.5 -93.5t-95.5 -35.5q-56 0 -92.5 35.5t-36.5 93.5z" />
<glyph unicode="/" horiz-adv-x="806" d="M70 -340l553 1743q7 22 26 32t41 7q23 -5 37 -23.5t10 -38.5l-557 -1742q-7 -21 -26 -30.5t-39 -6.5q-23 5 -36 21.5t-9 37.5z" />
<glyph unicode="0" horiz-adv-x="1198" d="M113 524q0 113 30 212.5t88 178.5t153 124.5t216 45.5q115 0 209 -47t154 -125.5t92 -178.5t32 -210q0 -109 -32 -209.5t-92 -180.5t-154 -127.5t-209 -47.5q-121 0 -216.5 47t-153 127t-87.5 179.5t-30 211.5zM309 524q0 -237 76 -363t217 -126q137 0 213 126.5 t76 362.5t-75.5 361t-213.5 125q-142 0 -217.5 -124.5t-75.5 -361.5z" />
<glyph unicode="1" horiz-adv-x="876" d="M104 43q0 12 3 20t5 12.5t9 6.5t9.5 2.5t13.5 0t14 -0.5q52 0 79.5 1.5t59.5 7t46.5 17t28.5 33t18.5 52.5t4.5 77v426q1 52 -1.5 86t-9.5 58t-19 35t-31 18.5t-44.5 7t-60 0.5t-77.5 0q-37 0 -37 49q1 22 7.5 32t14 11.5t24.5 1.5h7q33 0 72.5 6t72 14.5t71 21.5 t60 21.5t48.5 19.5l28 12q53 18 53 -43v-777q0 -31 2.5 -54.5t6.5 -42.5t13.5 -32.5t18.5 -23.5t26 -16.5t31 -10t39.5 -5.5t46 -2.5t54.5 -0.5q3 0 14 0.5t13.5 0t9.5 -2.5t9 -6.5t4.5 -12.5t2.5 -20q0 -49 -37 -49q-147 6 -344 6q-195 0 -342 -6q-37 0 -37 49z" />
<glyph unicode="2" horiz-adv-x="1005" d="M94 74q3 43 24.5 70t69.5 59q168 113 226 160q212 170 249 354q9 43 9 88q0 98 -52.5 152.5t-146.5 54.5q-80 0 -132 -40.5t-52 -109.5q0 -25 10.5 -46.5t23 -33.5t23 -21t10.5 -11q0 -14 -27.5 -35t-66.5 -21q-64 0 -101.5 40t-37.5 102q0 63 34 112.5t89.5 78.5 t118.5 43.5t127 14.5q71 0 135.5 -17t119.5 -51.5t88 -96t33 -142.5q0 -75 -31 -145t-77.5 -121.5t-114 -105t-126.5 -90.5t-131 -83t-112 -77v-11h549q22 0 31.5 -0.5t25.5 -4t23 -10.5t13 -21t6 -35q0 -74 -72 -74h-686q-72 0 -72 74z" />
<glyph unicode="3" horiz-adv-x="997" d="M104 188q0 59 37 102.5t103 43.5q39 0 66.5 -20.5t27.5 -34.5q0 -2 -10.5 -9.5t-23.5 -18.5t-23.5 -32.5t-10.5 -48.5q0 -64 54 -99.5t141 -35.5q97 0 159 61t62 183q0 99 -53.5 160t-159.5 67h-76q-14 0 -22 12.5t-8 28.5q0 18 8 32t22 15h76q80 7 128 71t48 154 q0 88 -44 141.5t-138 53.5q-74 0 -123 -36t-49 -104q0 -25 10.5 -46t23 -31.5t23 -18.5t10.5 -10q0 -14 -27.5 -34.5t-66.5 -20.5q-66 0 -102.5 40.5t-36.5 104.5q0 76 53 129t128 75.5t161 22.5q70 0 132 -14t116 -43.5t85.5 -83t31.5 -125.5q0 -85 -60 -159t-174 -105v-8 q40 -4 75.5 -13t75 -28.5t67.5 -47.5t46.5 -73t18.5 -102q0 -86 -35 -150.5t-95.5 -101.5t-134 -54.5t-159.5 -17.5q-65 0 -125 12.5t-113.5 38t-86 71.5t-32.5 107z" />
<glyph unicode="4" horiz-adv-x="1015" d="M31 399q0 28 14 45l576 629q21 21 63 21q32 0 55.5 -18t24.5 -54v-594h123q16 0 22 -0.5t15.5 -4.5t13 -15t4.5 -29q0 -51 -39 -51h-139v-314q0 -18 -26.5 -28.5t-61.5 -10.5q-34 0 -60.5 10.5t-29.5 28.5v314h-490q-32 0 -48.5 20t-16.5 51zM150 428h436v485z" />
<glyph unicode="5" horiz-adv-x="993" d="M109 143q-18 73 21 138t114 65q39 0 66.5 -20.5t27.5 -34.5q0 -2 -17 -15.5t-34 -39.5t-17 -58q0 -65 52 -104t118 -41q76 1 133.5 45t85 108.5t27.5 137.5q0 117 -55.5 195.5t-171.5 82.5q-83 2 -195 -74q-45 -32 -71 -32q-38 0 -31 82l63 487h523h11q24 0 35.5 -1 t25.5 -7t20.5 -21t7.5 -41q0 -32 -18.5 -53.5t-55.5 -21.5h-455l-43 -285q98 57 222 57q64 0 129 -21t123.5 -62t95.5 -112.5t37 -162.5q0 -88 -41 -161.5t-106.5 -119t-143.5 -70t-156 -24.5q-28 0 -59 3.5t-75.5 15t-81 30.5t-68 54t-43.5 81z" />
<glyph unicode="6" horiz-adv-x="1042" d="M109 410q0 252 174 440.5t454 239.5q37 5 54.5 -1.5t17.5 -33.5q0 -33 -37 -43q-373 -117 -446 -420q126 82 272 82q151 0 253.5 -96t102.5 -244q0 -110 -60 -197t-155.5 -132.5t-203.5 -45.5q-194 0 -310 120.5t-116 330.5zM305 408q0 -46 6.5 -94.5t23.5 -101t42 -93.5 t66 -67.5t92 -26.5q96 0 159.5 80.5t63.5 209.5q0 121 -64 194t-166 73q-106 0 -211 -95q-12 -48 -12 -79z" />
<glyph unicode="7" horiz-adv-x="872" d="M82 784l8 240q0 45 60 45h624q24 0 38.5 -6t17.5 -19t2 -25.5t-10.5 -32.5t-15.5 -31.5t-18 -30.5q-73 -123 -145 -298t-137 -356.5t-92 -244.5q-31 -66 -84 -66q-27 0 -47.5 23t-20.5 65q0 32 15.5 84t47.5 123.5t62 134.5t78.5 153t76 141t76 137t58.5 104h-359 q-41 0 -63.5 -4t-42.5 -18.5t-30 -43t-17 -78.5q-3 -16 -12.5 -23t-34.5 -7q-19 0 -27 7.5t-8 26.5z" />
<glyph unicode="8" horiz-adv-x="1050" d="M111 258q0 91 60 156.5t179 117.5q-99 59 -144.5 121t-45.5 140q0 122 114.5 207t268.5 85t253 -79.5t99 -200.5q0 -149 -205 -254q135 -57 191.5 -121t56.5 -162q0 -128 -120 -218.5t-308 -90.5q-180 0 -289.5 84t-109.5 215zM295 266q0 -106 64 -172.5t169 -66.5 q103 0 164.5 57.5t61.5 146.5q0 36 -15.5 67t-38 53.5t-67.5 49t-83 44.5t-106 48q-11 5 -16 7q-63 -42 -98 -102.5t-35 -131.5zM330 827q0 -32 16.5 -61.5t41 -52t65.5 -46.5t77.5 -40.5t90.5 -38.5q54 39 84 97.5t30 121.5q0 87 -53.5 148t-149.5 61q-93 0 -147.5 -53.5 t-54.5 -135.5z" />
<glyph unicode="9" horiz-adv-x="1040" d="M86 711q0 83 35.5 154t94 118.5t134 74.5t156.5 27q194 0 310 -120t116 -330q0 -252 -174.5 -440.5t-454.5 -239.5q-37 -5 -54.5 1.5t-17.5 33.5q0 33 37 43q375 117 447 420q-126 -82 -273 -82q-151 0 -253.5 96t-102.5 244zM283 729q0 -121 63.5 -193.5t165.5 -72.5 q107 0 211 94q12 48 12 80q0 46 -6.5 94.5t-23 101t-41.5 93.5t-66 67.5t-92 26.5q-96 0 -159.5 -81t-63.5 -210z" />
<glyph unicode=":" horiz-adv-x="507" d="M123 106q0 54 37 89.5t94 35.5q58 0 94.5 -35.5t36.5 -89.5q0 -60 -36.5 -95.5t-96.5 -35.5q-56 0 -92.5 36t-36.5 95zM123 750q0 57 36.5 93t94.5 36q57 0 93 -36t36 -93t-36 -92t-95 -35q-57 0 -93 35t-36 92z" />
<glyph unicode=";" horiz-adv-x="534" d="M77.5 -208.5q1.5 18.5 20.5 26.5q174 65 174 182q0 28 -16 50t-38 37t-44.5 29.5t-38.5 35.5t-16 47q0 39 30 70.5t72 31.5q86 0 146.5 -76.5t60.5 -167.5q0 -61 -26.5 -112.5t-72.5 -88t-96 -61t-108 -41.5q-19 -7 -34 6t-13.5 31.5zM131 743q0 56 38 92.5t93 36.5 q57 0 93 -36t36 -93q0 -56 -36.5 -91.5t-94.5 -35.5q-53 0 -91 36t-38 91z" />
<glyph unicode="&#x3c;" horiz-adv-x="1083" d="M74 526q0 38 26 52l803 421q26 11 45.5 -0.5t24.5 -33.5q11 -54 -35 -78l-684 -357v-6l684 -356q46 -24 35 -78q-5 -22 -24.5 -34t-45.5 -1l-803 420q-26 17 -26 51z" />
<glyph unicode="=" horiz-adv-x="1290" d="M139 356q0 23 13 39.5t34 16.5h918q21 0 34 -16.5t13 -39.5q0 -22 -13 -38.5t-34 -16.5h-918q-21 0 -34 16.5t-13 38.5zM139 700q0 23 13 39.5t34 16.5h918q21 0 34 -16.5t13 -39.5q0 -22 -13 -38.5t-34 -16.5h-918q-21 0 -34 16.5t-13 38.5z" />
<glyph unicode="&#x3e;" horiz-adv-x="1083" d="M111 90q-11 55 34 78l684 356v6l-684 357q-45 23 -34 78q5 22 24 33.5t45 0.5l803 -421q27 -15 27 -52q0 -33 -27 -51l-803 -420q-26 -11 -45 0.5t-24 34.5z" />
<glyph unicode="?" horiz-adv-x="890" d="M96 1223q14 57 56.5 96.5t97 57t96.5 24t78 6.5q75 2 140 -13t118.5 -47.5t84 -90t30.5 -134.5q0 -44 -15.5 -85t-36.5 -71.5t-57.5 -63.5t-65 -53.5t-71.5 -49.5q-50 -35 -76.5 -55t-61 -52.5t-50 -66t-15.5 -70.5t25.5 -62.5t54.5 -25.5q62 0 125 63q33 33 72 29 q36 -3 52.5 -28t-7.5 -54q-44 -44 -99.5 -69t-107.5 -25q-97 0 -169.5 70t-72.5 182q0 45 16.5 83t54 73t64 54t80.5 54q39 25 52 34t45 32t45 38t31 38.5t25 48t7 51.5q0 83 -55 138t-152 54q-67 0 -121.5 -39.5t-54.5 -105.5q0 -32 17 -58t34 -39.5t17 -15.5 q0 -14 -28 -34.5t-67 -20.5q-75 0 -114 65t-21 138zM303 106q0 55 37.5 92.5t93.5 37.5t93.5 -37.5t37.5 -92.5q0 -58 -37 -94.5t-96 -36.5q-56 0 -92.5 36.5t-36.5 94.5z" />
<glyph unicode="@" horiz-adv-x="1798" d="M104 449q0 160 67 310.5t184.5 267t292.5 187t378 70.5q166 0 298.5 -49.5t215.5 -135t126.5 -194.5t43.5 -233q0 -149 -61 -273.5t-173 -199t-251 -74.5q-89 0 -149.5 41t-67.5 115q-52 -71 -115.5 -111.5t-126.5 -40.5q-47 0 -88 14.5t-75.5 44t-54.5 82.5t-20 123 q0 55 21.5 122t64.5 134.5t99.5 123.5t134 91t160.5 35q129 0 161 -104l33 73q14 29 60 29q35 0 64.5 -22.5t21.5 -57.5l-172 -444q-17 -42 -18 -80t21 -66t68 -28q157 0 261 135.5t104 347.5q0 107 -38 199t-111 162t-188.5 109.5t-260.5 39.5q-105 0 -209.5 -30.5 t-199 -92.5t-167 -147.5t-115 -204t-42.5 -252.5q0 -163 50.5 -291.5t140.5 -209.5t210 -123t264 -42q145 0 263 36.5t237 103.5q17 9 30.5 -3t13 -30t-14.5 -31q-229 -164 -535 -164q-124 0 -243 28t-226.5 88t-189 145.5t-129.5 208.5t-48 268zM707 354q0 -116 79 -127 q66 -9 145 52q61 47 87 106l117 309q-21 137 -134 137q-64 0 -134.5 -81.5t-115 -194t-44.5 -201.5z" />
<glyph unicode="A" d="M-25 39q1 16 4 25t10.5 13t13 4.5t18.5 0.5h6q23 0 41.5 3.5t33 14t24 19t20 27t15.5 28.5t15 33.5t14 32.5l359 847q12 31 12 53q0 25 -15 39q-29 27 -93 38q-38 7 -44 13q-8 10 -8 34q0 9 2 15.5t4 11t8 7.5t9.5 4.5t13 2t13.5 0.5h16h16q67 -1 112 -9.5t85.5 -32 t70.5 -66t58 -110.5l344 -847q34 -83 54 -110q36 -47 91 -48h6q13 0 18.5 -0.5t13 -4.5t10.5 -13t4 -25q0 -19 -9.5 -32t-27.5 -13q-132 6 -226 6q-121 0 -253 -6q-37 0 -37 45q0 7 1 12.5t2 10t3.5 7.5t3.5 5.5t5.5 4t5.5 2t6.5 1t7 0.5h8.5h8q40 0 64 6t36.5 16.5t13 31.5 t-5 43.5t-18.5 60.5l-70 170h-506q-18 -44 -31 -77t-19 -49.5t-9.5 -26.5t-4.5 -13t-1 -4q-12 -38 -18 -60t-5.5 -42t7.5 -29.5t26 -16.5t44.5 -8.5t68.5 -1.5h8h8.5t7 -0.5t6.5 -1t5.5 -2t5.5 -4t3.5 -5.5t3.5 -7.5t2 -10t1 -12.5q0 -19 -9.5 -32t-27.5 -13q-132 6 -223 6 q-67 0 -199 -6q-37 0 -37 45zM401 498h430l-206 526h-7z" />
<glyph unicode="B" horiz-adv-x="1271" d="M86 39q0 7 1 12.5t2 10t3.5 7.5t3.5 5.5t5.5 4t5.5 2t6.5 1t7 0.5h8.5h8q37 0 63 10t39 22.5t20.5 37.5t8.5 41t2 47v813q-1 31 -2 47t-8.5 41t-20.5 37t-39 22t-63 10h-8h-8.5t-7 0.5t-6.5 1t-5.5 2t-5.5 4t-3.5 5.5t-3.5 7.5t-2 10t-1 12.5q0 45 37 45q132 -6 242 -6 h288q113 0 182.5 -16.5t125.5 -50.5q54 -35 84 -96t30 -132q0 -54 -17 -100t-44.5 -78.5t-64.5 -58.5t-74 -41.5t-76 -24.5v-6h4q157 0 263 -86q108 -87 110 -209v-10q0 -83 -33 -149q-35 -70 -91.5 -113.5t-133.5 -72t-152.5 -39.5t-153.5 -11l-245 2q-112 0 -244 -6 q-37 0 -37 45zM473 240q0 -100 29.5 -130t118.5 -30q333 4 333 313q-5 52 -27 95t-66 80t-121.5 58t-182.5 21h-84v-407zM473 729h86q26 0 40 0.5t42 2.5t45 6t42 12.5t41 20.5t34 30.5t28.5 42t17.5 56.5t7 73q0 244 -240 244h-143v-488z" />
<glyph unicode="C" horiz-adv-x="1308" d="M100 637q0 315 182 505.5t488 190.5q63 0 123.5 -9t121 -30.5t105.5 -53.5t73 -82.5t28 -113.5v-6q1 -88 -55 -150q-58 -64 -154 -65q-37 0 -64.5 15t-37.5 31.5t-9 27.5q0 3 16 14t35.5 26t35.5 46t16 68q0 93 -62 146.5t-174 53.5q-191 0 -309.5 -159t-118.5 -443 q0 -164 57.5 -298t165 -213t244.5 -79q110 0 189 46t143 149q10 19 28 19q15 0 37 -13q33 -21 33 -43q0 -11 -8 -22q-114 -143 -216 -189.5t-280 -46.5q-129 0 -244 47.5t-201.5 133t-137 214.5t-50.5 283z" />
<glyph unicode="D" horiz-adv-x="1490" d="M88 39q0 7 1 12.5t2 10t3.5 7.5t3.5 5.5t5.5 4t5.5 2t6.5 1t7 0.5h8.5h8q37 0 63 10t39 22.5t20.5 37.5t8.5 41t2 47v813q-1 31 -2 47t-8.5 41t-20.5 37t-39 22t-63 10h-8h-8.5t-7 0.5t-6.5 1t-5.5 2t-5.5 4t-3.5 5.5t-3.5 7.5t-2 10t-1 12.5q0 45 35 45q135 -6 244 -6 h319q147 0 275 -44.5t224 -126.5t151 -206.5t55 -275.5q0 -127 -42 -234t-113.5 -180.5t-167 -125t-201.5 -75.5t-218 -24h-282q-109 0 -244 -6q-35 0 -35 45zM475 215q0 -80 48 -109.5t157 -29.5q239 0 351 148.5t112 414.5q0 169 -58.5 299t-175 205.5t-274.5 75.5 q-25 0 -87 -1t-73 -1v-1002z" />
<glyph unicode="E" horiz-adv-x="1216" d="M88 39q0 7 1 12.5t2 10t3.5 7.5t3.5 5.5t5.5 4t5.5 2t6.5 1t7 0.5h8.5h8q37 0 63 10t39 22.5t20.5 37.5t8.5 41t2 47v813q-1 31 -2 47t-8.5 41t-20.5 37t-39 22t-63 10h-8h-8.5t-7 0.5t-6.5 1t-5.5 2t-5.5 4t-3.5 5.5t-3.5 7.5t-2 10t-1 12.5q0 45 35 45q135 -6 244 -6 h643q53 0 53 -49l6 -287q0 -19 -17.5 -30t-37.5 -11q-25 0 -43 9.5t-21 27.5q-23 147 -61 201t-139 57h-275v-520h371q14 -1 22.5 -15t8.5 -32q0 -16 -8.5 -28.5t-22.5 -12.5h-371v-387q5 -60 17 -83q27 -50 116 -50h10h189q36 1 62 6t47 18t34.5 27.5t27.5 45.5t23.5 59.5 t24.5 80.5q11 30 53 30q8 0 17 -1q20 -3 35 -15.5t14 -31.5l-41 -258q-6 -27 -18.5 -35t-41.5 -8h-675q-111 0 -246 -6q-35 0 -35 45z" />
<glyph unicode="F" horiz-adv-x="1075" d="M88 39q0 7 1 12.5t2 10t3.5 7.5t3.5 5.5t5.5 4t5.5 2t6.5 1t7 0.5h8.5h8q37 0 63 10t39 22.5t20.5 37.5t8.5 41t2 47v813q-1 31 -2 47t-8.5 41t-20.5 37t-39 22t-63 10h-8h-8.5t-7 0.5t-6.5 1t-5.5 2t-5.5 4t-3.5 5.5t-3.5 7.5t-2 10t-1 12.5q0 45 35 45q132 -6 244 -6 h591q54 0 54 -49l6 -287q0 -18 -18.5 -29.5t-36.5 -11.5q-25 0 -44 9.5t-22 27.5q-21 146 -59.5 200.5t-139.5 57.5h-223v-532h367q32 -3 32 -47q0 -17 -8 -29t-24 -12h-367v-350q1 -31 2 -47t8.5 -41t20.5 -37.5t39 -22.5t63 -10q32 0 39 -7q11 -11 12 -36q0 -45 -36 -45 q-132 6 -254 6q-114 0 -246 -6q-35 0 -35 45z" />
<glyph unicode="G" horiz-adv-x="1417" d="M100 637q0 206 91 365t253.5 245t370.5 86q75 0 148.5 -16.5t139 -49.5t106 -91t40.5 -132q0 -90 -53 -155.5t-141 -65.5q-43 0 -83.5 20.5t-41.5 53.5q0 2 16 14t35 28t35 48.5t16 71.5q0 87 -67 139.5t-174 52.5q-196 0 -323.5 -160.5t-127.5 -441.5q0 -274 127 -432 t340 -158q115 0 221 33v209v10q0 34 -0.5 48.5t-4 36t-10.5 30t-20 18t-33.5 12.5t-50.5 3h-6q-13 0 -19.5 0.5t-15 4.5t-12 13t-4.5 25q0 19 11 32t32 13q129 -6 225 -6q92 0 221 6q19 0 29 -13t10 -32q0 -7 -1.5 -12.5t-2.5 -10t-4 -7.5t-4 -5.5t-5.5 -4l-6 -2t-8 -1 t-8 -0.5h-9h-8.5q-34 0 -56 -7.5t-34 -17t-17.5 -34t-6.5 -42t-1 -57.5v-242q-121 -57 -220.5 -78.5t-252.5 -21.5q-132 0 -245.5 41.5t-201.5 123t-138 213t-50 300.5z" />
<glyph unicode="H" horiz-adv-x="1591" d="M88 39q0 7 1 12.5t2 10t3.5 7.5t3.5 5.5t5.5 4t5.5 2t6.5 1t7 0.5h8.5h8q37 0 63 10t39 22.5t20.5 37.5t8.5 41t2 47v813q-1 31 -2 47t-8.5 41t-20.5 37t-39 22t-63 10h-8h-8.5t-7 0.5t-6.5 1t-5.5 2t-5.5 4t-3.5 5.5t-3.5 7.5t-2 10t-1 12.5q0 45 37 45q132 -6 242 -6 q124 0 256 6q36 0 36 -45q0 -7 -1 -12.5t-2 -10t-3.5 -7.5t-3.5 -5.5t-5.5 -4t-5.5 -2t-6.5 -1t-7 -0.5h-8.5h-8q-37 0 -63 -10t-39 -22t-20.5 -37t-8.5 -41t-2 -47v-363h643v363q-1 31 -2 47t-8.5 41t-20.5 37t-39 22t-63 10h-8h-8.5t-7 0.5t-7 1l-6 2t-5.5 4t-4 5.5 t-4 7.5t-2 10t-1 12.5q0 19 9.5 32t27.5 13q132 -6 256 -6q111 0 243 6q18 0 27.5 -13t9.5 -32q-1 -17 -4 -26.5t-13.5 -13t-13.5 -3.5h-20q-37 0 -63 -9.5t-39.5 -22.5t-21 -37t-9 -41t-2.5 -47v-813q1 -30 2.5 -47t9 -41.5t21 -37t39.5 -22.5t63 -10q32 0 39 -7 q11 -11 12 -36q0 -19 -9.5 -32t-27.5 -13q-132 6 -245 6q-122 0 -254 -6q-18 0 -27.5 13t-9.5 32q0 7 1 12.5t2 10t4 7.5t4 5.5t5.5 4l6 2t7 1t7 0.5h8.5h8q37 0 63 10t39 22.5t20.5 37.5t8.5 41t2 47v362h-643v-362q1 -31 2 -47t8.5 -41t20.5 -37.5t39 -22.5t63 -10h8h8.5 t7 -0.5t6.5 -1t5.5 -2t5.5 -4t3.5 -5.5t3.5 -7.5t2 -10t1 -12.5q0 -45 -36 -45q-132 6 -254 6q-112 0 -244 -6q-37 0 -37 45z" />
<glyph unicode="I" horiz-adv-x="745" d="M86 39q1 17 4 26.5t13.5 13t13.5 3.5h20q37 0 63 10t39 22t20.5 38t9 40.5t3.5 47.5v813q-2 33 -3.5 47.5t-9 40.5t-20.5 37.5t-39 21.5t-63 10q-32 0 -39 7q-11 11 -12 36q0 45 37 45q132 -6 244 -6q124 0 256 6q18 0 27 -13t9 -32q-1 -7 -2 -12.5t-2 -10t-4 -7.5 t-4 -5.5t-5.5 -4t-5.5 -2t-6.5 -1t-7 -0.5h-8.5h-8q-37 0 -63 -10t-39 -22t-20.5 -37t-8.5 -41t-2 -47v-813q1 -31 2 -47t8.5 -41t20.5 -37.5t39 -22.5t63 -10h8h8.5t7 -0.5t6.5 -1t5.5 -2t5.5 -4t4 -5.5t4 -7.5t2 -10t2 -12.5q0 -19 -9 -32t-27 -13q-132 6 -254 6 q-114 0 -246 -6q-37 0 -37 45z" />
<glyph unicode="J" horiz-adv-x="706" d="M4 -358q-2 10 -2 18q0 25 23 33q45 19 79 45.5t58.5 57.5t41 75.5t26.5 88t15.5 108t7 122.5t1.5 142v721q-1 31 -2 47t-8.5 41t-20.5 37t-39 22t-63 10h-8h-8.5t-7 0.5t-7 1l-6 2t-5.5 4t-4 5.5t-4 7.5t-2 10t-1 12.5q0 19 9 32t27 13q132 -6 244 -6q124 0 256 6 q18 0 27.5 -13t9.5 -32q0 -7 -1 -12.5t-2 -10t-4 -7.5t-4 -5.5t-5.5 -4l-6 -2t-7 -1t-7 -0.5h-8.5h-8q-37 0 -63 -10t-39 -22t-20.5 -37t-8.5 -41t-2 -47v-791q0 -128 -20.5 -230.5t-66 -190.5t-125.5 -147.5t-192 -86.5q-4 -1 -9 -1q-28 0 -38 36z" />
<glyph unicode="K" horiz-adv-x="1433" d="M88 39q0 7 1 12.5t2 10t3.5 7.5t3.5 5.5t5.5 4t5.5 2t6.5 1t7 0.5h8.5h8q37 0 63 10t39 22.5t20.5 37.5t8.5 41t2 47v813q-1 31 -2 47t-8.5 41t-20.5 37t-39 22t-63 10h-8h-8.5t-7 0.5t-6.5 1t-5.5 2t-5.5 4t-3.5 5.5t-3.5 7.5t-2 10t-1 12.5q0 45 37 45q132 -6 242 -6 q124 0 256 6q36 0 36 -45q0 -7 -1 -12.5t-2 -10t-3.5 -7.5t-3.5 -5.5t-5.5 -4t-5.5 -2t-6.5 -1t-7 -0.5h-8.5h-8q-37 0 -63 -10t-39 -22t-20.5 -37t-8.5 -41t-2 -47v-371q50 11 174 115q115 106 289 313q37 42 37 66q0 29 -55 32q-13 1 -19.5 11t-9.5 32q0 20 10 33.5 t27 13.5q72 -6 225 -6q27 0 186 6q19 0 29 -13.5t10 -33.5q-3 -28 -12.5 -35.5t-28.5 -7.5h-15q-74 0 -140 -28q-73 -30 -152 -109l-332 -346q71 -86 155.5 -176t174.5 -179.5t127 -129.5q11 -11 36 -36.5t34 -34t28.5 -26.5t30.5 -24.5t28 -16t34 -14t36 -6.5q2 0 8.5 -0.5 t9.5 -1t8 -1.5t8 -2.5t6.5 -4.5t5.5 -7.5t4 -11t2 -14.5q0 -45 -37 -45q-132 6 -174 6h-131q-275 304 -484 547q-65 76 -133 82v-389q1 -31 2 -47t8.5 -41t20.5 -37.5t39 -22.5t63 -10h8h8.5t7 -0.5t6.5 -1t5.5 -2t5.5 -4t3.5 -5.5t3.5 -7.5t2 -10t1 -12.5q0 -45 -36 -45 q-132 6 -254 6q-112 0 -244 -6q-37 0 -37 45z" />
<glyph unicode="L" horiz-adv-x="1169" d="M88 39q0 7 1 12.5t2 10t3.5 7.5t3.5 5.5t5.5 4t5.5 2t6.5 1t7 0.5h8.5h8q37 0 63 10t39 22.5t20.5 37.5t8.5 41t2 47v813q-1 31 -2 47t-8.5 41t-20.5 37t-39 22t-63 10h-8h-8.5t-7 0.5t-6.5 1t-5.5 2t-5.5 4t-3.5 5.5t-3.5 7.5t-2 10t-1 12.5q0 45 35 45q135 -6 244 -6 q124 0 256 6q36 0 36 -45q-1 -17 -4 -26.5t-13.5 -13t-13.5 -3.5h-20q-37 0 -63 -10t-39 -22t-20.5 -37t-8.5 -41t-2 -47v-844q4 -59 17 -80q27 -47 115 -47h11h185q36 1 62 6t47 18t34.5 27.5t27.5 45.5t23.5 59.5t24.5 80.5q11 30 53 30q8 0 17 -1q19 -4 34.5 -16.5 t14.5 -30.5l-41 -258q-6 -27 -18.5 -35t-41.5 -8h-671q-111 0 -246 -6q-35 0 -35 45z" />
<glyph unicode="M" horiz-adv-x="1820" d="M86 1264q0 9 2 15.5t4 11t8 7.5t9.5 4.5t13 2t13.5 0.5h16h16q82 -1 138.5 -9.5t109.5 -31.5t91 -66.5t66 -110.5l353 -790h6l403 995h117q112 0 244 6q37 0 37 -45q0 -7 -1 -12.5t-2 -10t-4 -7.5t-4.5 -5.5t-5.5 -4t-5.5 -2t-7 -1t-7 -0.5h-8h-7.5q-37 0 -63 -10 t-39 -22t-20.5 -37t-8.5 -41t-2 -47v-813q1 -31 2 -47t8.5 -41t20.5 -37.5t39 -22.5t63 -10h7.5h8t7 -0.5t7 -1t5.5 -2t5.5 -4t4.5 -5.5t4 -7.5t2 -10t1 -12.5q0 -45 -37 -45q-132 6 -246 6q-120 0 -252 -6q-37 0 -37 45q0 7 1 12.5t2 10t3.5 7.5t3.5 5.5t5.5 4t5.5 2t6.5 1 t7 0.5h8.5h8q37 0 63 10t39.5 22.5t20.5 37t8.5 41t2.5 47.5v813h-7l-421 -1043q-9 -20 -41 -20t-43 20l-461 1043h-6l4 -813q1 -26 1 -34t3 -30.5t7 -31t13.5 -24t23 -21.5t34 -11.5t47.5 -5.5h8h8.5t7 -0.5t6.5 -1t5.5 -2t5.5 -4t4 -5.5t4 -7.5t2 -10t2 -12.5 q0 -19 -9.5 -32t-27.5 -13q-132 6 -186 6q-71 0 -203 -6q-37 0 -37 45q0 7 1 12.5t2 10t3.5 7.5t3.5 5.5t5.5 4t5.5 2t6.5 1t7 0.5h8.5h8q27 0 47.5 5.5t34 11.5t23 21.5t13.5 24t7 31t3 30.5t1 34l4 813q0 48 -7.5 77.5t-27 46.5t-41 24.5t-61.5 15.5q-5 1 -12 2.5t-10 2 t-8 2t-7 2.5t-5 3.5t-4.5 5t-2.5 7t-1.5 10t-0.5 12.5z" />
<glyph unicode="N" horiz-adv-x="1509" d="M86 1264q0 9 2 15.5t4 11t8 7.5t9.5 4.5t13 2t13.5 0.5h16h16q115 0 186 -20t123 -63.5t119 -134.5l561 -737h6l-4 703q-1 34 -2 47.5t-7.5 40t-19 38t-38 21.5t-62.5 10h-8h-8.5t-7 0.5t-6.5 1t-5.5 2t-5.5 4t-4 5.5t-4 7.5t-2 10t-2 12.5q0 19 9.5 32t27.5 13 q132 -6 196 -6q61 0 193 6q37 0 37 -45q0 -7 -1 -12.5t-2 -10t-3.5 -7.5t-3.5 -5.5t-5.5 -4t-5.5 -2t-6.5 -1t-7 -0.5h-8.5h-8q-37 0 -62.5 -10t-38 -21.5t-19 -38t-7.5 -40t-2 -47.5l-5 -1033q-2 -26 -51 -26q-40 0 -59 26l-772 1033h-6l4 -813q1 -26 1 -34t3 -30.5t7 -31 t13.5 -24t23 -21.5t34 -11.5t47.5 -5.5h8h8.5t7 -0.5t7 -1l6 -2t5.5 -4t4 -5.5t4 -7.5t2 -10t1 -12.5q0 -19 -9.5 -32t-27.5 -13q-132 6 -199 6q-58 0 -190 -6q-37 0 -37 45q0 7 1 12.5t2 10t3.5 7.5t3.5 5.5t5.5 4t5.5 2t6.5 1t7 0.5h8.5h8q27 0 47.5 5.5t34 11.5t23 21.5 t13.5 24t7 31t3 30.5t1 34l4 813q0 62 -15.5 95.5t-41.5 46t-80 22.5q-38 7 -44 14q-7 8 -7 33z" />
<glyph unicode="O" horiz-adv-x="1505" d="M96 629q0 131 39 246.5t104.5 197.5t150 142t177 89t183.5 29q148 0 274 -55.5t209 -148.5t129.5 -213t46.5 -250q0 -131 -39.5 -246.5t-106 -198.5t-151.5 -143t-178 -89.5t-184 -29.5q-146 0 -270.5 55.5t-207.5 149t-129.5 214t-46.5 251.5zM336 635 q0 -94 15.5 -179.5t49 -160t81 -129t116 -86t150.5 -31.5q105 0 186.5 50t131 136.5t74.5 195.5t25 235q0 117 -26 220t-76.5 184t-131.5 128t-183 47q-105 0 -186 -49t-129 -134.5t-72.5 -193t-24.5 -233.5z" />
<glyph unicode="P" horiz-adv-x="1236" d="M86 39q0 7 1 12.5t2 10t4 7.5t4 5.5t5.5 4l6 2t7 1t7 0.5h8.5h8q37 0 63 10t39 22.5t20.5 37.5t8.5 41t2 47v813q-1 31 -2 47t-8.5 41t-20.5 37t-39 22t-63 10h-8h-8.5t-7 0.5t-7 1l-6 2t-5.5 4t-4 5.5t-4 7.5t-2 10t-1 12.5q0 19 9.5 32t27.5 13q132 -6 246 -6h307 q34 0 68.5 -2t88 -11t99 -23.5t94.5 -42.5t83.5 -65.5t56.5 -95t22 -128.5q0 -123 -75.5 -221.5t-191 -149.5t-243.5 -51q-117 0 -205 33v-295q1 -31 2 -47t8.5 -41t20.5 -37.5t39 -22.5t63 -10h8h8.5t7 -0.5t7 -1l6 -2t5.5 -4t4 -5.5t4 -7.5t2 -10t1 -12.5q0 -19 -9 -32 t-27 -13q-132 6 -256 6q-112 0 -244 -6q-18 0 -27.5 13t-9.5 32zM473 616q49 -22 145 -22q41 0 84 8.5t90.5 32t84 58.5t60.5 93.5t24 131.5q0 57 -15 104t-38.5 77.5t-57.5 53t-65.5 34.5t-69 19t-62.5 9t-51 2q-78 0 -103.5 -28.5t-25.5 -129.5v-443z" />
<glyph unicode="Q" horiz-adv-x="1509" d="M98 629q0 131 39 246.5t104.5 197.5t150 142t177 89t183.5 29q149 0 275.5 -55.5t209.5 -148.5t129.5 -213t46.5 -250q0 -229 -116 -400.5t-306 -247.5q-32 -14 -84 -16v-4q54 -6 101 -29q64 -32 141 -84.5t129 -92t114 -69.5t113 -30q36 4 54 23.5t18 47.5 q0 50 -38 92.5t-97 43.5q-1 6 -1 12q0 27 25 52q32 30 93 30q45 0 95 -43t50 -121q0 -92 -88.5 -164.5t-190.5 -75.5q-79 0 -146 21.5t-121 58.5t-101 77t-110.5 87.5t-125.5 79.5q-64 33 -155 53q-216 49 -314 125q-121 93 -187.5 234.5t-66.5 302.5zM340 635 q0 -118 25.5 -223t74.5 -188.5t129 -132t181 -48.5q85 0 155 33.5t118.5 91.5t81.5 137.5t48.5 170t15.5 190.5q0 117 -26 220t-76.5 184t-132 128t-184.5 47q-105 0 -185.5 -49t-128.5 -134.5t-72 -193t-24 -233.5z" />
<glyph unicode="R" horiz-adv-x="1374" d="M88 39q0 7 1 12.5t2 10t3.5 7.5t3.5 5.5t5.5 4t5.5 2t6.5 1t7 0.5h8.5h8q37 0 63 10t39 22.5t20.5 37.5t8.5 41t2 47v811q-1 31 -2 47.5t-8.5 41.5t-20.5 37.5t-39 22.5t-63 10h-8h-8.5t-7 0.5t-6.5 1t-5.5 2t-5.5 4t-3.5 5.5t-3.5 7.5t-2 10t-1 12.5q0 45 37 45 q132 -6 244 -6h352q120 -2 212.5 -31t146.5 -77t81 -105t27 -121q0 -112 -89.5 -207t-242.5 -135q7 -12 37.5 -60.5t40.5 -64.5t37.5 -59.5t42 -64t41 -58t46.5 -62t46 -54.5t51 -56q56 -47 123 -55q2 0 8.5 -0.5t9 -1t8 -1.5t8 -2.5t6.5 -4.5t5.5 -7.5t3.5 -11t2 -14.5 q0 -45 -37 -45q-132 6 -184 6q-83 17 -141 58t-115 120q-27 36 -57.5 81.5t-46.5 71.5t-53.5 87t-45.5 74q-31 48 -59 64.5t-98 16.5h-60v-333q1 -31 2 -47t8.5 -41t20.5 -37.5t39 -22.5t63 -10q32 0 39 -7q11 -11 12 -36q0 -45 -36 -45q-132 6 -256 6q-110 0 -242 -6 q-37 0 -37 45zM475 653h180q306 0 306 287q0 54 -17 100t-54 87.5t-107 65.5t-165 24q-87 0 -115 -33.5t-28 -136.5v-394z" />
<glyph unicode="S" horiz-adv-x="1116" d="M100 254q0 74 51 122t130 48q47 -3 71.5 -24.5t24.5 -39.5q0 -2 -18.5 -12t-37 -37t-18.5 -69q0 -96 59 -148.5t181 -52.5q126 0 202 70t76 163q0 54 -23.5 99t-63 77t-91 59.5t-108.5 52.5t-114.5 51.5t-109.5 59.5t-92.5 72.5t-65 96.5t-26.5 125v11q1 174 119 264 q122 92 323 91q71 0 137.5 -15t123.5 -44.5t91.5 -81t34.5 -117.5q0 -74 -50.5 -122t-129.5 -48q-47 3 -71.5 24.5t-24.5 39.5q0 2 24.5 12t49 37t24.5 69q0 75 -58.5 118.5t-148.5 43.5q-126 0 -190 -58.5t-64 -143.5q0 -72 39 -121t125 -95q47 -26 123.5 -61.5 t126.5 -58.5t110.5 -63t96 -81t60 -104.5t24.5 -140.5q0 -155 -139.5 -259t-339.5 -104q-215 0 -329 75t-114 220z" />
<glyph unicode="T" horiz-adv-x="1228" d="M53 954l6 289q0 49 56 49h1001q53 0 53 -49l9 -289q0 -19 -16.5 -30t-35.5 -11q-24 0 -45 10t-24 27q-10 61 -18.5 99t-23.5 72.5t-35 53t-50.5 30t-73.5 12.5h-139v-977q1 -31 2 -47t8.5 -41t20.5 -37.5t39 -22.5t63 -10q32 0 39 -7q11 -11 12 -36q0 -45 -37 -45 q-132 6 -241 6q-124 0 -256 -6q-37 0 -37 45q0 7 1 12.5t2 10t3.5 7.5t3.5 5.5t5.5 4t5.5 2t6.5 1t7 0.5h8.5h8q37 0 63 10t39 22.5t20.5 37.5t8.5 41t2 47v977h-141q-42 -1 -72.5 -12t-51 -30t-34.5 -53.5t-23 -73t-18 -98.5q-3 -18 -24.5 -27.5t-47.5 -9.5q-17 0 -33 11 t-16 30z" />
<glyph unicode="U" horiz-adv-x="1474" d="M55 1253q0 45 37 45q132 -6 242 -6q124 0 256 6q37 0 37 -45q-1 -28 -10 -35.5t-31 -7.5q-34 0 -59 -5t-40 -17.5t-24.5 -24t-13.5 -33t-5 -36t-2 -41.5v-639q0 -49 6 -89.5t26 -88t54 -80t95.5 -54.5t144.5 -22q80 0 141.5 18t99.5 47t62.5 69.5t33.5 82t9 88.5v539 q0 71 -1.5 114.5t-9 78.5t-16 51t-29 27t-42 13t-60.5 2q-32 0 -39 7q-11 11 -12 36q0 45 37 45q132 -6 229 -6q98 0 230 6q37 0 37 -45q-1 -28 -10 -35.5t-31 -7.5q-43 0 -65 -1.5t-44.5 -11.5t-31 -24.5t-16.5 -48.5t-9.5 -75.5t-1.5 -112.5v-571q0 -84 -31.5 -153.5 t-81.5 -115.5t-116 -77.5t-132.5 -45.5t-132.5 -14q-119 0 -215 33t-156 89t-92 126t-32 147v699q-1 25 -2 39t-5 35.5t-12.5 33.5t-22.5 25t-37.5 18.5t-54.5 5.5h-8h-8.5t-7 0.5t-6.5 1t-5.5 2t-5.5 4t-3.5 5.5t-3.5 7.5t-2 10t-1 12.5z" />
<glyph unicode="V" horiz-adv-x="1327" d="M18 1262q0 9 2 15.5t4 11t8 7.5t9.5 4.5t13 2t13.5 0.5h16h16q137 -2 212.5 -50.5t121.5 -165.5l297 -798h6l283 821q12 32 13 51.5t-11.5 30.5t-33 14.5t-58.5 3.5h-8h-8.5t-7 0.5t-6.5 1t-5.5 2t-5.5 4t-3.5 5.5t-3.5 7.5t-2 10t-1 12.5q0 45 34 45q132 -6 224 -6 q60 0 192 6q37 0 37 -45q0 -7 -1 -12.5t-2 -10t-3.5 -7.5t-3.5 -5.5t-5.5 -4t-5.5 -2t-6.5 -1t-7 -0.5h-8.5h-8q-80 0 -125 -29.5t-76 -109.5q0 3 -99 -270t-197 -547l-99 -274h-96q-11 30 -30 82t-70 191.5t-96 263t-91.5 250.5t-74.5 202.5t-28 74.5q-36 88 -68 123 t-95 47q-4 1 -13 2.5t-11.5 2.5t-8.5 2.5t-7.5 3.5t-5 5t-4 7.5t-1.5 10.5t-1 14z" />
<glyph unicode="W" horiz-adv-x="1912" d="M16 1262q0 9 2 15.5t4 11t8 7.5t9.5 4.5t13 2t13.5 0.5h16h16q137 -2 212.5 -50.5t121.5 -165.5l234 -749h8l250 954h106l334 -954h6l232 772q8 32 8 52q0 21 -8 30q-18 18 -91 18h-8h-8.5t-7 0.5t-6.5 1t-5.5 2t-5.5 4t-3.5 5.5t-3.5 7.5t-2 10t-1 12.5q0 45 35 45 q132 -6 223 -6q61 0 193 6q37 0 37 -45q-1 -16 -4 -25t-10.5 -13t-13 -4.5t-18.5 -0.5h-6q-82 0 -130 -31t-70 -108l-336 -1091h-96l-332 976l-264 -976h-97l-340 1064q-36 88 -68 123t-95 47q-4 1 -13 2.5t-11.5 2.5t-8.5 2.5t-7.5 3.5t-5 5t-4 7.5t-1.5 10.5t-1 14z" />
<glyph unicode="X" d="M14 39q1 16 4 25t10.5 13t13 4.5t18.5 0.5h6q75 0 115 27.5t100 111.5l297 422l-263 412q-50 76 -97 110.5t-114 48.5q-4 1 -13 2.5t-11.5 2.5t-8.5 2.5t-7.5 3.5t-4.5 5t-3.5 7.5t-1.5 10.5t-1 14q0 9 2 15.5t4 11t8 7.5t9.5 4.5t13 2t13.5 0.5h16h16q143 0 228.5 -47 t166.5 -166l168 -275l203 295q21 33 24.5 53.5t-13 30.5t-39 13t-62.5 3h-8h-8.5t-7 0.5t-6.5 1t-5.5 2t-5.5 4t-3.5 5.5t-3.5 7.5t-2 10t-1 12.5q0 45 35 45q132 -6 223 -6q75 0 207 6q37 0 37 -45q-1 -16 -4 -25t-10.5 -13t-13 -4.5t-18.5 -0.5h-6q-75 0 -116 -28 t-99 -111l-239 -340l356 -508q29 -44 49 -69t57.5 -48.5t79.5 -23.5h6q13 0 18.5 -0.5t13 -4.5t10.5 -13t4 -25q0 -45 -35 -45q-132 6 -246 6q-118 0 -250 -6q-37 0 -37 45q0 7 1 12.5t2 10t4 7.5t4.5 5.5t5.5 4t5.5 2t7 1t7 0.5h8h7.5q60 0 78 31q6 11 6 24q0 21 -19 45 l-262 375l-262 -375q-22 -32 -25.5 -52.5t13 -30.5t40 -13.5t62.5 -3.5h8h8.5t7 -0.5t6.5 -1t5.5 -2t5.5 -4t3.5 -5.5t3.5 -7.5t2 -10t1 -12.5q0 -45 -35 -45q-132 6 -223 6q-75 0 -207 -6q-37 0 -37 45z" />
<glyph unicode="Y" horiz-adv-x="1271" d="M8 1262q0 9 2 15.5t4 11t8 7.5t9.5 4.5t13 2t13.5 0.5h16h16q148 0 236 -46t157 -167q35 -66 103.5 -208t111.5 -220h7l227 448q17 34 19.5 54.5t-12.5 30t-36 12.5t-61 3h-8h-8.5t-7 0.5t-6.5 1t-5.5 2t-5.5 4t-3.5 5.5t-3.5 7.5t-2 10t-1 12.5q0 45 34 45 q132 -6 224 -6q74 0 206 6q37 0 37 -45q0 -7 -1 -12.5t-2 -10t-3.5 -7.5t-3.5 -5.5t-5.5 -4t-5.5 -2t-6.5 -1t-7 -0.5h-8.5h-8q-77 0 -126.5 -33t-88.5 -106l-231 -436l-13.5 -27t-12 -24.5t-9 -20.5t-8.5 -22t-5.5 -20t-4.5 -24t-2 -26t-1 -33v-198q1 -31 2 -47t8.5 -41 t20.5 -37.5t39 -22.5t63 -10h6q13 0 18.5 -0.5t13 -4.5t10.5 -13t4 -25q0 -45 -35 -45q-132 6 -246 6q-122 0 -254 -6q-37 0 -37 45q1 17 4 26.5t13.5 13t13.5 3.5h20q37 0 63 10t39.5 22.5t20.5 37t8.5 41t2.5 47.5v256q0 34 -101 238t-166 321q-41 74 -90.5 109.5 t-120.5 49.5q-4 1 -13 2.5t-11.5 2.5t-8.5 2.5t-7.5 3.5t-4.5 5t-3.5 7.5t-1.5 10.5t-1 14z" />
<glyph unicode="Z" horiz-adv-x="1271" d="M70 39q1 7 2 12.5t2 10t4 7.5t4 5.5t5.5 4t5.5 2t6.5 1t7 0.5h8.5h8q53 0 80.5 21.5t70.5 101.5l459 850q19 39 29 65t9 43.5t-5 26.5t-24 14t-36 5.5t-53 0.5h-223q-43 -1 -72 -10t-49.5 -22.5t-37.5 -45.5t-29 -64.5t-31 -94.5q-9 -30 -49 -30q-9 0 -19 1 q-19 3 -31.5 15.5t-11.5 31.5l41 258q6 27 18.5 35t41.5 8h702q120 0 252 6q37 0 37 -45q0 -11 -2.5 -19t-4.5 -12.5t-9 -7t-9 -3t-13 -1t-13 -0.5q-36 -2 -65 -15.5t-51 -39t-35.5 -46.5t-31.5 -54l-448 -850q-8 -18 -12.5 -32t-4.5 -32t9.5 -29.5t34.5 -20t65 -9.5h242 q54 2 86.5 12t57.5 42t39 68.5t38 114.5q9 30 51 30q8 0 17 -1q19 -3 31.5 -15.5t11.5 -31.5l-41 -258q-6 -27 -18.5 -35t-41.5 -8h-723q-114 0 -246 -6q-18 0 -27 13t-9 32z" />
<glyph unicode="[" horiz-adv-x="696" d="M158 -309v1663q0 86 25.5 112.5t101.5 24.5h356q22 0 34.5 -12.5t12.5 -32.5q0 -43 -47 -43h-309q-21 0 -21 -25v-1712q0 -24 21 -24h309q22 0 34.5 -11.5t12.5 -31.5q0 -45 -47 -45h-356q-76 -2 -101.5 24.5t-25.5 112.5z" />
<glyph unicode="\" horiz-adv-x="806" d="M70 1380q-4 20 10 38.5t37 23.5q22 3 41 -7t26 -32l553 -1743q4 -21 -9 -37.5t-36 -21.5q-20 -3 -39 6.5t-26 30.5z" />
<glyph unicode="]" horiz-adv-x="696" d="M8 -401q0 20 12.5 31.5t34.5 11.5h310q20 0 20 24v1712q0 25 -20 25h-310q-47 0 -47 43q0 20 12.5 32.5t34.5 12.5h357q76 2 101.5 -24.5t25.5 -112.5v-1663q0 -86 -25.5 -112.5t-101.5 -24.5h-357q-47 0 -47 45z" />
<glyph unicode="^" horiz-adv-x="1034" d="M82 848l383 614q19 29 53 29q37 0 55 -29l381 -614q16 -29 -2 -48.5t-49 -21.5q-46 -4 -63 29l-322 524l-321 -524q-17 -33 -64 -29q-31 2 -49.5 22.5t-1.5 47.5z" />
<glyph unicode="_" horiz-adv-x="1368" d="M168 -197q0 23 13 39.5t34 16.5h938q21 0 34 -16.5t13 -39.5q0 -22 -13 -38.5t-34 -16.5h-938q-21 0 -34 16.5t-13 38.5z" />
<glyph unicode="`" horiz-adv-x="577" d="M88 1372q11 36 47 55q36 17 66.5 6t46.5 -42l153 -281q11 -22 6 -41t-20 -27q-38 -21 -76 19l-209 244q-25 31 -14 67z" />
<glyph unicode="a" horiz-adv-x="1026" d="M70 219q0 54 21 98t53.5 73.5t81.5 52.5t94.5 35.5t103 22.5t96.5 13t86.5 6.5t61.5 5.5v162q0 100 -50 152.5t-161 52.5q-63 0 -110.5 -39t-47.5 -104q0 -30 16.5 -54.5t33 -37.5t16.5 -15q0 -13 -26.5 -32t-62.5 -19q-61 0 -97 45t-36 106q0 73 50 122t120.5 68 t155.5 19q61 0 111 -6.5t101.5 -26.5t86.5 -52t57.5 -86.5t22.5 -127.5v-477q2 -44 26.5 -82.5t79.5 -38.5q11 0 16.5 -1.5t10 -8.5t4.5 -22q0 -24 -38 -36t-75 -12q-78 0 -136.5 45t-67.5 121q-41 -76 -145 -121t-199 -45q-105 0 -179.5 71.5t-74.5 172.5zM276 246 q0 -67 37.5 -113.5t96.5 -46.5q106 0 182 76.5t76 187.5v115q-210 -28 -301 -74t-91 -145z" />
<glyph unicode="b" horiz-adv-x="1148" d="M6 1389q0 30 33 37q81 12 139 27t86.5 26t42.5 12h6q13 0 22 -7q11 -9 11 -32v-618h6q59 59 134 88.5t149 29.5q184 0 307 -135t123 -346q0 -137 -65.5 -252t-173 -179.5t-230.5 -64.5q-181 0 -315 101h-11q-4 -7 -16 -41.5t-24 -49t-31 -14.5q-18 0 -28.5 11.5 t-10.5 29.5v1196v13q0 27 -0.5 40t-5.5 33t-16 29.5t-31.5 17t-51.5 7.5q-17 0 -25 1.5t-16 11t-8 28.5zM346 215q5 -23 22 -50.5t44.5 -55.5t71.5 -46t94 -18q124 0 201 113.5t77 304.5q0 74 -17 141t-50.5 123t-92 89.5t-133.5 33.5q-129 0 -217 -94v-541z" />
<glyph unicode="c" horiz-adv-x="972" d="M84 465q5 139 69.5 249t172.5 172t239 66q31 0 58.5 -2t72.5 -11.5t79.5 -26.5t65 -50.5t42.5 -79.5q6 -23 6 -45q0 -49 -27 -93q-39 -64 -114 -64q-39 0 -67 20.5t-28 34.5q0 2 17 15.5t34 39.5t17 58q0 62 -45 94.5t-109 34.5h-5q-66 0 -116 -25q-52 -26 -80 -64.5 t-45.5 -96t-22.5 -108.5t-5 -112q0 -172 77.5 -282.5t207.5 -110.5q87 0 149.5 37t114.5 116q14 21 43 5q14 -8 19 -23q2 -6 2 -11q0 -9 -5 -18q-67 -96 -167.5 -152.5t-203.5 -56.5q-209 0 -327.5 133t-118.5 357z" />
<glyph unicode="d" horiz-adv-x="1187" d="M84 465q0 127 59.5 238t169.5 180t244 69q139 0 238 -57h6v313v13q0 27 -0.5 40t-5.5 33t-16 29.5t-31.5 17t-51.5 7.5q-17 0 -25 1.5t-16 11t-8 28.5q0 30 33 37q81 12 139 27t86.5 26t42.5 12h6q13 0 22 -7q11 -9 11 -32v-1264q0 -120 160 -120q35 0 35 -33 q0 -29 -35 -35l-326 -23q-9 0 -13 5.5t-4.5 11t-0.5 18.5v6v82h-6q-54 -56 -130.5 -90.5t-152.5 -34.5q-176 0 -303 138.5t-127 351.5zM295 455q0 -101 30 -184.5t97.5 -138t161.5 -54.5q119 0 217 102v541q-18 60 -76.5 109t-146.5 49q-122 0 -202.5 -114t-80.5 -310z" />
<glyph unicode="e" horiz-adv-x="1028" d="M84 469q0 90 32 176t89.5 154.5t145.5 110.5t190 42q181 0 280 -93.5t113 -250.5q0 -67 -36.5 -91.5t-106.5 -24.5h-498q0 -190 79 -302t244 -112q88 0 149.5 37.5t117.5 128.5q17 21 45 2q16 -8 20 -26q2 -6 1 -12q0 -10 -5 -18q-64 -102 -161.5 -158.5t-219.5 -56.5 q-116 0 -208.5 39.5t-150.5 107.5t-89 156.5t-31 190.5zM293 569h334q105 0 110 86q0 95 -51 160.5t-145 65.5q-105 0 -173 -83.5t-75 -228.5z" />
<glyph unicode="f" horiz-adv-x="702" d="M45 889q0 7 1 12.5t3 9.5t3 7t5.5 5t5.5 3t7 1.5t7 0.5h8.5h8.5h144v76q0 138 42 243.5t128.5 169t207.5 66.5q101 0 181 -56t80 -145q0 -61 -36.5 -107.5t-99.5 -46.5q-38 0 -64 20.5t-26 33.5q0 3 11 13t24 23t24 37.5t11 51.5q0 45 -34.5 76.5t-84.5 31.5 q-36 0 -65 -15t-47 -36t-31 -56.5t-19.5 -64t-9.5 -71.5t-3.5 -65t-0.5 -60v-7v-112h201h8h7.5t6.5 -0.5t7 -1t6 -2t5.5 -3.5t4 -5t3.5 -6.5t2 -9t1 -11.5q0 -16 -10 -28.5t-25 -12.5h-217v-637q0 -70 7 -89q17 -50 97 -50h8.5h8t7 -0.5t7 -1.5t5.5 -2.5t5 -4.5t3 -7t3 -9 t1 -12q0 -16 -8.5 -28.5t-22.5 -12.5q-120 6 -215 6q-96 0 -213 -6q-16 0 -24.5 12t-8.5 29q0 7 1 12t3 9t3 7t4.5 4.5t5 2.5t7 1.5t7 0.5h8h8.5q22 0 39 3.5t28.5 9.5t19 14.5t11 19.5t5.5 23t2 25.5v27.5v16v637h-158q-16 0 -25.5 12.5t-9.5 28.5z" />
<glyph unicode="g" horiz-adv-x="1071" d="M55 -201q0 70 44 121t114 51q42 0 75.5 -23.5t33.5 -37.5q0 -3 -9.5 -12.5t-21.5 -22.5t-21.5 -37t-9.5 -51q0 -92 67 -125t224 -33q142 0 222.5 54.5t80.5 160.5q0 56 -37 89.5t-103.5 45t-134 14t-155.5 5.5t-141 12q-80 13 -124 50.5t-44 115.5q0 80 56.5 134.5 t160.5 54.5q-219 86 -219 276q0 134 111 223.5t284 89.5q149 0 227 -41l281 54h3q19 0 27 -13q9 -14 9 -36q0 -29 -9 -53.5t-22 -24.5l-203 8v-4q36 -36 60 -93t24 -108q0 -95 -56.5 -169t-142.5 -111t-182 -37h-90q-107 0 -155 -20.5t-48 -67.5q0 -38 26.5 -57t92.5 -23 l281 -8q212 0 308.5 -64t96.5 -190q0 -161 -149 -251.5t-398 -90.5q-210 0 -322 56.5t-112 188.5zM295 647q0 -123 59 -192.5t154 -69.5q96 0 154.5 68t58.5 190q0 114 -60 181t-155 67q-93 0 -152 -65.5t-59 -178.5z" />
<glyph unicode="h" horiz-adv-x="1206" d="M47 35q1 18 7.5 26.5t12.5 9.5t21 1h6q39 0 62 9t32.5 30.5t11 37t1.5 49.5v13v999v13q0 27 -0.5 40t-5.5 33t-16 29.5t-31.5 17t-51.5 7.5q-17 0 -25 1.5t-16 11t-8 28.5q0 30 33 37q81 12 139 27t86.5 26t42.5 12h6q13 0 22 -7q11 -9 11 -32v-659h4q37 35 50 47 t50 39.5t64 38.5t71.5 21.5t94.5 10.5q139 0 221 -84t82 -221v-436q0 -70 7 -89q17 -50 97 -50h8.5h8t7 -0.5t7 -1.5t5.5 -2.5t5 -4.5t3 -7t3 -9t1 -12q0 -16 -8.5 -28.5t-22.5 -12.5q-120 6 -215 6q-96 0 -213 -6q-16 0 -24.5 12t-8.5 29q0 7 1 12t3 9t3 7t4.5 4.5t5 2.5 t7 1.5t7 0.5h8h8.5q22 0 39 3.5t28.5 9.5t19 14.5t11 19.5t5.5 23t2 25.5v27.5v16v434q0 94 -58.5 144.5t-136.5 50.5q-94 0 -162.5 -47t-91.5 -95v-487v-13q0 -27 0.5 -40t5.5 -32.5t16 -29t31.5 -17t51.5 -7.5h7.5h7.5t6.5 -0.5t6 -1t5 -1.5t5 -3t3.5 -5t3 -6.5t2 -8.5 t1 -11q0 -16 -8.5 -28.5t-22.5 -12.5q-120 6 -215 6q-93 0 -213 -6q-16 0 -24.5 12t-8.5 29z" />
<glyph unicode="i" horiz-adv-x="608" d="M70 35q1 7 2 12t3 9l3.5 7t5 4.5t5 2.5t7 1.5t7 0.5h8h8.5q30 0 51 7.5t31.5 16.5t15.5 29t5.5 32t0.5 39v15v469q0 70 -7 89q-17 50 -97 50q-17 0 -25 1.5t-16 11t-8 28.5q0 31 32 36q81 12 139.5 28t87 27t42.5 12q17 2 28 -7t11 -32v-713q0 -70 7 -89q17 -50 99 -50 h7.5h7t6 -0.5t6.5 -1t5 -1.5t4.5 -3t4 -5t3.5 -6.5t2 -8.5t1 -11q0 -17 -8.5 -29t-24.5 -12q-120 6 -215 6q-93 0 -213 -6q-14 0 -23 12.5t-9 28.5zM160 1335q0 40 41.5 80.5t111.5 40.5q44 0 80.5 -32t36.5 -95q0 -46 -37 -82.5t-98 -36.5q-51 0 -93 31t-42 94z" />
<glyph unicode="j" horiz-adv-x="544" d="M-33 -391q-2 10 -2 18q0 24 19 31q49 21 85 50t59.5 72t38.5 88t22 113t9.5 130.5t2.5 156.5v412v13q0 27 -0.5 40t-5.5 32.5t-16 29t-31.5 17t-51.5 7.5q-17 0 -25 1.5t-16 11t-8 28.5q0 31 33 37q81 12 139 27.5t86.5 26.5t42.5 12q17 2 28 -7t11 -32v-721 q0 -121 -19 -218.5t-61 -181.5t-117.5 -140.5t-181.5 -82.5q-5 -1 -10 -1q-10 0 -15 5q-8 6 -16 25zM104 1335q0 40 42 80.5t112 40.5q44 0 80.5 -32t36.5 -95q0 -46 -37 -82.5t-98 -36.5q-51 0 -93.5 31t-42.5 94z" />
<glyph unicode="k" horiz-adv-x="1161" d="M47 35q1 18 7.5 26.5t12.5 9.5t21 1h6q39 0 62 9t32.5 30.5t11 37t1.5 49.5v13v997v13q0 27 -0.5 40t-5.5 33t-16 29.5t-31.5 17t-51.5 7.5q-17 0 -25 1.5t-16 11t-8 28.5q0 30 33 37q81 12 139 27t86.5 26t42.5 12h6q13 0 22 -7q11 -9 11 -32v-936q90 18 148 76l172 176 q3 3 10 11q12 12 17.5 19t13 18.5t5 18t-10.5 13t-30 8.5t-55 0q-21 3 -24 37q0 16 9.5 28.5t23.5 12.5q92 -6 225 -6q21 0 43.5 1t50 2.5t43.5 2.5q14 0 23.5 -12.5t9.5 -28.5q-1 -24 -9.5 -30.5t-25.5 -6.5q-75 0 -124.5 -26.5t-115.5 -94.5l-172 -176q28 -38 87 -106 t130 -146.5t89 -99.5q76 -80 103 -99q43 -32 95 -36q2 0 10 -0.5t11 -1t9 -3t8 -6t4.5 -10.5t2.5 -16q0 -41 -33 -41q-117 6 -272 6q-34 36 -81 89.5t-80.5 92.5t-98.5 114t-90 105q-55 58 -112 58h-9v-248v-13q0 -27 0.5 -40t5.5 -32.5t16 -29t31.5 -17t51.5 -7.5h8.5h8 t7 -0.5t7 -1.5t5 -2.5t5 -4.5l3.5 -7t3 -9t2 -12q0 -16 -9.5 -28.5t-23.5 -12.5q-120 6 -215 6q-93 0 -213 -6q-16 0 -24.5 12t-8.5 29z" />
<glyph unicode="l" horiz-adv-x="585" d="M47 35q1 18 7.5 26.5t12.5 9.5t21 1h6q39 0 62 9t32.5 30.5t11 37t1.5 49.5v13v999v13q0 27 -0.5 40t-5.5 33t-16 29.5t-31.5 17t-51.5 7.5q-17 0 -25 1.5t-16 11t-8 28.5q0 30 33 37q81 12 139 27t86.5 26t42.5 12h6q13 0 22 -7q11 -9 11 -32v-1243v-13q0 -33 1.5 -49.5 t11 -37.5t32.5 -30t62 -9h7.5h7t6 -0.5t6.5 -1t5 -1.5t4.5 -3t4 -5t3.5 -6.5t2 -8.5t1 -11q0 -17 -8.5 -29t-24.5 -12q-120 6 -215 6q-93 0 -213 -6q-14 0 -23.5 12.5t-9.5 28.5z" />
<glyph unicode="m" horiz-adv-x="1835" d="M70 35q1 18 7.5 26.5t12.5 9.5t21 1h6q17 0 31 2.5t24.5 4.5t18.5 10t13 10.5t9 15.5t6 15.5t3 19t1 18.5v22v21v469q0 70 -7 89q-17 50 -97 50q-17 0 -25 1.5t-16 11t-8 28.5q0 31 32 36q81 12 139 28t86 27t42 12h6q13 0 22 -7q11 -9 11 -32v-129h6q7 7 29 28t30.5 29 t29.5 25.5t34.5 25t37 19.5t44.5 17t50 9t60 4q99 0 171 -41.5t106 -115.5h4q39 37 64.5 58t69 47.5t94.5 39t112 12.5q139 0 221 -84t82 -221v-436q0 -70 7 -89q19 -49 99 -50h7.5h7t6 -0.5t6.5 -1t5 -1.5t4.5 -3t4 -5t3.5 -6.5t2 -8.5t1 -11q0 -16 -9 -28.5t-23 -12.5 q-120 6 -215 6q-93 0 -213 -6q-16 0 -24.5 12t-8.5 29q1 18 7.5 26.5t12.5 9.5t21 1h6q17 0 31 2.5t24.5 4.5t18.5 10t13 10.5t9 15.5t6 15.5t3 19t1 18.5v22v21v434q0 94 -59 144.5t-137 50.5q-50 0 -93 -15t-71 -39t-46 -45.5t-28 -42.5v-487q0 -8 -0.5 -26t-0.5 -26.5 t1.5 -23t5 -21.5t11 -16.5t18 -14t26.5 -8t37 -3.5h8.5h8t7 -0.5t7 -1.5t5.5 -2.5t5 -4.5t3 -7t3 -9t1 -12q0 -17 -8.5 -29t-24.5 -12q-120 6 -209 6q-85 0 -205 -6q-16 0 -24.5 12t-8.5 29q0 7 1 12t3 9t3 7t4.5 4.5t5 2.5t7 1.5t7 0.5h8h8.5q21 0 37 3.5t27 7.5t18 14 t10.5 17t5.5 22t2 22.5t-0.5 26t-0.5 26.5v434q0 94 -58.5 144.5t-136.5 50.5q-50 0 -93 -15t-71.5 -39t-45.5 -45t-29 -43v-487q0 -70 7 -89q17 -50 99 -50h7.5h7t6 -0.5t6.5 -1t5 -1.5t4.5 -3t4 -5t3.5 -6.5t2 -8.5t1 -11q0 -17 -8.5 -29t-24.5 -12q-120 6 -215 6 q-93 0 -213 -6q-14 0 -23 12.5t-9 28.5z" />
<glyph unicode="n" horiz-adv-x="1226" d="M68 35q1 7 2 12t3 9l3.5 7t5 4.5t5 2.5t7 1.5t7 0.5h8h8.5q30 0 51 7.5t31.5 16.5t15.5 29t5.5 32t0.5 39v15v469q0 70 -7 89q-17 50 -97 50q-17 0 -25 1.5t-16 11t-8 28.5q0 31 32 36q81 12 139 28t86 27t42 12h6q13 0 22 -7q11 -9 11 -32v-129h6q38 36 50 47t49.5 39.5 t64 39t71 21t94.5 10.5q139 0 221 -84t82 -221v-436v-13q0 -33 1.5 -49.5t11 -37.5t32.5 -30t62 -9h7.5h7t6 -0.5t6.5 -1t5 -1.5t4.5 -3t4 -5t3.5 -6.5t2 -8.5t1 -11q0 -16 -9.5 -28.5t-23.5 -12.5q-120 6 -215 6q-93 0 -213 -6q-14 0 -23 12.5t-9 28.5q2 34 24 37h17h6 q17 0 31 2.5t24.5 4.5t18.5 10t13 10.5t9 15.5t6 15.5t3 19t1 18.5v22v21v434q0 94 -59 144.5t-137 50.5q-93 0 -160.5 -46.5t-93.5 -95.5v-487q0 -70 7 -89q17 -50 99 -50h7.5h7t6 -0.5t6.5 -1t5 -1.5t4.5 -3t4 -5t3.5 -6.5t2 -8.5t1 -11q0 -17 -8.5 -29t-24.5 -12 q-120 6 -215 6q-93 0 -213 -6q-14 0 -23 12.5t-9 28.5z" />
<glyph unicode="o" horiz-adv-x="1122" d="M84 451q0 94 28.5 176t76.5 140.5t110 101t129 63t133 20.5q139 0 249.5 -67.5t169 -175.5t58.5 -232q0 -116 -44.5 -214t-114.5 -159.5t-153 -95t-165 -33.5q-139 0 -249.5 68t-169 176t-58.5 232zM293 455q0 -83 14.5 -153.5t45 -128t84 -90t124.5 -32.5q72 0 125.5 34 t83.5 94.5t44.5 134.5t14.5 163q0 83 -15 153.5t-46 126.5t-84 88t-123 32q-74 0 -127.5 -33.5t-83 -93.5t-43.5 -133t-14 -162z" />
<glyph unicode="p" horiz-adv-x="1196" d="M47 -385q1 18 7.5 26.5t12.5 9.5t21 1h6q32 0 53 8.5t31.5 18.5t16 33t6 36t0.5 43v889v13q0 27 -0.5 40t-5.5 32.5t-16 29t-31.5 17t-51.5 7.5q-17 0 -25 1.5t-16 11t-8 28.5q0 31 33 37q81 12 138.5 27.5t85.5 26.5t42 12h6q13 0 22 -7q11 -9 11 -32v-99h6 q59 55 139.5 91t151.5 36q187 0 307.5 -135.5t120.5 -351.5q0 -143 -67.5 -257t-174 -173.5t-227.5 -59.5q-143 0 -246 64h-8v-248q0 -30 0.5 -43t6 -36t16 -33t31.5 -18.5t53 -8.5h7.5h7t6 -0.5t6.5 -1t5 -1.5t4.5 -3t4 -5t3.5 -6.5t2 -8.5t1 -11q0 -17 -8.5 -29t-24.5 -12 q-120 6 -215 6q-93 0 -213 -6q-14 0 -23.5 12.5t-9.5 28.5zM387 195q25 -61 87.5 -105.5t150.5 -44.5q61 0 110 27t79.5 69t50.5 98t28 110.5t8 109.5q0 74 -17 141.5t-50.5 124.5t-92 91t-133.5 34q-71 0 -121.5 -28t-99.5 -79v-548z" />
<glyph unicode="q" horiz-adv-x="1144" d="M84 475q0 131 66.5 242t175 173t231.5 62q45 0 84.5 -5.5t75 -19.5t52.5 -21t49.5 -26t33.5 -20h10q3 6 12 27t15.5 32t16 26.5t20 22.5t22.5 7q18 0 28.5 -11.5t10.5 -29.5v-1143v-7q0 -28 0.5 -41.5t6 -34t16 -30.5t31.5 -18t51 -8h7.5h7.5t6.5 -0.5t6 -1t5 -1.5t5 -3 t3.5 -5t3 -6.5t2 -8.5t1 -11q0 -17 -8.5 -29t-24.5 -12q-120 6 -215 6q-93 0 -213 -6q-14 0 -22.5 12.5t-8.5 28.5q0 7 1 12t3 9t3 7t4.5 4.5t5 2.5t7 1.5t7 0.5h8h8.5q31 0 51.5 8.5t31 19t16 32.5t6 36t0.5 43v301h-6q-43 -47 -115 -82t-158 -35q-184 0 -310 138.5 t-126 361.5zM291 455q0 -76 16.5 -142t50.5 -120t93 -85.5t137 -31.5q119 0 211 96v555q-21 61 -79 107.5t-153 46.5q-120 0 -198 -116t-78 -310z" />
<glyph unicode="r" horiz-adv-x="870" d="M68 35q1 7 2 12t3 9l3.5 7t5 4.5t5 2.5t7 1.5t7 0.5h8h8.5q30 0 51 7.5t31.5 16.5t15.5 29t5.5 32t0.5 39v15v469q0 70 -7 89q-17 50 -97 50q-17 0 -25 1.5t-16 11t-8 28.5q0 31 32 36q81 12 139 28t86 27t42 12h6q13 0 22 -7q11 -9 11 -32v-127h6q72 71 145.5 113 t132.5 42q68 0 108 -50.5t40 -115.5q0 -58 -34.5 -102.5t-96.5 -44.5q-28 0 -50 12t-24 21q0 2 9.5 12.5t19.5 28t10 35.5q0 37 -20 59t-52 22q-34 0 -87.5 -33.5t-104.5 -84.5v-500q0 -70 7 -89q17 -50 99 -50h7.5h7t6 -0.5t6.5 -1t5 -1.5t4.5 -3t4 -5t3.5 -6.5t2 -8.5 t1 -11q0 -17 -8.5 -29t-24.5 -12q-120 6 -215 6q-93 0 -213 -6q-14 0 -23 12.5t-9 28.5z" />
<glyph unicode="s" horiz-adv-x="907" d="M78 195q0 59 36 96t93 37q22 0 42.5 -10t31 -20.5t10.5 -16.5q0 -2 -11.5 -14t-23.5 -34t-12 -49q0 -61 56 -97t163 -36q96 0 150.5 42t54.5 118q0 49 -30.5 83t-79.5 53.5t-107.5 36t-117.5 38t-108 51t-79.5 83t-30.5 126.5q0 87 56.5 150t138.5 91.5t175 28.5 q122 0 210.5 -51.5t88.5 -142.5q0 -55 -33.5 -94t-88.5 -39q-22 0 -42.5 10t-31 20.5t-10.5 16.5q0 2 9 10t20.5 18t20.5 28.5t9 39.5q-4 56 -55.5 86.5t-120.5 30.5q-78 0 -136.5 -36.5t-58.5 -98.5q0 -30 5 -52t21 -40.5t31.5 -31t50.5 -27t63 -24t83 -26.5 q64 -20 102 -34.5t81.5 -38t66 -49.5t38 -65.5t15.5 -89.5q0 -129 -107 -213t-270 -84t-265.5 58t-102.5 162z" />
<glyph unicode="t" horiz-adv-x="776" d="M51 885q0 18 8 31t21 16q42 8 74 24t51 32t37 47.5t25.5 50t21.5 60.5q4 11 6 17q9 27 45 27q15 0 29 -7.5t14 -21.5l-14 -233l239 14q17 1 24 -10t7 -29q0 -23 -7.5 -42t-17.5 -19l-229 6v-623q0 -68 28 -112.5t91 -44.5q62 0 112 22q25 10 33 10q21 0 39 -41q2 -5 2 -9 q0 -11 -12 -19q-59 -39 -112.5 -52.5t-123.5 -13.5q-100 0 -171.5 74t-71.5 211v602l-119 -4q-13 0 -21 11.5t-8 25.5z" />
<glyph unicode="u" horiz-adv-x="1220" d="M35 840q0 31 33 36q81 12 139 28t86.5 26.5t42.5 11.5h6q13 0 22 -7q11 -9 11 -32v-620q0 -94 59 -144.5t137 -50.5q95 0 163 46.5t91 94.5v430q0 70 -7 90q-19 49 -97 50q-17 0 -25 1.5t-16 11t-8 28.5q0 31 33 36q81 12 139 28t86.5 26.5t42.5 11.5h6q13 0 22 -7 q11 -9 11 -32v-708q0 -121 162 -121q34 0 34 -39q0 -30 -34 -35l-330 -23q-9 0 -13.5 6.5t-5 12.5t-0.5 22v115h-4q-76 -73 -113 -97q-93 -61 -216 -61q-139 0 -221.5 84.5t-82.5 221.5v378q0 70 -7 90q-19 49 -97 50q-17 0 -25 1.5t-16 11t-8 28.5z" />
<glyph unicode="v" horiz-adv-x="1128" d="M16 893q0 8 1.5 14.5t3 11t7 7.5t8 4.5t11 2.5t12 1.5t14.5 1t15 0.5q16 1 30 1q104 0 167 -37q72 -42 118 -146q19 -42 95.5 -238.5t119.5 -284.5h7l202 537q10 30 11 47t-9.5 26.5t-28 12t-50.5 2.5h-7.5h-8t-6.5 0.5t-6.5 1.5t-5 2.5t-4.5 4.5t-3 7t-3 9t-1 12 q0 15 7 28t21 13q117 -6 199 -6q50 0 170 6q14 0 22.5 -13.5t8.5 -27.5q0 -7 -1 -12t-3 -9l-3.5 -7t-5 -4.5t-5 -2.5t-7 -1.5t-6.5 -0.5h-7.5h-7.5q-69 0 -108 -26t-68 -95q-303 -753 -309 -755h-86q-49 108 -150 369t-147 358q-35 79 -66 109.5t-90 37.5q-4 1 -13 2 t-11.5 1.5t-8 2.5t-6.5 4t-3.5 6t-3.5 9.5t-1 13.5z" />
<glyph unicode="w" horiz-adv-x="1634" d="M18 893q0 8 1.5 14.5t3 11t7 7.5t8 4.5t11 2.5t12 1.5t14.5 1t15 0.5q16 1 30 1q104 0 168 -37q72 -42 118 -146l188 -531h6q61 191 199 705h98l281 -705h6q24 76 51.5 181.5t54 214.5t37.5 149q5 23 5 39q0 22 -9 32q-16 17 -74 17h-7.5h-8t-6.5 0.5t-6.5 1.5t-5 2.5 t-4.5 4.5t-3 7t-3 9t-1 12q0 14 7.5 27.5t21.5 13.5q117 -6 201 -6q52 0 172 6q14 0 22 -13.5t8 -27.5q-1 -15 -3.5 -23t-12.5 -11t-11.5 -3h-17.5q-76 0 -117 -26.5t-59 -94.5l-227 -755h-121l-260 669l-203 -669h-121l-262 727q-36 79 -66 109.5t-89 37.5q-5 1 -13.5 2 t-11 1.5t-8 2.5t-7 4t-4 6t-3.5 9.5t-1 13.5z" />
<glyph unicode="x" horiz-adv-x="1107" d="M35 35q1 15 3.5 23t12.5 11t11.5 3h17.5t30 2.5t24 4.5t22.5 10.5t19 12.5t19.5 18t18 20t21.5 25.5t23.5 27.5q51 57 207 249l-234 330q-27 35 -56.5 54t-72.5 28q-4 1 -13 2t-11.5 1.5t-8 2.5t-6.5 4t-3.5 6t-3.5 9.5t-1 13.5t1.5 14.5t3 11t7 7.5t8 4.5t11 2.5t12 1.5 t14.5 1t15 0.5q14 1 28 1q188 0 275 -116q6 -8 57.5 -89t98.5 -142l137 178q35 47 35 66v5q-6 16 -86 17h-7.5h-8t-6.5 0.5t-6.5 1.5t-5 2.5t-4.5 4.5t-3 7t-3 9t-1 12q0 15 7 28t21 13q117 -6 172 -6q57 0 177 6q14 0 22 -13.5t8 -27.5q-1 -12 -2.5 -19.5t-8 -11t-8.5 -4.5 t-13.5 -1.5t-12.5 -0.5q-32 -2 -52 -6.5t-41.5 -22t-36 -34t-48.5 -58.5q-16 -19 -74 -92.5t-98 -122.5q190 -247 250 -327q40 -56 78.5 -88.5t85.5 -32.5h7.5h7t6 -0.5t6.5 -1t5 -1.5t4.5 -3t4 -5t3.5 -6.5t2 -8.5t1 -11q0 -16 -9.5 -28.5t-23.5 -12.5q-120 6 -197 6 q-97 0 -217 -6q-14 0 -23 12.5t-9 28.5q2 34 24 37h17h6q26 0 36 11t4.5 30.5t-26.5 46.5l-160 213l-176 -213q-34 -45 -34 -64q0 -5 2 -8q10 -16 83 -16h7.5h8t6.5 -0.5t6.5 -1.5t5 -2.5t4.5 -4.5t3 -7t3 -9t1 -12q0 -15 -7 -28t-21 -13q-117 6 -172 6q-56 0 -176 -6 q-14 0 -22.5 13.5t-8.5 27.5z" />
<glyph unicode="y" horiz-adv-x="1130" d="M-27 -254q3 106 93 134q21 7 38 7q35 0 57.5 -14t22.5 -27q0 -1 -7.5 -9t-15.5 -25t-9 -39v-6q0 -37 24 -68q26 -33 74 -33q130 0 252 264q7 22 7 44q0 25 -9 51q-46 104 -138.5 347t-136.5 335q-36 79 -66 109.5t-89 37.5q-4 1 -13 2t-11.5 1.5t-8 2.5t-6.5 4t-3.5 6 t-3.5 9.5t-1 13.5t1.5 14.5t3 11t6.5 7.5t8 4.5t11.5 2.5t11.5 1.5t14 1t15 0.5q16 1 30 1q104 0 168 -37q72 -42 118 -146q20 -44 95 -239.5t118 -283.5h6l200 537q10 30 11 47t-9.5 26.5t-28 12t-50.5 2.5h-7.5h-8t-6.5 0.5t-6.5 1.5t-5 2.5t-4.5 4.5t-3 7t-3 9t-1 12 q0 15 7 28t21 13q117 -6 199 -6q50 0 170 6q14 0 22.5 -13.5t8.5 -27.5q-1 -15 -3.5 -23t-12.5 -11t-11.5 -3h-17.5q-69 0 -108.5 -26t-68.5 -95q-301 -743 -307 -755q-26 -61 -50.5 -111.5t-64 -112t-80.5 -103t-97 -70.5t-115 -29q-90 0 -158.5 57.5t-67.5 134.5z" />
<glyph unicode="z" horiz-adv-x="1028" d="M74 35q0 7 1 12t3 9t3 7t4.5 4.5t5 2.5t7 1.5t7 0.5h8h8.5q58 0 81.5 16.5t57.5 81.5l283 588q18 38 23.5 58.5t-4 31t-24.5 12.5t-49 2h-86q-52 0 -83 -8t-56 -33.5t-39 -71.5t-24 -124q-1 -16 -19.5 -24.5t-42.5 -8.5q-17 0 -31 10t-14 27l35 252q4 29 15 38t32 9h561 q46 0 166 6q14 0 23.5 -12.5t9.5 -28.5q-2 -34 -24 -37h-17h-6q-59 0 -83 -17t-58 -81l-281 -588q-18 -38 -23.5 -58.5t4 -31t24 -12.5t48.5 -2h115q69 0 105.5 16.5t60.5 67.5t37 153q1 16 19 24.5t42 8.5q17 0 31 -10t14 -27l-35 -252q-4 -29 -15 -38t-32 -9h-592 q-47 0 -164 -6q-16 0 -24 12t-8 29z" />
<glyph unicode="{" horiz-adv-x="585" d="M35 520q0 11 6 24.5t16 14.5q60 6 97.5 23t53 45.5t19.5 50.5t4 57q0 69 -8 235.5t-8 233.5q0 272 289 285h6.5h6.5t6 -0.5t5.5 -1.5t5 -2t4.5 -4t3 -6t3 -8t1 -11q0 -32 -31 -37q-96 -17 -128 -65.5t-32 -128.5q0 -67 14.5 -228t14.5 -229q0 -93 -43 -159t-135 -85v-8 q91 -19 134.5 -84.5t43.5 -159.5q0 -71 -14.5 -229t-14.5 -221q0 -83 29.5 -131.5t120.5 -67.5q1 0 8 -1.5t8.5 -2t7 -2t7 -3.5t4.5 -5.5t4.5 -8t1.5 -10.5q2 -15 -7 -25.5t-28 -10.5q-295 9 -295 274q0 75 8 243t8 234q0 28 -2 46t-11 43t-27 40.5t-52 28.5t-82 18 q-10 1 -16 14t-6 25z" />
<glyph unicode="|" horiz-adv-x="434" d="M160 -399v1843q0 21 17 34t40 13q22 0 39.5 -13t17.5 -34v-1843q0 -21 -17.5 -34t-39.5 -13q-23 0 -40 13t-17 34z" />
<glyph unicode="}" horiz-adv-x="585" d="M41 -410q0 6 1.5 10.5t4.5 8t4.5 5.5t7 3.5t7 2t8.5 2t8 1.5q48 10 79 28.5t45.5 46.5t19.5 56t5 68q0 63 -14 221t-14 229q0 94 43.5 159.5t134.5 84.5v8q-92 19 -135 85t-43 159q0 67 14 228.5t14 228.5q0 80 -31.5 128.5t-127.5 65.5q-31 5 -31 37q0 7 1.5 12t2.5 8.5 t4.5 6t5 4t6.5 2t6 0.5h7.5h7.5q289 -13 289 -285q0 -67 -8.5 -233.5t-8.5 -235.5q0 -35 4 -57t19.5 -50.5t53 -45.5t97.5 -23q10 -1 16.5 -14.5t6.5 -24.5q0 -12 -6.5 -25t-16.5 -14q-48 -5 -82 -18t-52 -28.5t-27 -40.5t-11 -43t-2 -46q0 -66 8.5 -234t8.5 -243 q0 -265 -295 -274q-19 0 -28 10.5t-7 25.5z" />
<glyph unicode="~" horiz-adv-x="1138" d="M90 391q19 52 46.5 99t65.5 92.5t89.5 72.5t107.5 27q54 0 118.5 -21t112.5 -45.5t102.5 -45.5t92.5 -21q88 0 144 133q15 37 55 27q40 -8 29 -47q-16 -49 -43 -97t-65.5 -92t-91 -70t-108.5 -24q-58 2 -109.5 16.5t-88 34t-69.5 38t-69 31.5t-71 13q-32 0 -55.5 -9.5 t-44.5 -34.5t-30.5 -40.5t-31.5 -54.5q-18 -43 -57 -31q-39 16 -29 49z" />
<glyph unicode="&#xa1;" horiz-adv-x="495" d="M117 821q0 58 37 94.5t96 36.5q56 0 92.5 -36.5t36.5 -94.5q0 -55 -37.5 -92t-93.5 -37t-93.5 37t-37.5 92zM137 -240q0 118 31 378t31 337q0 14 14.5 21.5t34.5 7.5q17 0 33 -8t16 -21q0 -77 30.5 -337t30.5 -378q0 -239 -110 -239q-111 0 -111 239z" />
<glyph unicode="&#xa2;" horiz-adv-x="1003" d="M90 465q6 180 110.5 308t268.5 165v55q0 51 43 51q45 0 45 -51v-43q2 0 6.5 1t7.5 1q31 0 58.5 -2t72.5 -11.5t79.5 -26.5t65 -50.5t42.5 -79.5q18 -73 -21 -137.5t-114 -64.5q-39 0 -67 20.5t-28 34.5q0 2 17 15.5t34 39.5t17 58q0 62 -45 94.5t-109 34.5h-16v-799h27 q87 0 149.5 37t114.5 116q14 21 43 5q14 -8 19 -23t-3 -29q-64 -92 -158 -147t-192 -60v-83q0 -52 -45 -52q-43 0 -43 52v86q-179 22 -279 151.5t-100 333.5zM299 471q0 -130 44.5 -227.5t125.5 -139.5v754q-170 -64 -170 -387z" />
<glyph unicode="&#xa3;" horiz-adv-x="1116" d="M90 55q0 23 11 42t30 26q54 18 91.5 55.5t56.5 90t26.5 106t7.5 119.5h-108q-18 0 -28.5 11t-10.5 25q0 15 10.5 28.5t26.5 14.5h110q0 19 -7 93.5t-7 103.5q0 167 108 278t277 111q41 -1 78.5 -7t86.5 -22t85 -52t49 -89q18 -73 -21 -138t-114 -65q-39 0 -66.5 21 t-27.5 35q0 2 10.5 11t23 21t23 33.5t10.5 46.5q0 60 -40.5 93.5t-100.5 35.5q-32 0 -61.5 -8.5t-63 -30t-54 -69t-20.5 -115.5q0 -30 4 -141.5t4 -145.5h293q16 -1 26.5 -14.5t10.5 -28.5q0 -14 -10.5 -25t-28.5 -11h-291q0 -106 -51 -196t-147 -153h620q22 0 31.5 -0.5 t25.5 -4t23 -10.5t13 -21t6 -35q0 -74 -72 -74h-807q-41 0 -41 55z" />
<glyph unicode="&#xa4;" horiz-adv-x="1245" d="M135.5 967q1.5 18 14.5 32q14 16 31.5 20t33.5 -9l139 -142q117 99 267 99q151 0 270 -99l139 142q16 13 34 9t32 -20q12 -14 14 -32.5t-10 -30.5l-135 -133q92 -120 92 -271q0 -154 -94 -272l135 -131q12 -12 11 -30.5t-13 -32.5q-14 -16 -32 -20t-34 9l-139 140 q-66 -52 -141 -75.5t-129 -23.5q-148 0 -267 99l-139 -140q-16 -13 -33.5 -9t-31.5 20q-12 14 -13.5 32.5t10.5 30.5l134 131q-93 123 -93 272q0 155 93 271q-34 31 -136 133q-11 13 -9.5 31zM285 532q0 -147 97.5 -249.5t238.5 -102.5t241.5 103t100.5 249 q0 145 -100.5 247t-241.5 102t-238.5 -101.5t-97.5 -247.5z" />
<glyph unicode="&#xa5;" horiz-adv-x="1296" d="M76 1106q0 6 1 11t2.5 8.5t4.5 6.5t5.5 5t7.5 3t8 1.5t10 1t9.5 0.5h11h11.5q130 0 208.5 -41t138.5 -148q131 -238 204 -374h7l200 393q15 30 17 48t-11.5 26.5t-32 11t-53.5 2.5q-29 0 -35 7q-9 10 -10 32q0 39 31 39q117 -6 197 -6q63 0 180 6q33 0 33 -39 q-1 -15 -3.5 -24t-12 -12t-11.5 -3h-18q-68 0 -111.5 -28.5t-77.5 -92.5l-203 -383q-6 -13 -16.5 -33t-13.5 -28h182q16 -1 26.5 -14.5t10.5 -28.5t-10.5 -26t-28.5 -11h-199v-33v-92h201q16 -1 26.5 -14.5t10.5 -28.5t-10.5 -26t-28.5 -11h-199v-2q1 -34 3.5 -51.5t13 -41 t35.5 -34t65 -10.5q29 0 35 -7q9 -10 10 -32q0 -39 -31 -39q-117 6 -217 6q-104 0 -221 -6q-33 0 -33 39q0 7 1 12.5t3 9.5t3 7t5 5t5 3t6.5 1.5t6.5 0.5h7.5h7.5q33 0 56 8.5t35 19.5t18 32t7 36t1 41v2h-199q-18 0 -28.5 11t-10.5 26t10.5 28.5t26.5 14.5h201v125h-199 q-18 0 -28.5 11t-10.5 26t10.5 28.5t26.5 14.5h179q-53 118 -230 430q-35 64 -78.5 95t-105.5 44q-3 1 -9.5 2t-8.5 1t-7 1.5t-6 2t-4.5 2t-4 3.5t-2 5t-2 6.5t-1 7.5t-0.5 10z" />
<glyph unicode="&#xa6;" horiz-adv-x="770" d="M76 1243q0 47 34.5 79t82.5 32q46 0 79 -32t33 -79q0 -44 -34 -77t-81 -33q-46 0 -80 33t-34 77zM465 1243q0 47 34.5 79t82.5 32q47 0 79.5 -32t32.5 -79q0 -45 -32.5 -77.5t-81.5 -32.5q-46 0 -80.5 33t-34.5 77z" />
<glyph unicode="&#xa7;" horiz-adv-x="960" d="M111 864q0 99 27 179t71.5 132.5t105.5 88.5t127 51.5t138 15.5q76 -2 139 -37.5t90 -107.5q12 -49 4.5 -96t-41.5 -83.5t-84 -41.5q-40 -4 -68.5 12.5t-35.5 32.5q0 2 16 18t30.5 44t12.5 61q-4 61 -54.5 92.5t-103.5 23.5q-54 -7 -78 -50t-12 -97q10 -42 36.5 -86 t83 -120.5t85.5 -119.5q114 -168 181 -312t67 -286q0 -157 -78 -282q-129 -209 -387 -209q-76 2 -139 37.5t-90 107.5q-12 49 -5 96t41 83.5t84 41.5q40 4 69 -12.5t36 -32.5q0 -2 -16.5 -18t-31 -44t-12.5 -61q4 -61 54.5 -92.5t103.5 -23.5q60 9 83.5 59.5t2.5 112.5 q-13 41 -38.5 83.5t-83 122.5t-83.5 119q-53 78 -91 141.5t-76.5 143t-59 159t-20.5 154.5zM223 905q0 -93 35 -199t91.5 -208t115.5 -198t117.5 -200t87.5 -182q59 113 59 250q0 94 -37.5 196.5t-95 198t-117.5 189t-115.5 201t-78.5 202.5q-62 -100 -62 -250z" />
<glyph unicode="&#xa8;" horiz-adv-x="792" d="M104 1243q0 53 37 88t92 35q53 0 88 -34.5t35 -88.5q0 -50 -36 -86.5t-89 -36.5q-52 0 -89.5 36.5t-37.5 86.5zM459 1243q0 53 37 88t92 35q53 0 88 -34.5t35 -88.5q0 -50 -36 -86.5t-89 -36.5q-52 0 -89.5 36.5t-37.5 86.5z" />
<glyph unicode="&#xa9;" horiz-adv-x="1695" d="M96 649q0 152 61 291.5t162.5 240t240 160.5t288.5 60t288.5 -60t240 -160.5t162 -240t60.5 -291.5q0 -122 -38.5 -236.5t-109 -207t-163.5 -162t-206.5 -107.5t-233.5 -38q-150 0 -288.5 59.5t-240 160t-162.5 240t-61 291.5zM184 649q0 -180 88 -333t241 -242.5 t335 -89.5q136 0 259.5 53t211.5 142.5t140 212t52 257.5q0 180 -87.5 333t-240.5 243t-335 90t-335 -90t-241 -243t-88 -333zM471 637q0 186 112.5 302t288.5 116q24 -1 49.5 -3.5t65 -13t70 -26t57 -45t35.5 -68.5q8 -66 -29 -115.5t-102 -46.5q-35 3 -55.5 22t-20.5 32 q0 2 30 32t34 54q7 51 -31.5 81.5t-104.5 32.5q-111 -3 -176 -93.5t-65 -254.5q0 -144 74.5 -242t193.5 -98q144 0 219 150q19 40 55 22q35 -17 21 -49q-51 -105 -134 -152t-206 -47q-159 0 -270 112.5t-111 297.5z" />
<glyph unicode="&#xaa;" horiz-adv-x="811" d="M86 780q0 45 19 80t54.5 57.5t72 37.5t86.5 23.5t81 12t72 6.5l33 2v109q0 135 -142 135q-41 0 -72.5 -25t-31.5 -67q0 -44 45 -74q0 -4 -7 -13.5t-23 -19.5t-35 -10q-47 0 -75 33.5t-28 79.5q0 52 37 87t88 48.5t111 13.5q43 0 78 -4.5t71.5 -18.5t61.5 -36.5t41 -61.5 t16 -92v-331q2 -30 18.5 -55t51.5 -25q15 0 21.5 -5t6.5 -24q0 -15 -16.5 -24.5t-33.5 -12t-34 -2.5q-52 0 -92.5 28t-52.5 75q-33 -49 -103 -76t-137 -27q-76 0 -129 51t-53 125zM240 799q0 -47 24 -78t64 -31q76 0 128 51.5t52 128.5v80q-147 -20 -207.5 -50.5 t-60.5 -100.5z" />
<glyph unicode="&#xab;" horiz-adv-x="970" d="M82 481q0 21 27 45q34 32 116.5 110t132 123.5t56.5 47.5q14 6 29 -7t12 -34q-8 -48 -115 -188l-84 -99q43 -61 97.5 -133t77 -104.5t24.5 -48.5q3 -29 -25 -36t-47 13q-11 12 -48 50t-54.5 55.5t-49.5 48.5t-61 57.5t-61 52.5q-27 24 -27 47zM492 481q0 22 26 45 q34 32 116.5 110t132 123.5t56.5 47.5q14 6 29 -7t12 -34q-9 -49 -114 -188l-84 -99q42 -60 97 -132.5t77 -105t24 -48.5q3 -29 -24.5 -36t-46.5 13q-10 10 -41 42t-44 45.5t-41 41.5t-48 46t-47 42.5t-54 46.5q-26 23 -26 47z" />
<glyph unicode="&#xac;" horiz-adv-x="1294" d="M139 537q0 22 13 40.5t32 18.5h840q76 2 101.5 -25t25.5 -114v-250q0 -21 -18.5 -34t-40.5 -13q-25 0 -43.5 13t-18.5 34v254q0 24 -20 24h-826q-20 0 -32.5 15.5t-12.5 36.5z" />
<glyph unicode="&#xad;" horiz-adv-x="933" d="M127 483q0 23 13 39.5t34 16.5h586q21 0 34 -16.5t13 -39.5q0 -22 -13 -38.5t-34 -16.5h-586q-21 0 -34 16.5t-13 38.5z" />
<glyph unicode="&#xae;" horiz-adv-x="1695" d="M96 647q0 152 61 291.5t162.5 240t240 160.5t288.5 60t288.5 -60t240 -160.5t162 -240t60.5 -291.5q0 -122 -38.5 -236.5t-109 -207t-163.5 -162t-206.5 -107.5t-233.5 -38q-150 0 -288.5 59.5t-240 160t-162.5 240t-61 291.5zM184 647q0 -180 88 -333t241 -242.5 t335 -89.5q136 0 259.5 53t211.5 142.5t140 212t52 257.5q0 180 -87.5 333t-240.5 243t-335 90t-335 -90t-241 -243t-88 -333zM477 281q1 13 3 20t8 10t10.5 3.5t17.5 0.5q23 0 37 5.5t21 18.5t9.5 23.5t4.5 30.5v494q-2 19 -4.5 29t-9.5 23.5t-23 19.5t-41 6q-12 0 -17 1 t-10 8.5t-6 24.5q0 33 31 33q51 -2 143 -2h207q142 -3 212.5 -63t70.5 -144q0 -67 -52.5 -124t-142.5 -83l21 -30q37 -58 55 -85.5t54.5 -75t70.5 -81.5q27 -23 67 -29q2 0 7.5 -0.5t7.5 -1t6.5 -1.5t6 -3.5t4 -6t4 -9t1.5 -12.5q0 -35 -30 -35q-78 0 -111 4 q-48 10 -83 35.5t-73 72.5q-33 47 -118 187q-15 23 -32.5 33t-55.5 10h-27v-187q0 -21 1.5 -32.5t8.5 -26t23.5 -21t42.5 -6.5q11 0 16.5 -1t11.5 -9t6 -24q0 -13 -8 -24t-22 -11q-53 4 -152 4q-90 0 -141 -4q-31 0 -31 35zM721 653h100q172 0 172 160q0 67 -45 112t-149 42 q-48 -2 -63 -18.5t-15 -71.5v-224z" />
<glyph unicode="&#xaf;" horiz-adv-x="1236" d="M102 1550q0 23 13.5 39.5t34.5 16.5h937q21 0 34.5 -16.5t13.5 -39.5q0 -21 -13.5 -38t-34.5 -17h-937q-21 0 -34.5 17t-13.5 38z" />
<glyph unicode="&#xb0;" horiz-adv-x="829" d="M76 975q0 74 31 136.5t80.5 102t109 61t119.5 21.5q148 0 244 -90t96 -213q0 -74 -32 -137t-82 -102t-109 -60.5t-117 -21.5q-149 0 -244.5 90.5t-95.5 212.5zM236 979q0 -51 9.5 -93.5t29.5 -77t56 -54t85 -19.5t84.5 20.5t55.5 57t29 81t9 99.5q0 107 -43 173.5 t-135 66.5q-180 0 -180 -254z" />
<glyph unicode="&#xb1;" horiz-adv-x="1200" d="M94 55q0 23 13 39.5t34 16.5h918q21 0 34 -16.5t13 -39.5q0 -22 -13 -38.5t-34 -16.5h-918q-21 0 -34 16.5t-13 38.5zM94 541q0 21 13 38t32 17h398v385q0 22 19.5 36.5t45.5 14.5q25 0 44.5 -14.5t19.5 -36.5v-385h395q19 0 32 -17t13 -38t-13 -38.5t-32 -17.5h-395 v-270q0 -22 -20 -36.5t-46 -14.5q-25 0 -44 14.5t-19 36.5v270h-398q-19 0 -32 17.5t-13 38.5z" />
<glyph unicode="&#xb2;" horiz-adv-x="776" d="M98 596q0 31 17 51.5t51 42.5q42 28 62 41.5t61.5 44t64 52t53.5 55.5t47 64.5t28 69.5t12 79q0 63 -34 98t-95 35q-50 0 -82.5 -25t-32.5 -67q0 -21 11 -37t22.5 -25.5t11.5 -15.5q0 -13 -22 -29t-50 -16q-51 0 -77.5 28t-26.5 74q0 60 42 102.5t98.5 60t117.5 17.5 q51 0 96.5 -12t84.5 -37t62 -68.5t23 -101.5q0 -61 -25.5 -113.5t-72 -95t-92 -74.5t-107 -72t-94.5 -67h354q19 0 29 -1t23 -6t18.5 -18t5.5 -34q0 -57 -59 -57h-467q-58 0 -58 57z" />
<glyph unicode="&#xb3;" horiz-adv-x="735" d="M94 674q0 44 26 75t77 31q33 0 53 -18.5t20 -32.5q-1 -3 -24 -27.5t-23 -42.5q0 -39 35 -61.5t92 -22.5q63 0 102.5 39t39.5 119q0 66 -34 106t-102 44h-53q-14 0 -21.5 11t-7.5 26t7.5 26.5t21.5 11.5h53q50 6 80.5 48t30.5 100q0 123 -115 123q-49 0 -80.5 -21 t-31.5 -63q0 -25 24.5 -48t24.5 -28q0 -12 -23 -27.5t-53 -15.5q-49 0 -76.5 30.5t-27.5 76.5q0 54 38 92.5t91.5 54.5t115.5 16q49 0 92.5 -10t81.5 -31t60 -59.5t22 -89.5q0 -54 -34 -103t-99 -79q168 -33 168 -189q0 -61 -24.5 -106.5t-67 -71.5t-94.5 -38.5t-113 -12.5 q-46 0 -88.5 9.5t-80 28t-60.5 52.5t-23 78z" />
<glyph unicode="&#xb4;" horiz-adv-x="452" d="M78 1069q-5 19 6 41l154 281q16 31 46 42t66 -6q36 -19 47 -55t-14 -67l-209 -244q-38 -40 -76 -19q-15 8 -20 27z" />
<glyph unicode="&#xb5;" horiz-adv-x="1214" d="M184 -115v998q0 26 30 39.5t67 13.5q30 0 60 -14t30 -39v-600q0 -94 59 -144.5t137 -50.5q95 0 163 46.5t91 94.5v654q0 26 30 39.5t67 13.5q30 0 60 -14t30 -39v-697q0 -57 24.5 -93t79.5 -36q18 0 24.5 -5.5t6.5 -26.5q0 -24 -38 -36t-75 -12q-73 0 -132.5 43 t-74.5 113h-6q-34 -36 -49 -50.5t-47.5 -40.5t-59.5 -36.5t-69 -19.5t-92 -9q-150 0 -193 113h-4v-231q0 -83 15.5 -128.5t39 -59t64.5 -13.5q36 0 66.5 17.5t39.5 41.5q9 31 4 52t-13.5 39t-8.5 20q4 11 29.5 18.5t62.5 -2.5q59 -24 71 -89t-24 -115q-29 -41 -84.5 -63.5 t-109 -21.5t-101.5 13q-53 17 -88 48.5t-52 76.5t-23.5 89.5t-6.5 102.5z" />
<glyph unicode="&#xb6;" horiz-adv-x="1110" d="M117 887q0 63 15 118t54 109t99 92.5t157 62t222 23.5h325h6q14 0 21 -1t16.5 -5t13.5 -14.5t5 -28.5q0 -19 -12 -34t-31 -15h-226v-1022q0 -64 -8.5 -126.5t-32.5 -130.5t-61.5 -118t-100 -81.5t-143.5 -28.5q-76 2 -139 37.5t-90 107.5q-12 49 -4.5 96t41.5 83.5 t84 41.5q40 4 68.5 -12.5t35.5 -32.5q0 -2 -16 -18t-30.5 -44t-12.5 -61q4 -61 54 -92.5t103 -23.5q30 4 53 28t36.5 67t21.5 82.5t11.5 98t4 89t0.5 79.5v238q-78 -3 -151 8.5t-145 42.5t-125 79.5t-86 127t-33 178.5z" />
<glyph unicode="&#xb7;" horiz-adv-x="483" d="M111 559q0 54 37 90.5t94 36.5q56 0 93.5 -36.5t37.5 -90.5q0 -58 -37.5 -93.5t-95.5 -35.5q-56 0 -92.5 35.5t-36.5 93.5z" />
<glyph unicode="&#xb8;" horiz-adv-x="542" d="M66 -377q0 27 10 36t30 9q38 0 57 0.5t51 2.5t49 6.5t36 12.5t27 21t8 31q0 30 -29 43t-88 18q-10 1 -15.5 3t-11.5 13t-6 31v150h101v-84q52 -1 94 -13t73 -45.5t31 -84.5q0 -103 -100 -151t-277 -48q-19 0 -29.5 14.5t-10.5 34.5z" />
<glyph unicode="&#xb9;" horiz-adv-x="686" d="M98 575q1 23 9 28t28 5q35 0 53.5 1t40 4.5t31.5 11t19.5 21t12.5 34t3 49.5v299q1 25 0.5 42.5t-5 32t-7.5 23t-15 15t-19.5 9.5t-29 5t-35 2h-45.5q-33 0 -33 41q0 28 10 34.5t34 6.5q24 -1 52.5 3.5t56.5 12.5t48 15t44 15.5t28 10.5q20 9 37.5 0.5t17.5 -30.5v-537 q0 -35 6 -57.5t14.5 -35.5t30.5 -19t43 -7.5t62 -1.5q16 0 22.5 -1t12 -8.5t6.5 -23.5q0 -40 -35 -40q-132 4 -231 4q-96 0 -232 -4q-35 0 -35 40z" />
<glyph unicode="&#xba;" horiz-adv-x="833" d="M78 940q0 82 31 151.5t80.5 113t109 67.5t119.5 24q148 0 244 -100t96 -235q0 -83 -32 -152.5t-82 -113t-109 -67.5t-117 -24q-149 0 -244.5 100t-95.5 236zM238 944q0 -121 43 -197.5t137 -76.5t136 80.5t42 210.5q0 120 -43 196t-135 76q-65 0 -107 -41t-57.5 -102.5 t-15.5 -145.5z" />
<glyph unicode="&#xbb;" horiz-adv-x="968" d="M106 193q2 16 24.5 48.5t77 104.5t97.5 133l-84 99q-107 140 -115 188q-3 21 12 34t29 7q7 -2 56.5 -47t133.5 -124.5t116 -109.5q26 -23 26 -45q0 -24 -26 -47q-27 -22 -54 -46.5t-47 -42.5t-48 -46t-41 -41.5t-44 -45.5t-41 -42q-19 -20 -47 -13t-25 36zM516 193 q2 16 24.5 48.5t77 104.5t97.5 133l-84 99q-107 140 -115 188q-3 21 12 34t29 7q7 -2 56.5 -47.5t132 -123.5t116.5 -110q27 -24 27 -45q0 -23 -27 -47q-32 -26 -61 -52.5t-61 -57.5t-49.5 -48.5t-54.5 -55.5t-48 -50q-19 -20 -47 -13t-25 36z" />
<glyph unicode="&#xbc;" horiz-adv-x="1656" d="M106 575q1 23 9 28t28 5q35 0 53.5 1t40 4.5t31.5 11t19.5 21t12.5 34t3 49.5v299q1 25 0.5 42.5t-5 32t-7.5 23t-15 15t-19.5 9.5t-29 5t-35 2h-45.5t-32 41q0 28 9.5 34.5t33.5 6.5q24 -1 52.5 3.5t56.5 12.5t48 15t44 15.5t28 10.5q20 9 37.5 0.5t17.5 -30.5v-537 q0 -35 6 -57.5t14.5 -35.5t30.5 -19t43 -7.5t62 -1.5q16 0 22.5 -1t12 -8.5t6.5 -23.5q0 -40 -35 -40q-132 4 -231 4q-96 0 -232 -4q-35 0 -35 40zM526 68l611 1196q11 20 33 26.5t40 -0.5q23 -7 34 -27.5t3 -39.5l-614 -1194q-11 -19 -32.5 -26t-39.5 -1q-22 8 -32 27 t-3 39zM932 272q0 15 4 23l407 446q19 17 50 17q23 0 42.5 -13.5t20.5 -39.5v-400h76q16 0 22.5 -1.5t13 -10t7.5 -27.5q0 -43 -35 -43h-84v-205q0 -14 -21.5 -24t-48.5 -10t-47.5 9.5t-21.5 24.5v205h-324q-25 0 -43 12.5t-18 36.5zM1044 305h273v307q-46 -54 -138 -155.5 t-135 -151.5z" />
<glyph unicode="&#xbd;" horiz-adv-x="1744" d="M102 575q1 23 9 28t28 5q35 0 53.5 1t40 4.5t31.5 11t19.5 21t12.5 34t3 49.5v299q1 25 0.5 42.5t-5 32t-7.5 23t-15 15t-19.5 9.5t-29 5t-35 2h-45.5t-32 41q0 28 9.5 34.5t33.5 6.5q24 -1 52.5 3.5t56.5 12.5t48 15t44 15.5t28 10.5q20 9 37.5 0.5t17.5 -30.5v-537 q0 -35 6 -57.5t14.5 -35.5t30.5 -19t43 -7.5t62 -1.5q16 0 22.5 -1t12 -8.5t6.5 -23.5q0 -40 -35 -40q-132 4 -231 4q-96 0 -232 -4q-35 0 -35 40zM522 68l611 1196q11 20 33 26.5t40 -0.5q23 -7 34 -27.5t3 -39.5l-614 -1194q-11 -19 -32.5 -26t-39.5 -1q-22 8 -32 27 t-3 39zM1077 57q0 31 17 52t51 43q39 25 54.5 36t53.5 37.5t57 44t49.5 46t46.5 53t34 55.5t25.5 64.5t7.5 68.5q0 63 -34 98t-96 35q-50 0 -82 -25t-32 -67q0 -21 11.5 -37t22.5 -25.5t11 -15.5q0 -13 -22 -29t-50 -16q-51 0 -77.5 28.5t-26.5 74.5q0 60 42 102.5t98.5 60 t117.5 17.5q51 0 96.5 -12t84.5 -37t62 -68.5t23 -101.5q0 -61 -25.5 -113.5t-72 -95t-92 -74.5t-107 -72t-94.5 -67h354q19 0 29 -1t23 -6.5t18.5 -18.5t5.5 -34q0 -57 -59 -57h-467q-58 0 -58 57z" />
<glyph unicode="&#xbe;" horiz-adv-x="1744" d="M104 674q0 44 26 75t77 31q33 0 53.5 -18.5t20.5 -32.5q-1 -3 -24.5 -27.5t-23.5 -42.5q0 -39 35 -61.5t92 -22.5q63 0 102.5 39t39.5 119q0 66 -33.5 106t-101.5 44h-54q-28 0 -28 37q0 15 7 26.5t21 11.5h54q50 6 80 48t30 100q0 123 -115 123q-49 0 -80.5 -21 t-31.5 -63q0 -25 24.5 -48t24.5 -28q0 -12 -23 -27.5t-53 -15.5q-49 0 -76.5 30.5t-27.5 76.5q0 54 38 92.5t92 54.5t116 16q49 0 92.5 -10t81.5 -31t60 -59.5t22 -89.5q0 -53 -34.5 -102.5t-99.5 -79.5q168 -33 168 -189q0 -61 -24.5 -106.5t-67 -71.5t-94.5 -38.5 t-113 -12.5q-46 0 -88.5 9.5t-80 28t-60.5 52.5t-23 78zM557 68l610 1196q11 20 33.5 26.5t40.5 -0.5q23 -7 34 -27.5t3 -39.5l-614 -1194q-11 -19 -32.5 -26t-39.5 -1q-22 8 -32 27t-3 39zM1024 254q0 14 4 22l408 447q18 16 49 16q23 0 42.5 -13.5t20.5 -39.5v-399h76 q16 0 22.5 -1.5t13 -10t7.5 -27.5q0 -43 -35 -43h-84v-205q0 -15 -21 -25t-48 -10t-48 10t-22 25v205h-324q-25 0 -43 12.5t-18 36.5zM1137 287h272v307q-46 -54 -137.5 -156t-134.5 -151z" />
<glyph unicode="&#xbf;" horiz-adv-x="884" d="M84 -195q0 44 15.5 85t36.5 71.5t57.5 64t65 54t71.5 49.5q50 34 76.5 54.5t60.5 53t49.5 66t15.5 70.5t-25 62.5t-54 25.5q-61 0 -125 -64q-32 -32 -72 -28q-36 3 -52.5 28t7.5 54q44 44 99.5 69t107.5 25q97 0 169 -70t72 -182q0 -45 -16.5 -83t-54 -73t-64 -54 t-80.5 -54q-44 -29 -62 -41t-52.5 -39.5t-49 -47.5t-27.5 -50.5t-13 -63.5q0 -78 51 -133t135 -55q74 0 133 42t59 111q0 57 -61 105q-14 11 -14 14q0 8 11.5 21t37.5 24.5t57 11.5q84 0 128 -68.5t24 -144.5q-16 -59 -63 -101t-107.5 -60.5t-107 -25.5t-85.5 -7 q-88 0 -154.5 21t-103 51t-59.5 71t-30 74t-7 67zM315 821q0 58 37.5 94.5t96.5 36.5q56 0 92.5 -36.5t36.5 -94.5q0 -54 -37.5 -91.5t-94.5 -37.5q-56 0 -93.5 37t-37.5 92z" />
<glyph unicode="&#xc0;" d="M-25 39q1 16 4 25t10.5 13t13 4.5t18.5 0.5h6q23 0 41.5 3.5t33 14t24 19t20 27t15.5 28.5t15 33.5t14 32.5l359 847q26 65 -3 92t-93 38q-38 7 -44 13q-8 10 -8 34q0 9 2 15.5t4 11t8 7.5t9.5 4.5t13 2t13.5 0.5h16h16q67 -1 112 -9.5t85.5 -32t70.5 -66t58 -110.5 l344 -847q34 -83 54 -110q36 -47 91 -48h6q13 0 18.5 -0.5t13 -4.5t10.5 -13t4 -25q0 -19 -9.5 -32t-27.5 -13q-132 6 -226 6q-121 0 -253 -6q-37 0 -37 45q0 7 1 12.5t2 10t3.5 7.5t3.5 5.5t5.5 4t5.5 2t6.5 1t7 0.5h8.5h8q40 0 64 6t36.5 16.5t13 31.5t-5 43.5t-18.5 60.5 l-70 170h-506q-18 -44 -31 -77t-19 -49.5t-9.5 -26.5t-4.5 -13t-1 -4q-12 -38 -18 -60t-5.5 -42t7.5 -29.5t26 -16.5t44.5 -8.5t68.5 -1.5h8h8.5t7 -0.5t6.5 -1t5.5 -2t5.5 -4t3.5 -5.5t3.5 -7.5t2 -10t1 -12.5q0 -19 -9.5 -32t-27.5 -13q-132 6 -223 6q-67 0 -199 -6 q-37 0 -37 45zM268 1669q21 24 47 26.5t48.5 -9t56.5 -37.5q22 -16 46.5 -37.5t51 -47t44.5 -43t44 -44t31 -31.5q13 -17 8 -37t-26 -32t-41 -1q-91 48 -254 152q-113 74 -56 141zM401 498h430l-206 526h-7z" />
<glyph unicode="&#xc1;" d="M-25 39q1 16 4 25t10.5 13t13 4.5t18.5 0.5h6q23 0 41.5 3.5t33 14t24 19t20 27t15.5 28.5t15 33.5t14 32.5l359 847q26 65 -3 92t-93 38q-38 7 -44 13q-8 10 -8 34q0 9 2 15.5t4 11t8 7.5t9.5 4.5t13 2t13.5 0.5h16h16q67 -1 112 -9.5t85.5 -32t70.5 -66t58 -110.5 l344 -847q34 -83 54 -110q36 -47 91 -48h6q13 0 18.5 -0.5t13 -4.5t10.5 -13t4 -25q0 -19 -9.5 -32t-27.5 -13q-132 6 -226 6q-121 0 -253 -6q-37 0 -37 45q0 7 1 12.5t2 10t3.5 7.5t3.5 5.5t5.5 4t5.5 2t6.5 1t7 0.5h8.5h8q40 0 64 6t36.5 16.5t13 31.5t-5 43.5t-18.5 60.5 l-70 170h-506q-18 -44 -31 -77t-19 -49.5t-9.5 -26.5t-4.5 -13t-1 -4q-12 -38 -18 -60t-5.5 -42t7.5 -29.5t26 -16.5t44.5 -8.5t68.5 -1.5h8h8.5t7 -0.5t6.5 -1t5.5 -2t5.5 -4t3.5 -5.5t3.5 -7.5t2 -10t1 -12.5q0 -19 -9.5 -32t-27.5 -13q-132 6 -223 6q-67 0 -199 -6 q-37 0 -37 45zM401 498h430l-206 526h-7zM465 1409q-5 20 8 37q5 5 31 31.5t44 44t44.5 43t51 47t46.5 37.5q34 26 56.5 37.5t48.5 9t47 -26.5q57 -67 -56 -141q-163 -104 -254 -152q-20 -11 -41 1t-26 32z" />
<glyph unicode="&#xc2;" d="M-25 39q1 16 4 25t10.5 13t13 4.5t18.5 0.5h6q23 0 41.5 3.5t33 14t24 19t20 27t15.5 28.5t15 33.5t14 32.5l359 847q26 65 -3 92t-93 38q-38 7 -44 13q-8 10 -8 34q0 9 2 15.5t4 11t8 7.5t9.5 4.5t13 2t13.5 0.5h16h16q67 -1 112 -9.5t85.5 -32t70.5 -66t58 -110.5 l344 -847q34 -83 54 -110q36 -47 91 -48h6q13 0 18.5 -0.5t13 -4.5t10.5 -13t4 -25q0 -19 -9.5 -32t-27.5 -13q-132 6 -226 6q-121 0 -253 -6q-37 0 -37 45q0 7 1 12.5t2 10t3.5 7.5t3.5 5.5t5.5 4t5.5 2t6.5 1t7 0.5h8.5h8q40 0 64 6t36.5 16.5t13 31.5t-5 43.5t-18.5 60.5 l-70 170h-506q-18 -44 -31 -77t-19 -49.5t-9.5 -26.5t-4.5 -13t-1 -4q-12 -38 -18 -60t-5.5 -42t7.5 -29.5t26 -16.5t44.5 -8.5t68.5 -1.5h8h8.5t7 -0.5t6.5 -1t5.5 -2t5.5 -4t3.5 -5.5t3.5 -7.5t2 -10t1 -12.5q0 -19 -9.5 -32t-27.5 -13q-132 6 -223 6q-67 0 -199 -6 q-37 0 -37 45zM251.5 1426q-8.5 28 16.5 47l260 190q27 18 50 18q25 0 49 -18l260 -190q25 -19 16.5 -47t-39.5 -25q-31 8 -70.5 25t-67.5 31t-77.5 40t-70.5 37q-20 -10 -71 -37t-78 -40.5t-67 -30.5t-71 -25q-31 -3 -39.5 25zM401 498h430l-206 526h-7z" />
<glyph unicode="&#xc3;" d="M-25 39q1 16 4 25t10.5 13t13 4.5t18.5 0.5h6q23 0 41.5 3.5t33 14t24 19t20 27t15.5 28.5t15 33.5t14 32.5l359 847q26 65 -3 92t-93 38q-38 7 -44 13q-8 10 -8 34q0 9 2 15.5t4 11t8 7.5t9.5 4.5t13 2t13.5 0.5h16h16q67 -1 112 -9.5t85.5 -32t70.5 -66t58 -110.5 l344 -847q34 -83 54 -110q36 -47 91 -48h6q13 0 18.5 -0.5t13 -4.5t10.5 -13t4 -25q0 -19 -9.5 -32t-27.5 -13q-132 6 -226 6q-121 0 -253 -6q-37 0 -37 45q0 7 1 12.5t2 10t3.5 7.5t3.5 5.5t5.5 4t5.5 2t6.5 1t7 0.5h8.5h8q40 0 64 6t36.5 16.5t13 31.5t-5 43.5t-18.5 60.5 l-70 170h-506q-18 -44 -31 -77t-19 -49.5t-9.5 -26.5t-4.5 -13t-1 -4q-12 -38 -18 -60t-5.5 -42t7.5 -29.5t26 -16.5t44.5 -8.5t68.5 -1.5h8h8.5t7 -0.5t6.5 -1t5.5 -2t5.5 -4t3.5 -5.5t3.5 -7.5t2 -10t1 -12.5q0 -19 -9.5 -32t-27.5 -13q-132 6 -223 6q-67 0 -199 -6 q-37 0 -37 45zM233 1487q30 77 89 131.5t137 54.5q39 -1 82 -19.5t73 -40.5t63.5 -40.5t57.5 -18.5q27 0 63.5 22t71.5 64q15 18 36 16t29.5 -18.5t-1.5 -42.5q-32 -75 -88.5 -126.5t-132.5 -51.5q-39 1 -82 19.5t-73.5 40.5t-64 40.5t-57.5 18.5q-63 0 -135 -86 q-21 -25 -50 -12.5t-18 49.5zM401 498h430l-206 526h-7z" />
<glyph unicode="&#xc4;" d="M-25 39q1 16 4 25t10.5 13t13 4.5t18.5 0.5h6q23 0 41.5 3.5t33 14t24 19t20 27t15.5 28.5t15 33.5t14 32.5l359 847q26 65 -3 92t-93 38q-38 7 -44 13q-8 10 -8 34q0 9 2 15.5t4 11t8 7.5t9.5 4.5t13 2t13.5 0.5h16h16q67 -1 112 -9.5t85.5 -32t70.5 -66t58 -110.5 l344 -847q34 -83 54 -110q36 -47 91 -48h6q13 0 18.5 -0.5t13 -4.5t10.5 -13t4 -25q0 -19 -9.5 -32t-27.5 -13q-132 6 -226 6q-121 0 -253 -6q-37 0 -37 45q0 7 1 12.5t2 10t3.5 7.5t3.5 5.5t5.5 4t5.5 2t6.5 1t7 0.5h8.5h8q40 0 64 6t36.5 16.5t13 31.5t-5 43.5t-18.5 60.5 l-70 170h-506q-18 -44 -31 -77t-19 -49.5t-9.5 -26.5t-4.5 -13t-1 -4q-12 -38 -18 -60t-5.5 -42t7.5 -29.5t26 -16.5t44.5 -8.5t68.5 -1.5h8h8.5t7 -0.5t6.5 -1t5.5 -2t5.5 -4t3.5 -5.5t3.5 -7.5t2 -10t1 -12.5q0 -19 -9.5 -32t-27.5 -13q-132 6 -223 6q-67 0 -199 -6 q-37 0 -37 45zM260 1556q0 53 37 88t92 35q53 0 88 -34.5t35 -88.5q0 -50 -36 -86t-89 -36q-52 0 -89.5 36t-37.5 86zM401 498h430l-206 526h-7zM653 1556q0 53 37 88t92 35q53 0 88 -34.5t35 -88.5q0 -50 -36 -86t-89 -36q-52 0 -89.5 36t-37.5 86z" />
<glyph unicode="&#xc5;" d="M-25 39q1 16 4 25t10.5 13t13 4.5t18.5 0.5h6q23 0 41.5 3.5t33 14t24 19t20 27t15.5 28.5t15 33.5t14 32.5l359 847q26 65 -3 92t-93 38q-38 7 -44 13q-8 10 -8 34q0 9 2 15.5t4 11t8 7.5t9.5 4.5t13 2t13.5 0.5h16h16q67 -1 112 -9.5t85.5 -32t70.5 -66t58 -110.5 l344 -847q34 -83 54 -110q36 -47 91 -48h6q13 0 18.5 -0.5t13 -4.5t10.5 -13t4 -25q0 -19 -9.5 -32t-27.5 -13q-132 6 -226 6q-121 0 -253 -6q-37 0 -37 45q0 7 1 12.5t2 10t3.5 7.5t3.5 5.5t5.5 4t5.5 2t6.5 1t7 0.5h8.5h8q40 0 64 6t36.5 16.5t13 31.5t-5 43.5t-18.5 60.5 l-70 170h-506q-18 -44 -31 -77t-19 -49.5t-9.5 -26.5t-4.5 -13t-1 -4q-12 -38 -18 -60t-5.5 -42t7.5 -29.5t26 -16.5t44.5 -8.5t68.5 -1.5h8h8.5t7 -0.5t6.5 -1t5.5 -2t5.5 -4t3.5 -5.5t3.5 -7.5t2 -10t1 -12.5q0 -19 -9.5 -32t-27.5 -13q-132 6 -223 6q-67 0 -199 -6 q-37 0 -37 45zM356 1661q0 99 57 150t169 51q106 0 163.5 -53t57.5 -148q0 -89 -60 -142t-161 -53q-102 0 -164 53.5t-62 141.5zM401 498h430l-206 526h-7zM489 1661q0 -119 93 -119q49 0 68.5 30.5t19.5 88.5q0 63 -20 96t-68 33q-46 0 -69.5 -35.5t-23.5 -93.5z" />
<glyph unicode="&#xc6;" horiz-adv-x="1847" d="M-20 39q1 32 12.5 38.5t38.5 4.5q55 -4 102.5 42t81.5 116l436 847q8 20 10 36t0.5 27t-11.5 20t-16 13.5t-24 9t-25.5 6t-29.5 5.5q-38 7 -44 13q-8 8 -7 34q0 9 2.5 15.5t4.5 11t8 7.5t9.5 4.5t12.5 2t13 0.5h16h16h1054q54 0 54 -49l6 -287q0 -19 -17.5 -30t-37.5 -11 q-25 0 -43 9.5t-21 27.5q-12 75 -24 118.5t-34.5 77t-56 47t-86.5 15.5h-274v-520h371q14 -1 22 -15t8 -32q0 -16 -8 -28.5t-22 -12.5h-371v-387q5 -60 17 -83q31 -52 126 -50h189q36 1 62 6t47 18t34.5 27.5t27.5 45.5t23.5 59.5t24.5 80.5q13 36 69 29q20 -3 35.5 -15.5 t14.5 -31.5l-41 -258q-6 -27 -18.5 -35t-41.5 -8h-676q-110 0 -245 -6q-35 0 -35 45q0 7 1 12.5t2 10t3.5 7.5t3.5 5.5t5.5 4t5.5 2t6.5 1t7 0.5h8.5h8q37 0 63 10t39 22.5t20.5 37.5t8.5 41t2 47v268h-444l-137 -268q-28 -54 -37 -83t3 -47t42.5 -23t93.5 -5h8h8.5t7 -0.5 t6.5 -1t5.5 -2t5.5 -4t3.5 -5.5t3.5 -7.5t2 -10t1 -12.5q0 -19 -9.5 -32t-27.5 -13q-132 6 -223 6q-67 0 -199 -6q-36 0 -36 45zM502 596h401v614h-47q-29 1 -42 -10t-30 -43z" />
<glyph unicode="&#xc7;" horiz-adv-x="1308" d="M100 637q0 315 182 505.5t488 190.5q63 0 123.5 -9t121 -30.5t105.5 -53.5t73 -82.5t28 -113.5q2 -92 -55.5 -156.5t-153.5 -64.5q-37 0 -64.5 15t-37.5 31.5t-9 27.5q0 3 16 14t35.5 26t35.5 46t16 68q0 93 -62 146.5t-174 53.5q-191 0 -309.5 -159t-118.5 -443 q0 -164 57.5 -298t165 -213t244.5 -79q110 0 189 46t143 149q18 34 65 6q49 -31 25 -65q-114 -143 -216 -189.5t-280 -46.5q-23 0 -69 4v-47q52 -1 94 -13t73 -45.5t31 -84.5q0 -103 -100 -151t-277 -48q-19 0 -30 14.5t-11 34.5q0 27 10.5 36t30.5 9q38 0 57 0.5t51 2.5 t49 6.5t36 12.5t27 21t8 31q0 30 -29 43t-88 18q-10 1 -15.5 3t-11.5 13t-6 31v132q-206 54 -334.5 227.5t-128.5 427.5z" />
<glyph unicode="&#xc8;" horiz-adv-x="1216" d="M88 39q0 7 1 12.5t2 10t3.5 7.5t3.5 5.5t5.5 4t5.5 2t6.5 1t7 0.5h8.5h8q37 0 63 10t39 22.5t20.5 37.5t8.5 41t2 47v813q-1 31 -2 47t-8.5 41t-20.5 37t-39 22t-63 10h-8h-8.5t-7 0.5t-6.5 1t-5.5 2t-5.5 4t-3.5 5.5t-3.5 7.5t-2 10t-1 12.5q0 45 35 45q135 -6 244 -6 h643q53 0 53 -49l6 -287q0 -19 -17.5 -30t-37.5 -11q-25 0 -43 9.5t-21 27.5q-23 147 -61 201t-139 57h-275v-520h371q14 -1 22.5 -15t8.5 -32q0 -16 -8.5 -28.5t-22.5 -12.5h-371v-387q5 -60 17 -83q29 -53 126 -50h189q36 1 62 6t47 18t34.5 27.5t27.5 45.5t23.5 59.5 t24.5 80.5q13 36 70 29q20 -3 35 -15.5t14 -31.5l-41 -258q-6 -27 -18.5 -35t-41.5 -8h-675q-111 0 -246 -6q-35 0 -35 45zM375 1669q21 24 46.5 26.5t48 -9t56.5 -37.5q22 -16 46.5 -37.5t51 -47t44.5 -43t44 -44t31 -31.5q13 -17 8 -37t-26 -32t-41 -1q-91 48 -254 152 q-113 73 -55 141z" />
<glyph unicode="&#xc9;" horiz-adv-x="1216" d="M88 39q0 7 1 12.5t2 10t3.5 7.5t3.5 5.5t5.5 4t5.5 2t6.5 1t7 0.5h8.5h8q37 0 63 10t39 22.5t20.5 37.5t8.5 41t2 47v813q-1 31 -2 47t-8.5 41t-20.5 37t-39 22t-63 10h-8h-8.5t-7 0.5t-6.5 1t-5.5 2t-5.5 4t-3.5 5.5t-3.5 7.5t-2 10t-1 12.5q0 45 35 45q135 -6 244 -6 h643q53 0 53 -49l6 -287q0 -19 -17.5 -30t-37.5 -11q-25 0 -43 9.5t-21 27.5q-23 147 -61 201t-139 57h-275v-520h371q14 -1 22.5 -15t8.5 -32q0 -16 -8.5 -28.5t-22.5 -12.5h-371v-387q5 -60 17 -83q29 -53 126 -50h189q36 1 62 6t47 18t34.5 27.5t27.5 45.5t23.5 59.5 t24.5 80.5q13 36 70 29q20 -3 35 -15.5t14 -31.5l-41 -258q-6 -27 -18.5 -35t-41.5 -8h-675q-111 0 -246 -6q-35 0 -35 45zM531 1409q-5 20 8 37q5 5 31 31.5t44 44t44.5 43t51 47t46.5 37.5q34 26 56.5 37.5t48 9t46.5 -26.5q58 -68 -55 -141q-163 -104 -254 -152 q-20 -11 -41 1t-26 32z" />
<glyph unicode="&#xca;" horiz-adv-x="1216" d="M88 39q0 7 1 12.5t2 10t3.5 7.5t3.5 5.5t5.5 4t5.5 2t6.5 1t7 0.5h8.5h8q37 0 63 10t39 22.5t20.5 37.5t8.5 41t2 47v813q-1 31 -2 47t-8.5 41t-20.5 37t-39 22t-63 10h-8h-8.5t-7 0.5t-6.5 1t-5.5 2t-5.5 4t-3.5 5.5t-3.5 7.5t-2 10t-1 12.5q0 45 35 45q135 -6 244 -6 h643q53 0 53 -49l6 -287q0 -19 -17.5 -30t-37.5 -11q-25 0 -43 9.5t-21 27.5q-23 147 -61 201t-139 57h-275v-520h371q14 -1 22.5 -15t8.5 -32q0 -16 -8.5 -28.5t-22.5 -12.5h-371v-387q5 -60 17 -83q29 -53 126 -50h189q36 1 62 6t47 18t34.5 27.5t27.5 45.5t23.5 59.5 t24.5 80.5q13 36 70 29q20 -3 35 -15.5t14 -31.5l-41 -258q-6 -27 -18.5 -35t-41.5 -8h-675q-111 0 -246 -6q-35 0 -35 45zM317 1426q-8 28 17 47l260 190q27 18 49 18q25 0 49 -18l260 -190q25 -19 17 -47t-39 -25q-31 8 -71 25t-67 30.5t-78 40.5t-71 37q-20 -10 -71 -37 t-78 -40.5t-67 -30.5t-71 -25q-31 -3 -39 25z" />
<glyph unicode="&#xcb;" horiz-adv-x="1216" d="M88 39q0 7 1 12.5t2 10t3.5 7.5t3.5 5.5t5.5 4t5.5 2t6.5 1t7 0.5h8.5h8q37 0 63 10t39 22.5t20.5 37.5t8.5 41t2 47v813q-1 31 -2 47t-8.5 41t-20.5 37t-39 22t-63 10h-8h-8.5t-7 0.5t-6.5 1t-5.5 2t-5.5 4t-3.5 5.5t-3.5 7.5t-2 10t-1 12.5q0 45 35 45q135 -6 244 -6 h643q53 0 53 -49l6 -287q0 -19 -17.5 -30t-37.5 -11q-25 0 -43 9.5t-21 27.5q-23 147 -61 201t-139 57h-275v-520h371q14 -1 22.5 -15t8.5 -32q0 -16 -8.5 -28.5t-22.5 -12.5h-371v-387q5 -60 17 -83q29 -53 126 -50h189q36 1 62 6t47 18t34.5 27.5t27.5 45.5t23.5 59.5 t24.5 80.5q13 36 70 29q20 -3 35 -15.5t14 -31.5l-41 -258q-6 -27 -18.5 -35t-41.5 -8h-675q-111 0 -246 -6q-35 0 -35 45zM326 1556q0 53 37 88t92 35q53 0 88 -34.5t35 -88.5q0 -50 -36 -86t-89 -36q-52 0 -89.5 36t-37.5 86zM719 1556q0 53 37 88t92 35q53 0 88 -34.5 t35 -88.5q0 -50 -36 -86t-89 -36q-52 0 -89.5 36t-37.5 86z" />
<glyph unicode="&#xcc;" horiz-adv-x="745" d="M76 1669q21 24 46.5 26.5t48 -9t56.5 -37.5q22 -16 46.5 -37.5t51 -47t44.5 -43t44 -44t31 -31.5q13 -17 8 -37t-26 -32t-41 -1q-91 48 -254 152q-113 73 -55 141zM86 39q1 17 4 26.5t13.5 13t13.5 3.5h20q37 0 63 10t39 22t20.5 38t9 40.5t3.5 47.5v813q-2 33 -3.5 47.5 t-9 40.5t-20.5 37.5t-39 21.5t-63 10q-32 0 -39 7q-11 11 -12 36q0 45 37 45q132 -6 244 -6q124 0 256 6q18 0 27 -13t9 -32q-1 -7 -2 -12.5t-2 -10t-4 -7.5t-4 -5.5t-5.5 -4t-5.5 -2t-6.5 -1t-7 -0.5h-8.5h-8q-37 0 -63 -10t-39 -22t-20.5 -37t-8.5 -41t-2 -47v-813 q1 -31 2 -47t8.5 -41t20.5 -37.5t39 -22.5t63 -10h8h8.5t7 -0.5t6.5 -1t5.5 -2t5.5 -4t4 -5.5t4 -7.5t2 -10t2 -12.5q0 -19 -9 -32t-27 -13q-132 6 -254 6q-114 0 -246 -6q-37 0 -37 45z" />
<glyph unicode="&#xcd;" horiz-adv-x="745" d="M86 39q1 17 4 26.5t13.5 13t13.5 3.5h20q37 0 63 10t39 22t20.5 38t9 40.5t3.5 47.5v813q-2 33 -3.5 47.5t-9 40.5t-20.5 37.5t-39 21.5t-63 10q-32 0 -39 7q-11 11 -12 36q0 45 37 45q132 -6 244 -6q124 0 256 6q18 0 27 -13t9 -32q-1 -7 -2 -12.5t-2 -10t-4 -7.5 t-4 -5.5t-5.5 -4t-5.5 -2t-6.5 -1t-7 -0.5h-8.5h-8q-37 0 -63 -10t-39 -22t-20.5 -37t-8.5 -41t-2 -47v-813q1 -31 2 -47t8.5 -41t20.5 -37.5t39 -22.5t63 -10h8h8.5t7 -0.5t6.5 -1t5.5 -2t5.5 -4t4 -5.5t4 -7.5t2 -10t2 -12.5q0 -19 -9 -32t-27 -13q-132 6 -254 6 q-114 0 -246 -6q-37 0 -37 45zM273 1409q-5 20 8 37q5 5 31 31.5t44 44t44.5 43t51 47t46.5 37.5q34 26 56.5 37.5t48 9t46.5 -26.5q58 -68 -55 -141q-163 -104 -254 -152q-20 -11 -41 1t-26 32z" />
<glyph unicode="&#xce;" horiz-adv-x="745" d="M38.5 1426q-8.5 28 16.5 47l260 190q27 18 50 18q25 0 49 -18l260 -190q25 -19 16.5 -47t-39.5 -25q-31 8 -70.5 25t-67.5 31t-77.5 40t-70.5 37q-20 -10 -71 -37t-78 -40.5t-67 -30.5t-71 -25q-31 -3 -39.5 25zM86 39q1 17 4 26.5t13.5 13t13.5 3.5h20q37 0 63 10t39 22 t20.5 38t9 40.5t3.5 47.5v813q-2 33 -3.5 47.5t-9 40.5t-20.5 37.5t-39 21.5t-63 10q-32 0 -39 7q-11 11 -12 36q0 45 37 45q132 -6 244 -6q124 0 256 6q18 0 27 -13t9 -32q-1 -7 -2 -12.5t-2 -10t-4 -7.5t-4 -5.5t-5.5 -4t-5.5 -2t-6.5 -1t-7 -0.5h-8.5h-8q-37 0 -63 -10 t-39 -22t-20.5 -37t-8.5 -41t-2 -47v-813q1 -31 2 -47t8.5 -41t20.5 -37.5t39 -22.5t63 -10h8h8.5t7 -0.5t6.5 -1t5.5 -2t5.5 -4t4 -5.5t4 -7.5t2 -10t2 -12.5q0 -19 -9 -32t-27 -13q-132 6 -254 6q-114 0 -246 -6q-37 0 -37 45z" />
<glyph unicode="&#xcf;" horiz-adv-x="745" d="M47 1556q0 53 37 88t92 35q53 0 88 -34.5t35 -88.5q0 -50 -36 -86t-89 -36q-52 0 -89.5 36t-37.5 86zM86 39q1 17 4 26.5t13.5 13t13.5 3.5h20q37 0 63 10t39 22t20.5 38t9 40.5t3.5 47.5v813q-2 33 -3.5 47.5t-9 40.5t-20.5 37.5t-39 21.5t-63 10q-32 0 -39 7 q-11 11 -12 36q0 45 37 45q132 -6 244 -6q124 0 256 6q18 0 27 -13t9 -32q-1 -7 -2 -12.5t-2 -10t-4 -7.5t-4 -5.5t-5.5 -4t-5.5 -2t-6.5 -1t-7 -0.5h-8.5h-8q-37 0 -63 -10t-39 -22t-20.5 -37t-8.5 -41t-2 -47v-813q1 -31 2 -47t8.5 -41t20.5 -37.5t39 -22.5t63 -10h8h8.5 t7 -0.5t6.5 -1t5.5 -2t5.5 -4t4 -5.5t4 -7.5t2 -10t2 -12.5q0 -19 -9 -32t-27 -13q-132 6 -254 6q-114 0 -246 -6q-37 0 -37 45zM440 1556q0 53 37 88t92 35q53 0 88 -34.5t35 -88.5q0 -50 -36 -86t-89 -36q-52 0 -89.5 36t-37.5 86z" />
<glyph unicode="&#xd0;" horiz-adv-x="1490" d="M88 39q0 7 1 12.5t2 10t3.5 7.5t3.5 5.5t5.5 4t5.5 2t6.5 1t7 0.5h8.5h8q37 0 63 10t39 22.5t20.5 37.5t8.5 41t2 47v397h-112q-39 0 -39 43q0 45 39 45h112v328q-1 31 -2 47t-8.5 41t-20.5 37t-39 22t-63 10h-8h-8.5t-7 0.5t-6.5 1t-5.5 2t-5.5 4t-3.5 5.5t-3.5 7.5 t-2 10t-1 12.5q0 45 35 45q135 -6 244 -6h319q147 0 275 -44.5t224 -126.5t151 -206.5t55 -275.5q0 -127 -42 -234t-113.5 -180.5t-167 -125t-201.5 -75.5t-218 -24h-282q-109 0 -244 -6q-35 0 -35 45zM475 215q0 -80 48 -109.5t157 -29.5q239 0 351 148.5t112 414.5 q0 169 -58.5 299t-175 205.5t-274.5 75.5q-25 0 -87 -1t-73 -1v-492h236q39 0 39 -45q0 -43 -39 -43h-236v-422z" />
<glyph unicode="&#xd1;" horiz-adv-x="1509" d="M86 1264q0 9 2 15.5t4 11t8 7.5t9.5 4.5t13 2t13.5 0.5h16h16q115 0 186 -20t123 -63.5t119 -134.5l561 -737h6l-4 703q-1 34 -2 47.5t-7.5 40t-19 38t-38 21.5t-62.5 10h-8h-8.5t-7 0.5t-6.5 1t-5.5 2t-5.5 4t-4 5.5t-4 7.5t-2 10t-2 12.5q0 19 9.5 32t27.5 13 q132 -6 196 -6q61 0 193 6q37 0 37 -45q0 -7 -1 -12.5t-2 -10t-3.5 -7.5t-3.5 -5.5t-5.5 -4t-5.5 -2t-6.5 -1t-7 -0.5h-8.5h-8q-37 0 -62.5 -10t-38 -21.5t-19 -38t-7.5 -40t-2 -47.5l-5 -1033q-2 -26 -51 -26q-40 0 -59 26l-772 1033h-6l4 -813q1 -26 1 -34t3 -30.5t7 -31 t13.5 -24t23 -21.5t34 -11.5t47.5 -5.5h8h8.5t7 -0.5t7 -1l6 -2t5.5 -4t4 -5.5t4 -7.5t2 -10t1 -12.5q0 -19 -9.5 -32t-27.5 -13q-132 6 -199 6q-58 0 -190 -6q-37 0 -37 45q0 7 1 12.5t2 10t3.5 7.5t3.5 5.5t5.5 4t5.5 2t6.5 1t7 0.5h8.5h8q27 0 47.5 5.5t34 11.5t23 21.5 t13.5 24t7 31t3 30.5t1 34l4 813q0 62 -15.5 95.5t-41.5 46t-80 22.5q-38 7 -44 14q-7 8 -7 33zM412 1487q30 77 88.5 131.5t136.5 54.5q39 -1 82 -19.5t73 -40.5t63.5 -40.5t57.5 -18.5q27 0 64 22t72 64q15 18 35.5 16t29 -18.5t-1.5 -42.5q-32 -75 -88.5 -126.5 t-132.5 -51.5q-39 1 -82 19.5t-73.5 40.5t-64 40.5t-57.5 18.5q-63 0 -135 -86q-21 -25 -49.5 -12.5t-17.5 49.5z" />
<glyph unicode="&#xd2;" horiz-adv-x="1505" d="M96 629q0 131 39 246.5t104.5 197.5t150 142t177 89t183.5 29q148 0 274 -55.5t209 -148.5t129.5 -213t46.5 -250q0 -131 -39.5 -246.5t-106 -198.5t-151.5 -143t-178 -89.5t-184 -29.5q-146 0 -270.5 55.5t-207.5 149t-129.5 214t-46.5 251.5zM336 635 q0 -94 15.5 -179.5t49 -160t81 -129t116 -86t150.5 -31.5q105 0 186.5 50t131 136.5t74.5 195.5t25 235q0 117 -26 220t-76.5 184t-131.5 128t-183 47q-105 0 -186 -49t-129 -134.5t-72.5 -193t-24.5 -233.5zM459 1688q21 24 47 26t48 -9.5t56 -37.5q22 -16 46.5 -37.5 t51 -47t44.5 -43t44 -44t31 -31.5q13 -17 8 -37t-26 -31.5t-41 -0.5q-99 52 -254 151q-113 74 -55 142z" />
<glyph unicode="&#xd3;" horiz-adv-x="1505" d="M96 629q0 131 39 246.5t104.5 197.5t150 142t177 89t183.5 29q148 0 274 -55.5t209 -148.5t129.5 -213t46.5 -250q0 -131 -39.5 -246.5t-106 -198.5t-151.5 -143t-178 -89.5t-184 -29.5q-146 0 -270.5 55.5t-207.5 149t-129.5 214t-46.5 251.5zM336 635 q0 -94 15.5 -179.5t49 -160t81 -129t116 -86t150.5 -31.5q105 0 186.5 50t131 136.5t74.5 195.5t25 235q0 117 -26 220t-76.5 184t-131.5 128t-183 47q-105 0 -186 -49t-129 -134.5t-72.5 -193t-24.5 -233.5zM656 1427q-5 20 8 37q5 5 31 31.5t44 44t44.5 43t51 47 t46.5 37.5q34 26 56 37.5t48 9.5t47 -26q58 -68 -55 -142q-155 -99 -254 -151q-20 -11 -41 0.5t-26 31.5z" />
<glyph unicode="&#xd4;" horiz-adv-x="1505" d="M96 629q0 131 39 246.5t104.5 197.5t150 142t177 89t183.5 29q148 0 274 -55.5t209 -148.5t129.5 -213t46.5 -250q0 -131 -39.5 -246.5t-106 -198.5t-151.5 -143t-178 -89.5t-184 -29.5q-146 0 -270.5 55.5t-207.5 149t-129.5 214t-46.5 251.5zM336 635 q0 -94 15.5 -179.5t49 -160t81 -129t116 -86t150.5 -31.5q105 0 186.5 50t131 136.5t74.5 195.5t25 235q0 117 -26 220t-76.5 184t-131.5 128t-183 47q-105 0 -186 -49t-129 -134.5t-72.5 -193t-24.5 -233.5zM442 1444q-8 28 17 47l260 190q28 19 49 19q24 0 49 -19 l260 -190q25 -19 17 -47t-39 -25q-31 8 -71 25t-67 30.5t-78 40.5t-71 37q-20 -10 -71 -37t-78 -40.5t-67 -30.5t-71 -25q-31 -3 -39 25z" />
<glyph unicode="&#xd5;" horiz-adv-x="1505" d="M96 629q0 131 39 246.5t104.5 197.5t150 142t177 89t183.5 29q148 0 274 -55.5t209 -148.5t129.5 -213t46.5 -250q0 -131 -39.5 -246.5t-106 -198.5t-151.5 -143t-178 -89.5t-184 -29.5q-146 0 -270.5 55.5t-207.5 149t-129.5 214t-46.5 251.5zM336 635 q0 -94 15.5 -179.5t49 -160t81 -129t116 -86t150.5 -31.5q105 0 186.5 50t131 136.5t74.5 195.5t25 235q0 117 -26 220t-76.5 184t-131.5 128t-183 47q-105 0 -186 -49t-129 -134.5t-72.5 -193t-24.5 -233.5zM403 1505q30 77 89 132t137 55q39 -1 82 -19.5t73 -40.5 t63.5 -40.5t57.5 -18.5q27 0 63.5 22t71.5 64q15 18 36 16t29.5 -18.5t-1.5 -42.5q-32 -75 -88.5 -126.5t-132.5 -51.5q-50 1 -104 30.5t-99 58.5t-74 29q-63 0 -135 -86q-21 -25 -50 -12.5t-18 49.5z" />
<glyph unicode="&#xd6;" horiz-adv-x="1505" d="M96 629q0 131 39 246.5t104.5 197.5t150 142t177 89t183.5 29q148 0 274 -55.5t209 -148.5t129.5 -213t46.5 -250q0 -131 -39.5 -246.5t-106 -198.5t-151.5 -143t-178 -89.5t-184 -29.5q-146 0 -270.5 55.5t-207.5 149t-129.5 214t-46.5 251.5zM336 635 q0 -94 15.5 -179.5t49 -160t81 -129t116 -86t150.5 -31.5q105 0 186.5 50t131 136.5t74.5 195.5t25 235q0 117 -26 220t-76.5 184t-131.5 128t-183 47q-105 0 -186 -49t-129 -134.5t-72.5 -193t-24.5 -233.5zM430 1575q0 53 37 88t92 35q53 0 88 -34.5t35 -88.5 q0 -50 -36 -86.5t-89 -36.5q-52 0 -89.5 36.5t-37.5 86.5zM823 1575q0 53 37 88t92 35q53 0 88 -34.5t35 -88.5q0 -50 -36 -86.5t-89 -36.5q-52 0 -89.5 36.5t-37.5 86.5z" />
<glyph unicode="&#xd7;" horiz-adv-x="1060" d="M109 186l342 338l-342 342q-26 33 18 70q39 36 63 12l340 -342l340 342q24 24 64 -12q44 -37 18 -70l-342 -342l342 -338q26 -32 -18 -69q-40 -37 -64 -13l-340 340l-340 -340q-23 -23 -63 13q-44 37 -18 69z" />
<glyph unicode="&#xd8;" horiz-adv-x="1505" d="M96 629q0 131 39 246.5t104.5 197.5t150 142t177 89t183.5 29q241 0 417 -145l117 131q13 13 30 12.5t29 -10.5q12 -9 13 -25t-8 -26l-121 -135q87 -93 134.5 -215.5t47.5 -253.5t-39.5 -246.5t-106 -198.5t-151.5 -143t-178 -89.5t-184 -29.5q-248 0 -428 156l-111 -125 q-13 -13 -30 -12.5t-29 10.5q-12 9 -13 25t8 26l117 133q-81 92 -124.5 210.5t-43.5 246.5zM336 635q0 -182 55 -322l672 756q-113 176 -315 176q-105 0 -186 -49t-129 -134.5t-72.5 -193t-24.5 -233.5zM430 236q113 -187 318 -187q105 0 186.5 50t131 136.5t74.5 195.5 t25 235q0 189 -63 327z" />
<glyph unicode="&#xd9;" horiz-adv-x="1474" d="M55 1253q0 45 37 45q132 -6 242 -6q124 0 256 6q37 0 37 -45q-1 -28 -10 -35.5t-31 -7.5q-34 0 -59 -5t-40 -17.5t-24.5 -24t-13.5 -33t-5 -36t-2 -41.5v-639q0 -49 6 -89.5t26 -88t54 -80t95.5 -54.5t144.5 -22q80 0 141.5 18t99.5 47t62.5 69.5t33.5 82t9 88.5v539 q0 71 -1.5 114.5t-9 78.5t-16 51t-29 27t-42 13t-60.5 2q-32 0 -39 7q-11 11 -12 36q0 45 37 45q132 -6 229 -6q98 0 230 6q37 0 37 -45q-1 -28 -10 -35.5t-31 -7.5q-43 0 -65 -1.5t-44.5 -11.5t-31 -24.5t-16.5 -48.5t-9.5 -75.5t-1.5 -112.5v-571q0 -84 -31.5 -153.5 t-81.5 -115.5t-116 -77.5t-132.5 -45.5t-132.5 -14q-119 0 -215 33t-156 89t-92 126t-32 147v699q-1 25 -2 39t-5 35.5t-12.5 33.5t-22.5 25t-37.5 18.5t-54.5 5.5h-8h-8.5t-7 0.5t-6.5 1t-5.5 2t-5.5 4t-3.5 5.5t-3.5 7.5t-2 10t-1 12.5zM485 1669q21 24 47 26.5t48.5 -9 t56.5 -37.5q22 -16 46.5 -37.5t51 -47t44.5 -43t44 -44t31 -31.5q13 -17 8 -37t-26 -32t-41 -1q-91 48 -254 152q-113 74 -56 141z" />
<glyph unicode="&#xda;" horiz-adv-x="1474" d="M55 1253q0 45 37 45q132 -6 242 -6q124 0 256 6q37 0 37 -45q-1 -28 -10 -35.5t-31 -7.5q-34 0 -59 -5t-40 -17.5t-24.5 -24t-13.5 -33t-5 -36t-2 -41.5v-639q0 -49 6 -89.5t26 -88t54 -80t95.5 -54.5t144.5 -22q80 0 141.5 18t99.5 47t62.5 69.5t33.5 82t9 88.5v539 q0 71 -1.5 114.5t-9 78.5t-16 51t-29 27t-42 13t-60.5 2q-32 0 -39 7q-11 11 -12 36q0 45 37 45q132 -6 229 -6q98 0 230 6q37 0 37 -45q-1 -28 -10 -35.5t-31 -7.5q-43 0 -65 -1.5t-44.5 -11.5t-31 -24.5t-16.5 -48.5t-9.5 -75.5t-1.5 -112.5v-571q0 -84 -31.5 -153.5 t-81.5 -115.5t-116 -77.5t-132.5 -45.5t-132.5 -14q-119 0 -215 33t-156 89t-92 126t-32 147v699q-1 25 -2 39t-5 35.5t-12.5 33.5t-22.5 25t-37.5 18.5t-54.5 5.5h-8h-8.5t-7 0.5t-6.5 1t-5.5 2t-5.5 4t-3.5 5.5t-3.5 7.5t-2 10t-1 12.5zM662 1409q-5 20 8 37q5 5 31 31.5 t44 44t44.5 43t51 47t46.5 37.5q34 26 56.5 37.5t48 9t46.5 -26.5q58 -68 -55 -141q-163 -104 -254 -152q-20 -11 -41 1t-26 32z" />
<glyph unicode="&#xdb;" horiz-adv-x="1474" d="M55 1253q0 45 37 45q132 -6 242 -6q124 0 256 6q37 0 37 -45q-1 -28 -10 -35.5t-31 -7.5q-34 0 -59 -5t-40 -17.5t-24.5 -24t-13.5 -33t-5 -36t-2 -41.5v-639q0 -49 6 -89.5t26 -88t54 -80t95.5 -54.5t144.5 -22q80 0 141.5 18t99.5 47t62.5 69.5t33.5 82t9 88.5v539 q0 71 -1.5 114.5t-9 78.5t-16 51t-29 27t-42 13t-60.5 2q-32 0 -39 7q-11 11 -12 36q0 45 37 45q132 -6 229 -6q98 0 230 6q37 0 37 -45q-1 -28 -10 -35.5t-31 -7.5q-43 0 -65 -1.5t-44.5 -11.5t-31 -24.5t-16.5 -48.5t-9.5 -75.5t-1.5 -112.5v-571q0 -84 -31.5 -153.5 t-81.5 -115.5t-116 -77.5t-132.5 -45.5t-132.5 -14q-119 0 -215 33t-156 89t-92 126t-32 147v699q-1 25 -2 39t-5 35.5t-12.5 33.5t-22.5 25t-37.5 18.5t-54.5 5.5h-8h-8.5t-7 0.5t-6.5 1t-5.5 2t-5.5 4t-3.5 5.5t-3.5 7.5t-2 10t-1 12.5zM448 1426q-8 28 17 47l260 190 q27 18 49 18q25 0 49 -18l260 -190q25 -19 17 -47t-39 -25q-31 8 -71 25t-67 30.5t-78 40.5t-71 37q-20 -10 -71 -37t-78 -40.5t-67 -30.5t-71 -25q-31 -3 -39 25z" />
<glyph unicode="&#xdc;" horiz-adv-x="1474" d="M55 1253q0 45 37 45q132 -6 242 -6q124 0 256 6q37 0 37 -45q-1 -28 -10 -35.5t-31 -7.5q-34 0 -59 -5t-40 -17.5t-24.5 -24t-13.5 -33t-5 -36t-2 -41.5v-639q0 -49 6 -89.5t26 -88t54 -80t95.5 -54.5t144.5 -22q80 0 141.5 18t99.5 47t62.5 69.5t33.5 82t9 88.5v539 q0 71 -1.5 114.5t-9 78.5t-16 51t-29 27t-42 13t-60.5 2q-32 0 -39 7q-11 11 -12 36q0 45 37 45q132 -6 229 -6q98 0 230 6q37 0 37 -45q-1 -28 -10 -35.5t-31 -7.5q-43 0 -65 -1.5t-44.5 -11.5t-31 -24.5t-16.5 -48.5t-9.5 -75.5t-1.5 -112.5v-571q0 -84 -31.5 -153.5 t-81.5 -115.5t-116 -77.5t-132.5 -45.5t-132.5 -14q-119 0 -215 33t-156 89t-92 126t-32 147v699q-1 25 -2 39t-5 35.5t-12.5 33.5t-22.5 25t-37.5 18.5t-54.5 5.5h-8h-8.5t-7 0.5t-6.5 1t-5.5 2t-5.5 4t-3.5 5.5t-3.5 7.5t-2 10t-1 12.5zM477 1556q0 53 37 88t92 35 q53 0 88 -34.5t35 -88.5q0 -50 -36 -86t-89 -36q-52 0 -89.5 36t-37.5 86zM870 1556q0 53 37 88t92 35q53 0 88 -34.5t35 -88.5q0 -50 -36 -86t-89 -36q-52 0 -89.5 36t-37.5 86z" />
<glyph unicode="&#xdd;" horiz-adv-x="1271" d="M8 1262q0 9 2 15.5t4 11t8 7.5t9.5 4.5t13 2t13.5 0.5h16h16q148 0 236 -46t157 -167q35 -66 103.5 -208t111.5 -220h7l227 448q17 34 19.5 54.5t-12.5 30t-36 12.5t-61 3h-8h-8.5t-7 0.5t-6.5 1t-5.5 2t-5.5 4t-3.5 5.5t-3.5 7.5t-2 10t-1 12.5q0 45 34 45 q132 -6 224 -6q74 0 206 6q37 0 37 -45q0 -7 -1 -12.5t-2 -10t-3.5 -7.5t-3.5 -5.5t-5.5 -4t-5.5 -2t-6.5 -1t-7 -0.5h-8.5h-8q-77 0 -126.5 -33t-88.5 -106l-231 -436l-13.5 -27t-12 -24.5t-9 -20.5t-8.5 -22t-5.5 -20t-4.5 -24t-2 -26t-1 -33v-198q1 -31 2 -47t8.5 -41 t20.5 -37.5t39 -22.5t63 -10h6q13 0 18.5 -0.5t13 -4.5t10.5 -13t4 -25q0 -45 -35 -45q-132 6 -246 6q-122 0 -254 -6q-37 0 -37 45q1 17 4 26.5t13.5 13t13.5 3.5h20q37 0 63 10t39.5 22.5t20.5 37t8.5 41t2.5 47.5v256q0 34 -101 238t-166 321q-41 74 -90.5 109.5 t-120.5 49.5q-4 1 -13 2.5t-11.5 2.5t-8.5 2.5t-7.5 3.5t-4.5 5t-3.5 7.5t-1.5 10.5t-1 14zM510 1409q-5 20 8 37q5 5 31 31.5t44 44t44.5 43t51 47t46.5 37.5q34 26 56.5 37.5t48.5 9t47 -26.5q57 -67 -56 -141q-168 -107 -253 -152q-20 -11 -41.5 1t-26.5 32z" />
<glyph unicode="&#xde;" horiz-adv-x="1241" d="M86 39q1 17 4 26.5t13.5 13t13.5 3.5h20q37 0 63 10t39 22t20.5 38t9 40.5t3.5 47.5v813q-2 33 -3.5 47.5t-9 40.5t-20.5 37.5t-39 21.5t-63 10q-32 0 -39 7q-11 11 -12 36q0 45 37 45q132 -6 244 -6q124 0 256 6q18 0 27 -13t9 -32q-1 -7 -2 -12.5t-2 -10t-4 -7.5 t-4 -5.5t-5.5 -4t-5.5 -2t-6.5 -1t-7 -0.5h-8.5h-8q-43 0 -71 -11t-40.5 -33.5t-16.5 -43t-5 -53.5h205q39 0 79.5 -4t92 -15t97.5 -28.5t91 -47t77.5 -68t52.5 -95.5t20 -125q0 -76 -29 -142.5t-78.5 -114.5t-115 -83t-140 -52t-151.5 -18q-113 0 -201 35v-71q1 -31 2 -47 t8.5 -41t20.5 -37.5t39 -22.5t63 -10h8h8.5t7 -0.5t6.5 -1t5.5 -2t5.5 -4t4 -5.5t4 -7.5t2 -10t2 -12.5q0 -19 -9 -32t-27 -13q-132 6 -254 6q-114 0 -246 -6q-37 0 -37 45zM473 391q45 -20 145 -20q42 0 84 7t90.5 28t84.5 54t60 90t24 130q0 284 -340 295h-148v-584z" />
<glyph unicode="&#xdf;" horiz-adv-x="1236" d="M47 35q0 7 1 12t3 9t3 7t4.5 4.5t5 2.5t7 1.5t7 0.5h8h8.5q22 0 39 3.5t28.5 9.5t19 14.5t11 19.5t5.5 23t2 25.5v27.5v16v870q0 194 112.5 302t317.5 108q184 6 306 -92t122 -232q0 -88 -55.5 -165.5t-174.5 -131.5v-6q156 -31 240 -134t84 -263q0 -219 -113 -349 t-280 -130q-93 0 -153 50t-60 124q2 55 35 95t88 40q31 0 52 -17t21 -28q0 -2 -13.5 -13.5t-27 -33t-14.5 -47.5q0 -42 21 -66t49 -24q49 0 87 39t57.5 97.5t29.5 113t10 98.5q0 116 -26.5 205t-86.5 144t-147 56h-59q-20 0 -30.5 11.5t-10.5 27.5q0 15 10.5 26.5t30.5 12.5 h59q50 1 91.5 38.5t64 95.5t22.5 122q0 67 -20 121.5t-70 92t-123 38.5q-139 0 -198.5 -76t-59.5 -213v-907q0 -8 0.5 -28t0.5 -26.5t1.5 -22t4 -20.5t6.5 -15t10.5 -13t16 -8t22 -6t28.5 0q29 0 36 -7q8 -9 9 -30q0 -17 -8.5 -29t-24.5 -12q-117 6 -196 6q-96 0 -213 -6 q-16 0 -24.5 12t-8.5 29z" />
<glyph unicode="&#xe0;" horiz-adv-x="1026" d="M70 219q0 54 21 98t53.5 73.5t81.5 52.5t94.5 35.5t103 22.5t96.5 13t86.5 6.5t61.5 5.5v162q0 100 -50 152.5t-161 52.5q-63 0 -110.5 -39t-47.5 -104q0 -30 16.5 -54.5t33 -37.5t16.5 -15q0 -13 -26.5 -32t-62.5 -19q-61 0 -97 45t-36 106q0 73 50 122t120.5 68 t155.5 19q61 0 111 -6.5t101.5 -26.5t86.5 -52t57.5 -86.5t22.5 -127.5v-477q2 -44 26.5 -82.5t79.5 -38.5q11 0 16.5 -1.5t10 -8.5t4.5 -22q0 -24 -38 -36t-75 -12q-78 0 -136.5 45t-67.5 121q-41 -76 -145 -121t-199 -45q-105 0 -179.5 71.5t-74.5 172.5zM236 1372 q11 36 47 55q36 17 66 6t46 -42l154 -281q11 -22 6 -41t-20 -27q-38 -21 -76 19l-209 244q-25 31 -14 67zM276 246q0 -67 37.5 -113.5t96.5 -46.5q106 0 182 76.5t76 187.5v115q-210 -28 -301 -74t-91 -145z" />
<glyph unicode="&#xe1;" horiz-adv-x="1026" d="M70 219q0 54 21 98t53.5 73.5t81.5 52.5t94.5 35.5t103 22.5t96.5 13t86.5 6.5t61.5 5.5v162q0 100 -50 152.5t-161 52.5q-63 0 -110.5 -39t-47.5 -104q0 -30 16.5 -54.5t33 -37.5t16.5 -15q0 -13 -26.5 -32t-62.5 -19q-61 0 -97 45t-36 106q0 73 50 122t120.5 68 t155.5 19q61 0 111 -6.5t101.5 -26.5t86.5 -52t57.5 -86.5t22.5 -127.5v-477q2 -44 26.5 -82.5t79.5 -38.5q11 0 16.5 -1.5t10 -8.5t4.5 -22q0 -24 -38 -36t-75 -12q-78 0 -136.5 45t-67.5 121q-41 -76 -145 -121t-199 -45q-105 0 -179.5 71.5t-74.5 172.5zM276 246 q0 -67 37.5 -113.5t96.5 -46.5q106 0 182 76.5t76 187.5v115q-210 -28 -301 -74t-91 -145zM356.5 1068.5q-5.5 18.5 5.5 41.5l154 281q16 31 46.5 42t66.5 -6q36 -19 47 -55t-14 -67l-209 -244q-38 -40 -76 -19q-15 8 -20.5 26.5z" />
<glyph unicode="&#xe2;" horiz-adv-x="1026" d="M70 219q0 54 21 98t53.5 73.5t81.5 52.5t94.5 35.5t103 22.5t96.5 13t86.5 6.5t61.5 5.5v162q0 100 -50 152.5t-161 52.5q-63 0 -110.5 -39t-47.5 -104q0 -30 16.5 -54.5t33 -37.5t16.5 -15q0 -13 -26.5 -32t-62.5 -19q-61 0 -97 45t-36 106q0 73 50 122t120.5 68 t155.5 19q61 0 111 -6.5t101.5 -26.5t86.5 -52t57.5 -86.5t22.5 -127.5v-477q2 -44 26.5 -82.5t79.5 -38.5q11 0 16.5 -1.5t10 -8.5t4.5 -22q0 -24 -38 -36t-75 -12q-78 0 -136.5 45t-67.5 121q-41 -76 -145 -121t-199 -45q-105 0 -179.5 71.5t-74.5 172.5zM198.5 1086.5 q-4.5 14.5 6.5 37.5l209 303q18 27 49 27q34 0 53 -27l209 -303q11 -23 6.5 -37.5t-18.5 -23.5q-31 -16 -70 14q-57 44 -178 201q-121 -157 -178 -201q-39 -30 -70 -14q-14 9 -18.5 23.5zM276 246q0 -67 37.5 -113.5t96.5 -46.5q106 0 182 76.5t76 187.5v115 q-210 -28 -301 -74t-91 -145z" />
<glyph unicode="&#xe3;" horiz-adv-x="1026" d="M70 219q0 54 21 98t53.5 73.5t81.5 52.5t94.5 35.5t103 22.5t96.5 13t86.5 6.5t61.5 5.5v162q0 100 -50 152.5t-161 52.5q-63 0 -110.5 -39t-47.5 -104q0 -30 16.5 -54.5t33 -37.5t16.5 -15q0 -13 -26.5 -32t-62.5 -19q-61 0 -97 45t-36 106q0 73 50 122t120.5 68 t155.5 19q61 0 111 -6.5t101.5 -26.5t86.5 -52t57.5 -86.5t22.5 -127.5v-477q2 -44 26.5 -82.5t79.5 -38.5q11 0 16.5 -1.5t10 -8.5t4.5 -22q0 -24 -38 -36t-75 -12q-78 0 -136.5 45t-67.5 121q-41 -76 -145 -121t-199 -45q-105 0 -179.5 71.5t-74.5 172.5zM139 1204 q30 77 89 132t137 55q39 -1 75.5 -19.5t59 -40.5t49.5 -40.5t51 -18.5q27 0 63.5 22t71.5 64q15 18 36 16t29.5 -18.5t-1.5 -42.5q-31 -75 -88 -126.5t-133 -51.5q-39 1 -75.5 19.5t-59.5 40.5t-50 40t-51 18q-63 0 -135 -86q-21 -25 -50 -12.5t-18 49.5zM276 246 q0 -67 37.5 -113.5t96.5 -46.5q106 0 182 76.5t76 187.5v115q-210 -28 -301 -74t-91 -145z" />
<glyph unicode="&#xe4;" horiz-adv-x="1026" d="M70 219q0 54 21 98t53.5 73.5t81.5 52.5t94.5 35.5t103 22.5t96.5 13t86.5 6.5t61.5 5.5v162q0 100 -50 152.5t-161 52.5q-63 0 -110.5 -39t-47.5 -104q0 -30 16.5 -54.5t33 -37.5t16.5 -15q0 -13 -26.5 -32t-62.5 -19q-61 0 -97 45t-36 106q0 73 50 122t120.5 68 t155.5 19q61 0 111 -6.5t101.5 -26.5t86.5 -52t57.5 -86.5t22.5 -127.5v-477q2 -44 26.5 -82.5t79.5 -38.5q11 0 16.5 -1.5t10 -8.5t4.5 -22q0 -24 -38 -36t-75 -12q-78 0 -136.5 45t-67.5 121q-41 -76 -145 -121t-199 -45q-105 0 -179.5 71.5t-74.5 172.5zM178 1243 q0 53 37 88t92 35q53 0 88 -34.5t35 -88.5q0 -50 -36 -86.5t-89 -36.5q-52 0 -89.5 36.5t-37.5 86.5zM276 246q0 -67 37.5 -113.5t96.5 -46.5q106 0 182 76.5t76 187.5v115q-210 -28 -301 -74t-91 -145zM532 1243q0 53 37.5 88t92.5 35q53 0 87.5 -34.5t34.5 -88.5 q0 -50 -36 -86.5t-89 -36.5q-52 0 -89.5 36.5t-37.5 86.5z" />
<glyph unicode="&#xe5;" horiz-adv-x="1026" d="M70 219q0 54 21 98t53.5 73.5t81.5 52.5t94.5 35.5t103 22.5t96.5 13t86.5 6.5t61.5 5.5v162q0 100 -50 152.5t-161 52.5q-63 0 -110.5 -39t-47.5 -104q0 -30 16.5 -54.5t33 -37.5t16.5 -15q0 -13 -26.5 -32t-62.5 -19q-61 0 -97 45t-36 106q0 73 50 122t120.5 68 t155.5 19q61 0 111 -6.5t101.5 -26.5t86.5 -52t57.5 -86.5t22.5 -127.5v-477q2 -44 26.5 -82.5t79.5 -38.5q11 0 16.5 -1.5t10 -8.5t4.5 -22q0 -24 -38 -36t-75 -12q-78 0 -136.5 45t-67.5 121q-41 -76 -145 -121t-199 -45q-105 0 -179.5 71.5t-74.5 172.5zM244 1333 q0 201 225 201q106 0 163.5 -53t57.5 -148q0 -89 -60 -141.5t-161 -52.5q-103 0 -164 53t-61 141zM276 246q0 -67 37.5 -113.5t96.5 -46.5q106 0 182 76.5t76 187.5v115q-210 -28 -301 -74t-91 -145zM377 1333q0 -119 92 -119q49 0 68.5 30.5t19.5 88.5q0 63 -20 96t-68 33 q-45 0 -68.5 -35.5t-23.5 -93.5z" />
<glyph unicode="&#xe6;" horiz-adv-x="1583" d="M70 219q0 54 21 98t53.5 73.5t81.5 52.5t94.5 35.5t103 22.5t96.5 13t86.5 6.5t61.5 5.5v162q0 100 -50 152.5t-161 52.5q-63 0 -110.5 -39t-47.5 -104q0 -30 16.5 -54.5t33 -37.5t16.5 -15q0 -13 -26.5 -32t-62.5 -19q-61 0 -97 45t-36 106q0 73 50 122t120.5 68 t155.5 19q240 0 326 -116q122 116 301 116q181 0 280 -93.5t113 -250.5q0 -67 -36.5 -91.5t-106.5 -24.5h-498q0 -190 79 -302t244 -112q88 0 149.5 37.5t117.5 128.5q17 21 45 2q15 -9 19.5 -26.5t-3.5 -29.5q-64 -102 -161.5 -158.5t-219.5 -56.5q-147 0 -252.5 61 t-163.5 167q-21 -41 -45 -78q-48 -69 -146.5 -109.5t-186.5 -40.5q-105 0 -179.5 71.5t-74.5 172.5zM276 246q0 -67 37.5 -113.5t96.5 -46.5q106 0 182 76.5t76 187.5v115q-210 -28 -301 -74t-91 -145zM848 569h334q105 0 110 86q0 95 -51 160.5t-145 65.5 q-105 0 -173 -83.5t-75 -228.5z" />
<glyph unicode="&#xe7;" horiz-adv-x="972" d="M84 465q5 139 69.5 249t172.5 172t239 66q31 0 58.5 -2t72.5 -11.5t79.5 -26.5t65 -50.5t42.5 -79.5q18 -73 -21 -137.5t-114 -64.5q-39 0 -67 20.5t-28 34.5q0 2 17 15.5t34 39.5t17 58q0 62 -45 94.5t-109 34.5q-69 1 -120.5 -25t-80 -64.5t-46 -96t-22.5 -108.5 t-5 -112q0 -172 77.5 -282.5t207.5 -110.5q87 0 149.5 37t114.5 116q14 21 43 5q14 -8 19 -23t-3 -29q-67 -96 -167.5 -152.5t-203.5 -56.5q-24 0 -34 2v-61q52 -1 94 -13t73 -45.5t31 -84.5q0 -103 -100 -151t-277 -48q-19 0 -30 14.5t-11 34.5q0 27 10.5 36t30.5 9 q38 0 57 0.5t51 2.5t49 6.5t36 12.5t27 21t8 31q0 30 -29 43t-88 18q-10 1 -15.5 3t-11.5 13t-6 31v144q-148 38 -229.5 162.5t-81.5 308.5z" />
<glyph unicode="&#xe8;" horiz-adv-x="1028" d="M84 469q0 90 32 176t89.5 154.5t145.5 110.5t190 42q181 0 280 -93.5t113 -250.5q0 -67 -36.5 -91.5t-106.5 -24.5h-498q0 -190 79 -302t244 -112q88 0 149.5 37.5t117.5 128.5q17 21 45 2q15 -9 19.5 -26.5t-3.5 -29.5q-64 -102 -161.5 -158.5t-219.5 -56.5 q-116 0 -208.5 39.5t-150.5 107.5t-89 156.5t-31 190.5zM293 569h334q105 0 110 86q0 95 -51 160.5t-145 65.5q-105 0 -173 -83.5t-75 -228.5zM309.5 1372q10.5 36 46.5 55q36 17 66.5 6t46.5 -42l154 -281q11 -23 5.5 -41.5t-20.5 -26.5q-38 -21 -76 19l-208 244 q-25 31 -14.5 67z" />
<glyph unicode="&#xe9;" horiz-adv-x="1028" d="M84 469q0 90 32 176t89.5 154.5t145.5 110.5t190 42q181 0 280 -93.5t113 -250.5q0 -67 -36.5 -91.5t-106.5 -24.5h-498q0 -190 79 -302t244 -112q88 0 149.5 37.5t117.5 128.5q17 21 45 2q15 -9 19.5 -26.5t-3.5 -29.5q-64 -102 -161.5 -158.5t-219.5 -56.5 q-116 0 -208.5 39.5t-150.5 107.5t-89 156.5t-31 190.5zM293 569h334q105 0 110 86q0 95 -51 160.5t-145 65.5q-105 0 -173 -83.5t-75 -228.5zM430.5 1068.5q-5.5 18.5 5.5 41.5l154 281q16 31 46 42t66 -6q36 -19 47 -55t-14 -67l-209 -244q-37 -40 -75 -19 q-15 8 -20.5 26.5z" />
<glyph unicode="&#xea;" horiz-adv-x="1028" d="M84 469q0 90 32 176t89.5 154.5t145.5 110.5t190 42q181 0 280 -93.5t113 -250.5q0 -67 -36.5 -91.5t-106.5 -24.5h-498q0 -190 79 -302t244 -112q88 0 149.5 37.5t117.5 128.5q17 21 45 2q15 -9 19.5 -26.5t-3.5 -29.5q-64 -102 -161.5 -158.5t-219.5 -56.5 q-116 0 -208.5 39.5t-150.5 107.5t-89 156.5t-31 190.5zM272.5 1086.5q-4.5 14.5 6.5 37.5l208 303q18 27 50 27q34 0 53 -27l209 -303q11 -23 6 -37.5t-19 -23.5q-30 -15 -69 14q-57 44 -178 201q-120 -155 -179 -201q-39 -29 -69 -14q-14 9 -18.5 23.5zM293 569h334 q105 0 110 86q0 95 -51 160.5t-145 65.5q-105 0 -173 -83.5t-75 -228.5z" />
<glyph unicode="&#xeb;" horiz-adv-x="1028" d="M84 469q0 90 32 176t89.5 154.5t145.5 110.5t190 42q181 0 280 -93.5t113 -250.5q0 -67 -36.5 -91.5t-106.5 -24.5h-498q0 -190 79 -302t244 -112q88 0 149.5 37.5t117.5 128.5q17 21 45 2q15 -9 19.5 -26.5t-3.5 -29.5q-64 -102 -161.5 -158.5t-219.5 -56.5 q-116 0 -208.5 39.5t-150.5 107.5t-89 156.5t-31 190.5zM252 1243q0 53 37 88t92 35q53 0 88 -34.5t35 -88.5q0 -50 -36 -86.5t-89 -36.5q-52 0 -89.5 36.5t-37.5 86.5zM293 569h334q105 0 110 86q0 95 -51 160.5t-145 65.5q-105 0 -173 -83.5t-75 -228.5zM606 1243 q0 53 37 88t92 35q53 0 88 -34.5t35 -88.5q0 -50 -36 -86.5t-89 -36.5q-52 0 -89.5 36.5t-37.5 86.5z" />
<glyph unicode="&#xec;" horiz-adv-x="606" d="M31 1372q11 36 47 55q36 17 66 6t46 -42l154 -281q11 -22 6 -41t-20 -27q-38 -21 -76 19l-209 244q-25 31 -14 67zM68 35q1 7 2 12t3 9l3.5 7t5 4.5t5 2.5t7 1.5t7 0.5h8h8.5q30 0 51 7.5t31.5 16.5t15.5 29t5.5 32t0.5 39v15v469q0 70 -7 89q-17 50 -97 50 q-17 0 -25 1.5t-16 11t-8 28.5q0 31 32 37q81 12 139.5 27.5t87 26.5t42.5 12q17 2 28 -7t11 -32v-713q0 -70 7 -89q17 -50 99 -50h7.5h7t6 -0.5t6.5 -1t5 -1.5t4.5 -3t4 -5t3.5 -6.5t2 -8.5t1 -11q0 -17 -8.5 -29t-24.5 -12q-120 6 -215 6q-93 0 -213 -6q-14 0 -23 12.5 t-9 28.5z" />
<glyph unicode="&#xed;" horiz-adv-x="606" d="M68 35q1 7 2 12t3 9l3.5 7t5 4.5t5 2.5t7 1.5t7 0.5h8h8.5q30 0 51 7.5t31.5 16.5t15.5 29t5.5 32t0.5 39v15v469q0 70 -7 89q-17 50 -97 50q-17 0 -25 1.5t-16 11t-8 28.5q0 31 32 37q81 12 139.5 27.5t87 26.5t42.5 12q17 2 28 -7t11 -32v-713q0 -70 7 -89 q17 -50 99 -50h7.5h7t6 -0.5t6.5 -1t5 -1.5t4.5 -3t4 -5t3.5 -6.5t2 -8.5t1 -11q0 -17 -8.5 -29t-24.5 -12q-120 6 -215 6q-93 0 -213 -6q-14 0 -23 12.5t-9 28.5zM152 1069q-5 19 6 41l153 281q16 31 46.5 42t66.5 -6q36 -19 47 -55t-14 -67l-209 -244q-38 -40 -76 -19 q-15 8 -20 27z" />
<glyph unicode="&#xee;" horiz-adv-x="606" d="M-6.5 1086.5q-4.5 14.5 6.5 37.5l209 303q18 27 49 27q34 0 53 -27l209 -303q11 -23 6.5 -37.5t-18.5 -23.5q-31 -16 -70 14q-57 44 -178 201q-121 -157 -178 -201q-39 -30 -70 -14q-14 9 -18.5 23.5zM68 35q1 7 2 12t3 9l3.5 7t5 4.5t5 2.5t7 1.5t7 0.5h8h8.5 q30 0 51 7.5t31.5 16.5t15.5 29t5.5 32t0.5 39v15v469q0 70 -7 89q-17 50 -97 50q-17 0 -25 1.5t-16 11t-8 28.5q0 31 32 37q81 12 139.5 27.5t87 26.5t42.5 12q17 2 28 -7t11 -32v-713q0 -70 7 -89q17 -50 99 -50h7.5h7t6 -0.5t6.5 -1t5 -1.5t4.5 -3t4 -5t3.5 -6.5t2 -8.5 t1 -11q0 -17 -8.5 -29t-24.5 -12q-120 6 -215 6q-93 0 -213 -6q-14 0 -23 12.5t-9 28.5z" />
<glyph unicode="&#xef;" horiz-adv-x="606" d="M-27 1243q0 53 37 88t92 35q53 0 88 -34.5t35 -88.5q0 -50 -36 -86.5t-89 -36.5q-52 0 -89.5 36.5t-37.5 86.5zM68 35q1 7 2 12t3 9l3.5 7t5 4.5t5 2.5t7 1.5t7 0.5h8h8.5q30 0 51 7.5t31.5 16.5t15.5 29t5.5 32t0.5 39v15v469q0 70 -7 89q-17 50 -97 50q-17 0 -25 1.5 t-16 11t-8 28.5q0 31 32 37q81 12 139.5 27.5t87 26.5t42.5 12q17 2 28 -7t11 -32v-713q0 -70 7 -89q17 -50 99 -50h7.5h7t6 -0.5t6.5 -1t5 -1.5t4.5 -3t4 -5t3.5 -6.5t2 -8.5t1 -11q0 -17 -8.5 -29t-24.5 -12q-120 6 -215 6q-93 0 -213 -6q-14 0 -23 12.5t-9 28.5z M328 1243q0 53 37 88t92 35q53 0 88 -34.5t35 -88.5q0 -50 -36 -86.5t-89 -36.5q-52 0 -89.5 36.5t-37.5 86.5z" />
<glyph unicode="&#xf0;" horiz-adv-x="1153" d="M86 440q0 117 42.5 213.5t111 156.5t150.5 92t165 30q46 -1 83 -8.5t70.5 -26t50.5 -30t52 -38.5l8 2q-12 111 -55 205t-111 191l-198 -117q-16 -5 -31 12.5t-16 37.5t12 30l184 104q-47 61 -131 121q-29 21 -22 51q14 36 45 21q41 -20 103.5 -64t96.5 -77l176 106 q14 7 29.5 -10t18.5 -37t-9 -31l-155 -90q133 -140 207.5 -361t62.5 -456q-4 -117 -48 -213.5t-112.5 -155.5t-148.5 -91t-162 -32q-139 0 -247.5 65t-165 170.5t-56.5 229.5zM287 444q0 -83 14.5 -152t45 -124t84 -86t124.5 -31q72 0 125.5 32.5t83.5 91t44.5 131 t14.5 161.5q0 112 -26 197t-87.5 138.5t-154.5 53.5q-74 0 -127.5 -32t-83.5 -90t-43.5 -129.5t-13.5 -160.5z" />
<glyph unicode="&#xf1;" horiz-adv-x="1226" d="M68 35q1 7 2 12t3 9l3.5 7t5 4.5t5 2.5t7 1.5t7 0.5h8h8.5q30 0 51 7.5t31.5 16.5t15.5 29t5.5 32t0.5 39v15v469q0 70 -7 89q-17 50 -97 50q-17 0 -25 1.5t-16 11t-8 28.5q0 31 32 37q81 12 139 27.5t86 26.5t42 12q17 2 28 -7t11 -32v-129h6q38 36 50 47t49.5 39.5 t64 39t71 21t94.5 10.5q139 0 221 -84t82 -221v-436v-13q0 -33 1.5 -49.5t11 -37.5t32.5 -30t62 -9h7.5h7t6 -0.5t6.5 -1t5 -1.5t4.5 -3t4 -5t3.5 -6.5t2 -8.5t1 -11q0 -16 -9.5 -28.5t-23.5 -12.5q-120 6 -215 6q-93 0 -213 -6q-14 0 -23 12.5t-9 28.5q2 34 24 37h17h6 q17 0 31 2.5t24.5 4.5t18.5 10t13 10.5t9 15.5t6 15.5t3 19t1 18.5v22v21v434q0 94 -59 144.5t-137 50.5q-93 0 -160.5 -46.5t-93.5 -95.5v-487q0 -70 7 -89q17 -50 99 -50h7.5h7t6 -0.5t6.5 -1t5 -1.5t4.5 -3t4 -5t3.5 -6.5t2 -8.5t1 -11q0 -17 -8.5 -29t-24.5 -12 q-120 6 -215 6q-93 0 -213 -6q-14 0 -23 12.5t-9 28.5zM307 1204q30 77 88.5 132t136.5 55q39 -1 75.5 -19.5t59.5 -40.5t50 -40.5t51 -18.5q27 0 63.5 22t71.5 64q15 18 36 16t29.5 -18.5t-1.5 -42.5q-31 -75 -88.5 -126.5t-133.5 -51.5q-39 1 -75.5 19.5t-59 40.5 t-49.5 40t-51 18q-63 0 -135 -86q-21 -25 -50 -12.5t-18 49.5z" />
<glyph unicode="&#xf2;" horiz-adv-x="1122" d="M84 451q0 94 28.5 176t76.5 140.5t110 101t129 63t133 20.5q139 0 249.5 -67.5t169 -175.5t58.5 -232q0 -116 -44.5 -214t-114.5 -159.5t-153 -95t-165 -33.5q-139 0 -249.5 68t-169 176t-58.5 232zM293 455q0 -83 14.5 -153.5t45 -128t84 -90t124.5 -32.5q72 0 125.5 34 t83.5 94.5t44.5 134.5t14.5 163q0 83 -15 153.5t-46 126.5t-84 88t-123 32q-74 0 -127.5 -33.5t-83 -93.5t-43.5 -133t-14 -162zM330 1372q11 36 47 55q36 17 66 6t46 -42l154 -281q11 -22 6 -41t-20 -27q-38 -21 -76 19l-209 244q-25 31 -14 67z" />
<glyph unicode="&#xf3;" horiz-adv-x="1122" d="M84 451q0 94 28.5 176t76.5 140.5t110 101t129 63t133 20.5q139 0 249.5 -67.5t169 -175.5t58.5 -232q0 -116 -44.5 -214t-114.5 -159.5t-153 -95t-165 -33.5q-139 0 -249.5 68t-169 176t-58.5 232zM293 455q0 -83 14.5 -153.5t45 -128t84 -90t124.5 -32.5q72 0 125.5 34 t83.5 94.5t44.5 134.5t14.5 163q0 83 -15 153.5t-46 126.5t-84 88t-123 32q-74 0 -127.5 -33.5t-83 -93.5t-43.5 -133t-14 -162zM451 1069q-5 19 6 41l153 281q16 31 46.5 42t66.5 -6q36 -19 47 -55t-14 -67l-209 -244q-38 -40 -76 -19q-15 8 -20 27z" />
<glyph unicode="&#xf4;" horiz-adv-x="1122" d="M84 451q0 94 28.5 176t76.5 140.5t110 101t129 63t133 20.5q139 0 249.5 -67.5t169 -175.5t58.5 -232q0 -116 -44.5 -214t-114.5 -159.5t-153 -95t-165 -33.5q-139 0 -249.5 68t-169 176t-58.5 232zM292.5 1086.5q-4.5 14.5 6.5 37.5l209 303q18 27 49 27q34 0 53 -27 l209 -303q11 -23 6.5 -37.5t-18.5 -23.5q-31 -16 -70 14q-57 44 -178 201q-121 -157 -178 -201q-39 -30 -70 -14q-14 9 -18.5 23.5zM293 455q0 -83 14.5 -153.5t45 -128t84 -90t124.5 -32.5q72 0 125.5 34t83.5 94.5t44.5 134.5t14.5 163q0 83 -15 153.5t-46 126.5t-84 88 t-123 32q-74 0 -127.5 -33.5t-83 -93.5t-43.5 -133t-14 -162z" />
<glyph unicode="&#xf5;" horiz-adv-x="1122" d="M84 451q0 94 28.5 176t76.5 140.5t110 101t129 63t133 20.5q139 0 249.5 -67.5t169 -175.5t58.5 -232q0 -116 -44.5 -214t-114.5 -159.5t-153 -95t-165 -33.5q-139 0 -249.5 68t-169 176t-58.5 232zM233 1204q30 77 89 132t137 55q39 -1 75.5 -19.5t59 -40.5t49.5 -40.5 t51 -18.5q27 0 63.5 22t71.5 64q15 18 36 16t29.5 -18.5t-1.5 -42.5q-31 -75 -88 -126.5t-133 -51.5q-39 1 -75.5 19.5t-59.5 40.5t-50 40t-51 18q-63 0 -135 -86q-21 -25 -50 -12.5t-18 49.5zM293 455q0 -83 14.5 -153.5t45 -128t84 -90t124.5 -32.5q72 0 125.5 34 t83.5 94.5t44.5 134.5t14.5 163q0 83 -15 153.5t-46 126.5t-84 88t-123 32q-74 0 -127.5 -33.5t-83 -93.5t-43.5 -133t-14 -162z" />
<glyph unicode="&#xf6;" horiz-adv-x="1122" d="M84 451q0 94 28.5 176t76.5 140.5t110 101t129 63t133 20.5q139 0 249.5 -67.5t169 -175.5t58.5 -232q0 -116 -44.5 -214t-114.5 -159.5t-153 -95t-165 -33.5q-139 0 -249.5 68t-169 176t-58.5 232zM272 1243q0 53 37 88t92 35q53 0 88 -34.5t35 -88.5q0 -50 -36 -86.5 t-89 -36.5q-52 0 -89.5 36.5t-37.5 86.5zM293 455q0 -83 14.5 -153.5t45 -128t84 -90t124.5 -32.5q72 0 125.5 34t83.5 94.5t44.5 134.5t14.5 163q0 83 -15 153.5t-46 126.5t-84 88t-123 32q-74 0 -127.5 -33.5t-83 -93.5t-43.5 -133t-14 -162zM627 1243q0 53 37 88t92 35 q53 0 88 -34.5t35 -88.5q0 -50 -36 -86.5t-89 -36.5q-52 0 -89.5 36.5t-37.5 86.5z" />
<glyph unicode="&#xf7;" horiz-adv-x="1228" d="M106 541q0 21 13 38t33 17h921q19 0 32 -17t13 -38t-13 -38.5t-32 -17.5h-921q-19 0 -32.5 17.5t-13.5 38.5zM432 147q0 54 37 90.5t94 36.5q56 0 93.5 -36.5t37.5 -90.5q0 -58 -37.5 -93.5t-95.5 -35.5q-56 0 -92.5 35.5t-36.5 93.5zM432 909q0 54 37 90.5t94 36.5 q56 0 93.5 -36.5t37.5 -90.5q0 -58 -37.5 -93.5t-95.5 -35.5q-56 0 -92.5 35.5t-36.5 93.5z" />
<glyph unicode="&#xf8;" horiz-adv-x="1120" d="M84 451q0 94 28.5 176t76.5 140.5t110 101t129 63t133 20.5q170 0 295 -98l96 109q13 13 31 12.5t29 -10.5q12 -9 12.5 -25.5t-8.5 -26.5l-103 -114q125 -137 125 -322q0 -116 -44.5 -214t-114.5 -159.5t-153 -95t-165 -33.5q-165 0 -291 95l-71 -80q-13 -13 -31 -12.5 t-29 10.5q-12 9 -12.5 25t8.5 26l76 86q-127 136 -127 326zM293 455q0 -119 26 -207l449 508q-70 121 -207 121q-74 0 -127.5 -33.5t-83 -93.5t-43.5 -133t-14 -162zM356 168q70 -117 205 -117q72 0 125.5 34t83.5 94.5t44.5 134.5t14.5 163q0 113 -26 195z" />
<glyph unicode="&#xf9;" horiz-adv-x="1220" d="M35 840q0 31 33 37q81 12 139 27.5t86.5 26t42.5 11.5q17 2 28 -7t11 -32v-620q0 -94 59 -144.5t137 -50.5q95 0 163 46.5t91 94.5v430q0 70 -7 90q-19 49 -97 50q-17 0 -25 1.5t-16 11t-8 28.5q0 31 33 37q81 12 139 27.5t86.5 26t42.5 11.5q17 2 28 -7t11 -32v-708 q0 -121 162 -121q34 0 34 -39q0 -30 -34 -35l-330 -23q-9 0 -13.5 6.5t-5 12.5t-0.5 22v115h-4q-76 -73 -113 -97q-93 -61 -216 -61q-139 0 -221.5 84.5t-82.5 221.5v378q0 70 -7 90q-19 49 -97 50q-17 0 -25 1.5t-16 11t-8 28.5zM342 1372q11 36 47 55q36 17 66.5 6 t46.5 -42l153 -281q11 -22 6 -41t-20 -27q-38 -21 -76 19l-209 244q-25 31 -14 67z" />
<glyph unicode="&#xfa;" horiz-adv-x="1220" d="M35 840q0 31 33 37q81 12 139 27.5t86.5 26t42.5 11.5q17 2 28 -7t11 -32v-620q0 -94 59 -144.5t137 -50.5q95 0 163 46.5t91 94.5v430q0 70 -7 90q-19 49 -97 50q-17 0 -25 1.5t-16 11t-8 28.5q0 31 33 37q81 12 139 27.5t86.5 26t42.5 11.5q17 2 28 -7t11 -32v-708 q0 -121 162 -121q34 0 34 -39q0 -30 -34 -35l-330 -23q-9 0 -13.5 6.5t-5 12.5t-0.5 22v115h-4q-76 -73 -113 -97q-93 -61 -216 -61q-139 0 -221.5 84.5t-82.5 221.5v378q0 70 -7 90q-19 49 -97 50q-17 0 -25 1.5t-16 11t-8 28.5zM463 1069q-5 19 6 41l154 281q16 31 46 42 t66 -6q36 -19 47 -55t-14 -67l-209 -244q-38 -40 -76 -19q-15 8 -20 27z" />
<glyph unicode="&#xfb;" horiz-adv-x="1220" d="M35 840q0 31 33 37q81 12 139 27.5t86.5 26t42.5 11.5q17 2 28 -7t11 -32v-620q0 -94 59 -144.5t137 -50.5q95 0 163 46.5t91 94.5v430q0 70 -7 90q-19 49 -97 50q-17 0 -25 1.5t-16 11t-8 28.5q0 31 33 37q81 12 139 27.5t86.5 26t42.5 11.5q17 2 28 -7t11 -32v-708 q0 -121 162 -121q34 0 34 -39q0 -30 -34 -35l-330 -23q-9 0 -13.5 6.5t-5 12.5t-0.5 22v115h-4q-76 -73 -113 -97q-93 -61 -216 -61q-139 0 -221.5 84.5t-82.5 221.5v378q0 70 -7 90q-19 49 -97 50q-17 0 -25 1.5t-16 11t-8 28.5zM305 1086.5q-5 14.5 6 37.5l209 303 q18 27 49 27q35 0 54 -27l208 -303q11 -23 6.5 -37.5t-18.5 -23.5q-30 -15 -69 14q-59 46 -179 201q-121 -157 -178 -201q-39 -29 -69 -14q-14 9 -19 23.5z" />
<glyph unicode="&#xfc;" horiz-adv-x="1220" d="M35 840q0 31 33 37q81 12 139 27.5t86.5 26t42.5 11.5q17 2 28 -7t11 -32v-620q0 -94 59 -144.5t137 -50.5q95 0 163 46.5t91 94.5v430q0 70 -7 90q-19 49 -97 50q-17 0 -25 1.5t-16 11t-8 28.5q0 31 33 37q81 12 139 27.5t86.5 26t42.5 11.5q17 2 28 -7t11 -32v-708 q0 -121 162 -121q34 0 34 -39q0 -30 -34 -35l-330 -23q-9 0 -13.5 6.5t-5 12.5t-0.5 22v115h-4q-76 -73 -113 -97q-93 -61 -216 -61q-139 0 -221.5 84.5t-82.5 221.5v378q0 70 -7 90q-19 49 -97 50q-17 0 -25 1.5t-16 11t-8 28.5zM285 1243q0 53 37 88t92 35q53 0 88 -34.5 t35 -88.5q0 -50 -36 -86.5t-89 -36.5q-52 0 -89.5 36.5t-37.5 86.5zM639 1243q0 53 37 88t92 35q53 0 88 -34.5t35 -88.5q0 -50 -36 -86.5t-89 -36.5q-52 0 -89.5 36.5t-37.5 86.5z" />
<glyph unicode="&#xfd;" horiz-adv-x="1130" d="M-27 -254q3 106 93 134q21 7 38 7q35 0 57.5 -14t22.5 -27q0 -1 -7.5 -9t-15.5 -25t-9 -39q-2 -41 24 -74t74 -33q130 0 252 264q15 46 -2 95q-46 104 -138.5 347t-136.5 335q-36 79 -66 109.5t-89 37.5q-4 1 -13 2t-11.5 1.5t-8 2.5t-6.5 4t-3.5 6t-3.5 9.5t-1 13.5 t1.5 14.5t3 11t6.5 7.5t8 4.5t11.5 2.5t11.5 1.5t14 1t15 0.5q125 6 197.5 -36t118.5 -146q20 -44 95 -239.5t118 -283.5h6l200 537q10 30 11 47t-9.5 26.5t-28 12t-50.5 2.5h-7.5h-8t-6.5 0.5t-6.5 1.5t-5 2.5t-4.5 4.5t-3 7t-3 9t-1 12q0 15 7 28t21 13q117 -6 199 -6 q50 0 170 6q14 0 22.5 -13.5t8.5 -27.5q-1 -15 -3.5 -23t-12.5 -11t-11.5 -3h-17.5q-69 0 -108.5 -26t-68.5 -95q-301 -743 -307 -755q-26 -61 -50.5 -111.5t-64 -112t-80.5 -103t-97 -70.5t-115 -29q-90 0 -158.5 57.5t-67.5 134.5zM457 1069q-5 19 6 41l153 281 q16 31 46.5 42t66.5 -6q36 -19 47 -55t-14 -67l-209 -244q-38 -40 -76 -19q-15 8 -20 27z" />
<glyph unicode="&#xfe;" horiz-adv-x="1148" d="M6 -385q1 18 7.5 26.5t12.5 9.5t21 1h6q32 0 53 8.5t31.5 18.5t16 33t6 36t0.5 43v1417v13q0 27 -0.5 40t-5.5 33t-16 29.5t-31.5 17t-51.5 7.5q-17 0 -25 1.5t-16 11t-8 28.5q0 30 33 36q81 12 139 27.5t86.5 26.5t42.5 12q17 2 28 -7t11 -32v-618h6q59 59 134 88.5 t149 29.5q184 0 307 -135t123 -346q0 -137 -65.5 -252t-173 -179.5t-230.5 -64.5q-133 0 -242 64h-8v-248q0 -30 0.5 -43t6 -36t16 -33t31.5 -18.5t53 -8.5h7.5h7t6 -0.5t6.5 -1t5 -1.5t4.5 -3t4 -5t3.5 -6.5t2 -8.5t1 -11q0 -17 -8.5 -29t-24.5 -12q-120 6 -215 6 q-93 0 -213 -6q-14 0 -23.5 12.5t-9.5 28.5zM346 215q5 -23 22 -50.5t44.5 -55.5t71.5 -46t94 -18q124 0 201 113.5t77 304.5q0 74 -17 141t-50.5 123t-92 89.5t-133.5 33.5q-129 0 -217 -94v-541z" />
<glyph unicode="&#xff;" horiz-adv-x="1130" d="M-27 -254q3 106 93 134q21 7 38 7q35 0 57.5 -14t22.5 -27q0 -1 -7.5 -9t-15.5 -25t-9 -39q-2 -41 24 -74t74 -33q130 0 252 264q15 46 -2 95q-46 104 -138.5 347t-136.5 335q-36 79 -66 109.5t-89 37.5q-4 1 -13 2t-11.5 1.5t-8 2.5t-6.5 4t-3.5 6t-3.5 9.5t-1 13.5 t1.5 14.5t3 11t6.5 7.5t8 4.5t11.5 2.5t11.5 1.5t14 1t15 0.5q125 6 197.5 -36t118.5 -146q20 -44 95 -239.5t118 -283.5h6l200 537q10 30 11 47t-9.5 26.5t-28 12t-50.5 2.5h-7.5h-8t-6.5 0.5t-6.5 1.5t-5 2.5t-4.5 4.5t-3 7t-3 9t-1 12q0 15 7 28t21 13q117 -6 199 -6 q50 0 170 6q14 0 22.5 -13.5t8.5 -27.5q-1 -15 -3.5 -23t-12.5 -11t-11.5 -3h-17.5q-69 0 -108.5 -26t-68.5 -95q-301 -743 -307 -755q-26 -61 -50.5 -111.5t-64 -112t-80.5 -103t-97 -70.5t-115 -29q-90 0 -158.5 57.5t-67.5 134.5zM279 1243q0 53 37 88t92 35 q53 0 87.5 -34.5t34.5 -88.5q0 -50 -35.5 -86.5t-88.5 -36.5q-52 0 -89.5 36.5t-37.5 86.5zM633 1243q0 53 37 88t92 35q53 0 88 -34.5t35 -88.5q0 -50 -36 -86.5t-89 -36.5q-52 0 -89.5 36.5t-37.5 86.5z" />
<glyph unicode="&#x152;" horiz-adv-x="2064" d="M100 653q0 127 42 234t112.5 180.5t164.5 125t197 75.5t211 24h1031q53 0 53 -49l6 -287q0 -19 -17.5 -30t-37.5 -11q-25 0 -43 9.5t-21 27.5q-12 75 -24 118.5t-34.5 77t-56 47t-86.5 15.5h-274v-520h371q14 -1 22 -15t8 -32q0 -16 -8 -28.5t-22 -12.5h-371v-387 q5 -60 17 -83q31 -52 126 -50h189q36 1 62 6t47 18t34.5 27.5t27.5 45.5t23.5 59.5t24.5 80.5q13 36 70 29q20 -3 35 -15.5t14 -31.5l-41 -258q-6 -27 -18.5 -35t-41.5 -8h-1095q-195 0 -352.5 77.5t-251 227.5t-93.5 348zM342 651q0 -257 137 -413t363 -156h145q37 0 63 10 t39 22.5t20.5 37.5t8.5 41t2 47v813q-1 31 -2 47t-8.5 41t-20.5 37t-39 22t-63 10h-162q-102 0 -186.5 -30t-152.5 -93.5t-106 -174.5t-38 -261z" />
<glyph unicode="&#x153;" horiz-adv-x="1773" d="M84 451q0 94 28.5 176t76.5 140.5t110 101t129 63t133 20.5q116 0 211.5 -47.5t161.5 -128.5q64 81 153.5 128.5t198.5 47.5q181 0 280 -93.5t113 -250.5q0 -67 -36.5 -91.5t-106.5 -24.5h-498q0 -190 79.5 -302t244.5 -112q87 0 148.5 37.5t117.5 128.5q17 21 45 2 q15 -9 20 -26.5t-3 -29.5q-64 -102 -161.5 -158.5t-219.5 -56.5q-253 0 -385 183q-66 -85 -158.5 -134t-204.5 -49q-139 0 -249.5 68t-169 176t-58.5 232zM293 455q0 -83 14.5 -153.5t45 -128t84 -90t124.5 -32.5q72 0 125.5 34t83.5 94.5t44.5 134.5t14.5 163 q0 83 -15 153.5t-46 126.5t-84 88t-123 32q-74 0 -127.5 -33.5t-83 -93.5t-43.5 -133t-14 -162zM1030 569h342q106 0 111 86q0 94 -51 160t-146 66q-105 0 -177 -84t-79 -228z" />
<glyph unicode="&#x2c6;" horiz-adv-x="790" d="M126.5 1086.5q-4.5 14.5 6.5 37.5l209 303q18 27 49 27q34 0 53 -27l209 -303q11 -23 6.5 -37.5t-18.5 -23.5q-31 -16 -70 14q-57 44 -178 201q-121 -157 -178 -201q-39 -30 -70 -14q-14 9 -18.5 23.5z" />
<glyph unicode="&#x2dc;" horiz-adv-x="870" d="M98 1204q30 77 89 132t137 55q39 -1 75.5 -19.5t59 -40.5t49.5 -40.5t51 -18.5q27 0 63.5 22t71.5 64q15 18 36 16t29.5 -18.5t-1.5 -42.5q-32 -75 -88.5 -126.5t-132.5 -51.5q-39 1 -75.5 19.5t-59.5 40.5t-50 40t-51 18q-63 0 -135 -86q-21 -25 -50 -12.5t-18 49.5z " />
<glyph unicode="&#x2000;" horiz-adv-x="931" />
<glyph unicode="&#x2001;" horiz-adv-x="1862" />
<glyph unicode="&#x2002;" horiz-adv-x="931" />
<glyph unicode="&#x2003;" horiz-adv-x="1862" />
<glyph unicode="&#x2004;" horiz-adv-x="620" />
<glyph unicode="&#x2005;" horiz-adv-x="465" />
<glyph unicode="&#x2006;" horiz-adv-x="310" />
<glyph unicode="&#x2007;" horiz-adv-x="310" />
<glyph unicode="&#x2008;" horiz-adv-x="232" />
<glyph unicode="&#x2009;" horiz-adv-x="372" />
<glyph unicode="&#x200a;" horiz-adv-x="103" />
<glyph unicode="&#x2010;" horiz-adv-x="788" d="M123 473q0 24 13.5 45t33.5 21h448q20 0 34 -21t14 -45q0 -22 -14 -43.5t-34 -21.5h-448q-20 0 -33.5 21t-13.5 44z" />
<glyph unicode="&#x2011;" horiz-adv-x="788" d="M123 473q0 24 13.5 45t33.5 21h448q20 0 34 -21t14 -45q0 -22 -14 -43.5t-34 -21.5h-448q-20 0 -33.5 21t-13.5 44z" />
<glyph unicode="&#x2012;" horiz-adv-x="788" d="M123 473q0 24 13.5 45t33.5 21h448q20 0 34 -21t14 -45q0 -22 -14 -43.5t-34 -21.5h-448q-20 0 -33.5 21t-13.5 44z" />
<glyph unicode="&#x2013;" horiz-adv-x="1142" d="M125 541q0 23 13 39t34 16h791q21 0 34 -16t13 -39q0 -22 -13 -39t-34 -17h-791q-21 0 -34 17t-13 39z" />
<glyph unicode="&#x2014;" horiz-adv-x="1777" d="M125 541q0 23 13 39t34 16h1425q21 0 34.5 -16t13.5 -39q0 -21 -13.5 -38.5t-34.5 -17.5h-1425q-21 0 -34 17t-13 39z" />
<glyph unicode="&#x2018;" horiz-adv-x="462" d="M78 1184q0 61 26.5 112.5t72.5 88t96 61t108 41.5q19 7 34 -6t13.5 -31.5t-20.5 -26.5q-175 -65 -175 -182q0 -28 16 -50t38.5 -37t45 -29.5t38.5 -35.5t16 -47q0 -39 -30 -70.5t-72 -31.5q-86 0 -146.5 76.5t-60.5 167.5z" />
<glyph unicode="&#x2019;" horiz-adv-x="489" d="M77.5 981.5q1.5 18.5 20.5 26.5q174 65 174 182q0 28 -16 50t-38 37t-44.5 29.5t-38.5 35.5t-16 47q0 39 30 70.5t72 31.5q86 0 146.5 -76.5t60.5 -167.5q0 -61 -26.5 -112.5t-72.5 -88t-96 -61t-108 -41.5q-19 -7 -34 6t-13.5 31.5z" />
<glyph unicode="&#x201a;" horiz-adv-x="485" d="M51.5 -208.5q1.5 18.5 20.5 26.5q174 65 174 182q0 28 -16 50t-38.5 37t-45 29.5t-38.5 35.5t-16 47q0 39 30.5 70.5t72.5 31.5q86 0 146 -76.5t60 -167.5q0 -61 -26.5 -112.5t-72.5 -88t-96 -61t-108 -41.5q-19 -7 -33.5 6t-13 31.5z" />
<glyph unicode="&#x201c;" horiz-adv-x="872" d="M78 1186q0 61 26.5 112.5t72.5 88t96 61t108 41.5q19 7 34 -6t13.5 -31.5t-20.5 -26.5q-175 -65 -175 -182q0 -28 16 -50t38.5 -37t45 -29.5t38.5 -35.5t16 -47q0 -39 -30 -70.5t-72 -31.5q-86 0 -146.5 76.5t-60.5 167.5zM487 1186q0 61 27 112.5t73 88t96 61t108 41.5 q19 7 33.5 -6t13 -31.5t-20.5 -26.5q-174 -65 -174 -182q0 -28 16 -50t38.5 -37t45 -29.5t38.5 -35.5t16 -47q0 -39 -30.5 -70.5t-72.5 -31.5q-86 0 -146.5 76.5t-60.5 167.5z" />
<glyph unicode="&#x201d;" horiz-adv-x="897" d="M77.5 993.5q1.5 18.5 20.5 26.5q174 65 174 182q0 28 -16 50t-38 37t-44.5 29.5t-38.5 35.5t-16 47q0 39 30 70.5t72 31.5q86 0 146.5 -76t60.5 -167q0 -61 -27 -113t-72.5 -88t-96 -61t-107.5 -42q-19 -7 -34 6t-13.5 31.5zM487.5 993.5q1.5 18.5 20.5 26.5 q174 65 174 182q0 28 -16 50t-38.5 37t-45 29.5t-38.5 35.5t-16 47q0 39 30.5 70.5t72.5 31.5q86 0 146.5 -76t60.5 -167q0 -61 -27 -113t-72.5 -88t-96 -61t-107.5 -42q-19 -7 -34 6t-13.5 31.5z" />
<glyph unicode="&#x201e;" horiz-adv-x="894" d="M51.5 -208.5q1.5 18.5 20.5 26.5q174 65 174 182q0 28 -16 50t-38.5 37t-45 29.5t-38.5 35.5t-16 47q0 39 30.5 70.5t72.5 31.5q86 0 146 -76.5t60 -167.5q0 -61 -26.5 -112.5t-72.5 -88t-96 -61t-108 -41.5q-19 -7 -33.5 6t-13 31.5zM460.5 -208.5q1.5 18.5 20.5 26.5 q174 65 174 182q0 28 -16 50t-38.5 37t-44.5 29.5t-38 35.5t-16 47q0 39 30 70.5t72 31.5q86 0 146.5 -76.5t60.5 -167.5q0 -61 -26.5 -112.5t-72.5 -88t-96 -61t-108 -41.5q-19 -7 -34 6t-13.5 31.5z" />
<glyph unicode="&#x2022;" horiz-adv-x="874" d="M184 565q0 102 73 174t179 72q108 0 182 -72t74 -174q0 -113 -73 -182.5t-185 -69.5q-108 0 -179 70t-71 182z" />
<glyph unicode="&#x202f;" horiz-adv-x="372" />
<glyph unicode="&#x2039;" horiz-adv-x="872" d="M59 594q0 37 29 55l614 381q29 16 48.5 -2t21.5 -49q4 -47 -29 -64l-524 -321l524 -322q33 -17 29 -63q-2 -31 -22.5 -49.5t-47.5 -1.5l-614 383q-29 19 -29 53z" />
<glyph unicode="&#x203a;" horiz-adv-x="872" d="M100 209q-4 46 29 63l524 322l-524 321q-33 17 -29 64q2 31 21.5 49t48.5 2l614 -381q29 -18 29 -55q0 -34 -29 -53l-614 -383q-27 -17 -47.5 1.5t-22.5 49.5z" />
<glyph unicode="&#x205f;" horiz-adv-x="465" />
<glyph unicode="&#x20ac;" horiz-adv-x="1263" d="M94 438q0 20 13 38t36 18h74q-2 20 -2 67q0 49 6 98h-110q-7 0 -12 8t-5 17q0 20 13 37.5t36 17.5h93q47 192 187.5 306t326.5 114q28 -1 55 -3.5t68.5 -9.5t77.5 -22.5t71 -37.5t61 -58.5t37 -83.5q18 -73 -21 -138t-114 -65q-39 0 -66.5 21t-27.5 35q0 2 16.5 15 t33.5 39t17 58q0 63 -36 106.5t-84 60t-99 14.5q-129 -7 -205 -104.5t-102 -246.5h389q7 0 12 -7.5t5 -16.5q0 -20 -13.5 -38t-36.5 -18h-366q-4 -61 -2 -90q0 -50 2 -75h305q16 0 16 -25q0 -20 -13 -37.5t-36 -17.5h-260q33 -158 126 -255.5t222 -97.5q111 0 187.5 68 t120.5 178q14 28 51 6q32 -21 18 -55q-64 -149 -171.5 -216t-262.5 -67q-115 0 -217.5 51.5t-177 152.5t-101.5 235h-118q-7 0 -12 7.5t-5 16.5z" />
<glyph unicode="&#xe000;" horiz-adv-x="931" d="M0 0v932h932v-932h-932z" />
<glyph unicode="&#xfb01;" horiz-adv-x="1259" d="M51 858q0 7 1 12.5t3 9.5t3 7t5.5 5t5.5 3t7 1.5t7 0.5h8.5h8.5h144q6 282 153 434t385 152q101 0 177.5 -54.5t76.5 -146.5q0 -64 -37.5 -112t-101.5 -48q-40 0 -68 21t-28 35q0 2 17.5 17.5t35.5 45t18 66.5q0 112 -143 112q-133 0 -217 -132t-80 -390h322l288 66 q19 4 19 -15v-737q0 -70 7 -89q19 -49 99 -50h7.5h7t6 -0.5t6.5 -1t5 -1.5t4.5 -3t4 -5t3.5 -6.5t2 -8.5t1 -11q0 -17 -8 -29t-24 -12q-120 6 -215 6q-93 0 -213 -6q-14 0 -23.5 12.5t-9.5 28.5q1 7 2 12t3 9l3.5 7t5 4.5t5 2.5t7 1.5t7 0.5h8h8.5q30 0 51 7.5t31.5 16.5 t15.5 29t5.5 32t0.5 39v15v467q0 70 -7 89q-17 50 -97 50h-338v-606v-13q0 -27 0.5 -40t5.5 -32.5t16 -29t31.5 -17t51.5 -7.5h7.5h7.5t6.5 -0.5t6 -1t5 -1.5t5 -3t3.5 -5t3 -6.5t2 -8.5t1 -11q0 -16 -8.5 -28.5t-22.5 -12.5q-120 6 -215 6q-96 0 -213 -6q-16 0 -24.5 12 t-8.5 29q0 7 1 12t3 9t3 7t4.5 4.5t5 2.5t7 1.5t7 0.5h8h8.5q22 0 39 3.5t28.5 9.5t19 14.5t11 19.5t5.5 23t2 25.5v27.5v16v606h-158q-16 0 -25.5 12.5t-9.5 28.5z" />
</font>
</defs>
</svg>
