<?xml version="1.0" encoding="utf-8"?>
<!-- Generator: Adobe Illustrator 15.0.2, SVG Export Plug-In  -->
<!DOCTYPE svg PUBLIC "-//W3C//DTD SVG 1.1//EN" "http://www.w3.org/Graphics/SVG/1.1/DTD/svg11.dtd" [
	<!ENTITY ns_flows "http://ns.adobe.com/Flows/1.0/">
]>
<svg version="1.1"
	 xmlns="http://www.w3.org/2000/svg" xmlns:xlink="http://www.w3.org/1999/xlink" xmlns:a="http://ns.adobe.com/AdobeSVGViewerExtensions/3.0/"
	 x="0px" y="0px" width="72px" height="72px" viewBox="0 -12.889 72 72"
	 overflow="visible" enable-background="new 0 -12.889 72 72" xml:space="preserve">
<defs>
</defs>
<path fill="none" d="M46.537,46.099c0.787,0.08,1.584,0.123,2.391,0.123c0.302,0,0.601-0.018,0.9-0.029
	c-0.312,0.014-0.624,0.023-0.938,0.023C48.096,46.216,47.312,46.177,46.537,46.099z"/>
<path fill="none" d="M21.888,0.037c-0.325,0.017-0.647,0.044-0.968,0.073C21.241,0.08,21.563,0.055,21.888,0.037z"/>
<path fill="none" d="M20.656,0.136c-0.339,0.035-0.676,0.078-1.01,0.128C19.979,0.213,20.317,0.172,20.656,0.136z"/>
<path fill="none" d="M51.08,46.111c-0.32,0.031-0.643,0.057-0.968,0.074C50.438,46.167,50.76,46.14,51.08,46.111z"/>
<path fill="none" d="M52.354,45.958c-0.334,0.051-0.671,0.092-1.011,0.127C51.684,46.05,52.02,46.007,52.354,45.958z"/>
<path fill="none" d="M22.172,0.028c0.312-0.013,0.624-0.023,0.938-0.023c0.794,0,1.579,0.039,2.353,0.118
	C24.677,0.042,23.879,0,23.073,0C22.771,0,22.472,0.017,22.172,0.028z"/>
<path d="M16.849,23.054l-0.001-0.173H9.3l12.01-11.986l12.033,11.986h-7.586l0.003,0.173c0,11.969,9.122,21.844,20.777,23.045
	c0.774,0.078,1.559,0.117,2.354,0.117c0.313,0,0.626-0.01,0.938-0.023c0.094-0.002,0.189-0.004,0.284-0.008
	c0.325-0.018,0.647-0.043,0.968-0.074c0.088-0.008,0.177-0.016,0.264-0.025c0.34-0.035,0.677-0.076,1.011-0.127
	c0.044-0.008,0.087-0.014,0.13-0.021C63.541,44.21,72,34.648,72,23.107C72,10.346,61.653,0,48.891,0
	c-1.15,0-2.279,0.088-3.384,0.249c5.948,5.823,9.644,13.938,9.644,22.919l0.002,0.173H62.7L50.69,35.328L38.658,23.341h7.586
	l-0.004-0.173c0-11.969-9.122-21.845-20.778-23.045c-0.774-0.079-1.558-0.118-2.353-0.118c-0.314,0-0.626,0.011-0.938,0.023
	c-0.094,0.003-0.19,0.004-0.284,0.009c-0.325,0.018-0.647,0.043-0.968,0.073c-0.088,0.009-0.176,0.016-0.264,0.025
	c-0.339,0.036-0.676,0.077-1.01,0.128c-0.043,0.007-0.086,0.014-0.129,0.021C8.459,2.012,0,11.573,0,23.114
	c0,12.762,10.347,23.108,23.11,23.108c1.15,0,2.278-0.088,3.383-0.25C20.545,40.15,16.849,32.035,16.849,23.054z"/>
</svg>
