<?xml version="1.0" encoding="utf-8"?>
<!-- Generator: Adobe Illustrator 15.0.2, SVG Export Plug-In  -->
<!DOCTYPE svg PUBLIC "-//W3C//DTD SVG 1.1//EN" "http://www.w3.org/Graphics/SVG/1.1/DTD/svg11.dtd" [
	<!ENTITY ns_flows "http://ns.adobe.com/Flows/1.0/">
]>
<svg version="1.1"
	 xmlns="http://www.w3.org/2000/svg" xmlns:xlink="http://www.w3.org/1999/xlink" xmlns:a="http://ns.adobe.com/AdobeSVGViewerExtensions/3.0/"
	 x="0px" y="0px" width="72px" height="72px" viewBox="0.014 -0.058 72 72"
	 overflow="visible" enable-background="new 0.014 -0.058 72 72" xml:space="preserve">
<defs>
</defs>
<path d="M47.588,41.817l0.945,1.914l-2.026,2.027l-1.88,1.879c-1.116,1.117-2.438,1.947-3.876,2.48l12.769,12.77l6.041,8.094
	l3.206,0.867l8.91-8.961l-0.863-3.279l-8.037-5.982L50.709,41.557l-1.202,1.201L47.588,41.817z M61.91,58.184
	c2.083,0,3.771,1.689,3.771,3.773c0,2.082-1.688,3.771-3.771,3.771s-3.772-1.689-3.772-3.771
	C58.138,59.874,59.827,58.184,61.91,58.184z"/>
<path d="M26.259,25.532l2.072-2.072l1.876,0.977l-0.975-1.879l2.071-2.072l0.206-0.206c0.46-1.191,0.73-2.368,0.729-3.472
	c0-8.549-8.175-16.82-16.718-16.718c-0.033,0-0.999,0.979-1.525,1.505c6.848,6.849,6.282,5.736,6.282,9.937
	c0,3.408-5.458,8.79-8.79,8.79c-4.312,0-2.939,0.715-9.935-6.283c-0.544,0.543-1.508,1.493-1.509,1.526
	C0.148,24.11,8.22,32.283,16.766,32.283c1.547,0,3.201-0.494,4.834-1.315l0.311,0.311c0.522-1.414,1.344-2.743,2.479-3.878
	L26.259,25.532z"/>
<path d="M70.04,6.972l-4.984-4.984C63.73,0.662,61.994,0,60.258,0c-1.737,0-3.475,0.663-4.798,1.989L34.132,23.314
	c0.655,1.263,0.172,3.177-0.847,4.197c-0.701,0.702-1.824,1.148-2.866,1.148c-0.478,0-0.937-0.093-1.333-0.299l-1.869,1.868
	c-2.65,2.65-2.65,6.947-0.002,9.595l0.348,0.348L10.922,56.811l-4.442,1.68L0,67.739l4.159,4.145l9.233-6.453l1.683-4.479
	l16.632-16.633l0.494,0.494c1.324,1.324,3.061,1.986,4.796,1.986c1.738,0,3.475-0.664,4.801-1.99l1.88-1.879
	c-0.621-1.262-0.141-3.145,0.871-4.156c0.698-0.699,1.817-1.145,2.859-1.145c0.46,0,0.906,0.088,1.293,0.277L70.04,16.569
	C72.689,13.919,72.689,9.622,70.04,6.972z"/>
</svg>
